SplineFontDB: 3.0
FontName: Imprima-Regular
FullName: Imprima
FamilyName: Imprima
Weight: Book
Copyright: Copyright (c) 2012, Eduardo Tunni (http://www.tipo.net.ar), with Reserved Font Name "Imprima"
Version: 1.001
ItalicAngle: 0
UnderlinePosition: -50
UnderlineWidth: 50
Ascent: 800
Descent: 200
sfntRevision: 0x00010042
LayerCount: 2
Layer: 0 1 "Back"  1
Layer: 1 1 "Fore"  0
XUID: [1021 262 472516109 2704669]
FSType: 0
OS2Version: 2
OS2_WeightWidthSlopeOnly: 0
OS2_UseTypoMetrics: 1
CreationTime: 1330110542
ModificationTime: 1330127038
PfmFamily: 81
TTFWeight: 400
TTFWidth: 5
LineGap: 0
VLineGap: 0
Panose: 0 0 0 0 0 0 0 0 0 0
OS2TypoAscent: 119
OS2TypoAOffset: 1
OS2TypoDescent: -39
OS2TypoDOffset: 1
OS2TypoLinegap: 0
OS2WinAscent: 0
OS2WinAOffset: 1
OS2WinDescent: 0
OS2WinDOffset: 1
HheadAscent: 0
HheadAOffset: 1
HheadDescent: 0
HheadDOffset: 1
OS2SubXSize: 700
OS2SubYSize: 650
OS2SubXOff: 0
OS2SubYOff: 140
OS2SupXSize: 700
OS2SupYSize: 650
OS2SupXOff: 0
OS2SupYOff: 477
OS2StrikeYSize: 50
OS2StrikeYPos: 250
OS2Vendor: 'TIPO'
OS2CodePages: 20000001.00000000
OS2UnicodeRanges: 800000af.5000204a.00000000.00000000
Lookup: 4 0 1 "'liga' Standard Ligatures in Latin lookup 0"  {"'liga' Standard Ligatures in Latin lookup 0 subtable"  } ['liga' ('latn' <'dflt' > ) ]
Lookup: 258 0 0 "'kern' Horizontal Kerning in Latin lookup 0"  {"'kern' Horizontal Kerning in Latin lookup 0 per glyph data 0"  "'kern' Horizontal Kerning in Latin lookup 0 per glyph data 1"  "'kern' Horizontal Kerning in Latin lookup 0 kerning class 2"  } ['kern' ('latn' <'dflt' > ) ]
DEI: 91125
KernClass2: 7+ 9 "'kern' Horizontal Kerning in Latin lookup 0 kerning class 2" 
 50 A Agrave Aacute Acircumflex Atilde Adieresis Aring
 18 Y Yacute Ydieresis
 20 v y yacute ydieresis
 8 L Lslash
 22 quoteleft quotedblleft
 53 O Q Ograve Oacute Ocircumflex Otilde Odieresis Oslash
 20 quotedbl quotesingle
 20 v y yacute ydieresis
 18 Y Yacute Ydieresis

StartChar: exclam
Encoding: 33 33 4
Width: 270
GlyphClass: 2
Flags: W
LayerCount: 2
Fore
SplineSet
102 180 m 1,0,-1
 92 660 l 1,1,-1
 178 660 l 1,2,-1
 168 180 l 1,3,-1
 102 180 l 1,0,-1
80 41 m 128,-1,5
 80 65 80 65 94 80.5 c 128,-1,6
 108 96 108 96 134.5 96 c 128,-1,7
 161 96 161 96 175.5 80.5 c 128,-1,8
 190 65 190 65 190 41 c 128,-1,9
 190 17 190 17 175.5 1.5 c 128,-1,10
 161 -14 161 -14 134.5 -14 c 128,-1,11
 108 -14 108 -14 94 1.5 c 128,-1,4
 80 17 80 17 80 41 c 128,-1,5
EndSplineSet
EndChar

StartChar: quotedbl
Encoding: 34 34 5
Width: 303
GlyphClass: 2
Flags: W
LayerCount: 2
Fore
SplineSet
191 457 m 1,0,-1
 181 680 l 1,1,-1
 263 680 l 1,2,-1
 253 457 l 1,3,-1
 191 457 l 1,0,-1
50 457 m 1,4,-1
 40 680 l 1,5,-1
 122 680 l 1,6,-1
 112 457 l 1,7,-1
 50 457 l 1,4,-1
EndSplineSet
EndChar

StartChar: numbersign
Encoding: 35 35 6
Width: 518
GlyphClass: 2
Flags: W
LayerCount: 2
Fore
SplineSet
290 -26 m 1,0,-1
 318 171 l 1,1,-1
 159 171 l 1,2,-1
 131 -26 l 1,3,-1
 63 -26 l 1,4,-1
 91 171 l 1,5,-1
 -14 171 l 1,6,-1
 -6 233 l 1,7,-1
 100 233 l 1,8,-1
 122 386 l 1,9,-1
 17 386 l 1,10,-1
 25 449 l 1,11,-1
 131 449 l 1,12,-1
 160 646 l 1,13,-1
 228 646 l 1,14,-1
 199 449 l 1,15,-1
 358 449 l 1,16,-1
 386 646 l 1,17,-1
 454 646 l 1,18,-1
 425 449 l 1,19,-1
 532 449 l 1,20,-1
 524 386 l 1,21,-1
 416 386 l 1,22,-1
 394 233 l 1,23,-1
 501 233 l 1,24,-1
 492 171 l 1,25,-1
 385 171 l 1,26,-1
 357 -26 l 1,27,-1
 290 -26 l 1,0,-1
190 386 m 1,28,-1
 168 233 l 1,29,-1
 327 233 l 1,30,-1
 349 386 l 1,31,-1
 190 386 l 1,28,-1
EndSplineSet
EndChar

StartChar: dollar
Encoding: 36 36 7
Width: 518
GlyphClass: 2
Flags: W
LayerCount: 2
Fore
SplineSet
75 465 m 0,0,1
 75 536 75 536 121 583.5 c 128,-1,2
 167 631 167 631 258 635 c 1,3,-1
 263 705 l 1,4,-1
 316 705 l 1,5,-1
 311 634 l 1,6,7
 380 626 380 626 438 589 c 1,8,-1
 406 527 l 1,9,10
 356 557 356 557 306 563 c 1,11,-1
 291 351 l 1,12,-1
 336 337 l 2,13,14
 396 318 396 318 426 275 c 128,-1,15
 456 232 456 232 456 168 c 128,-1,16
 456 104 456 104 405.5 49.5 c 128,-1,17
 355 -5 355 -5 266 -14 c 1,18,-1
 261 -85 l 1,19,-1
 208 -85 l 1,20,-1
 213 -15 l 1,21,22
 116 -11 116 -11 61 27 c 1,23,-1
 94 87 l 1,24,25
 138 58 138 58 218 55 c 1,26,-1
 234 291 l 1,27,-1
 185 307 l 2,28,29
 126 326 126 326 100.5 371.5 c 128,-1,30
 75 417 75 417 75 465 c 0,0,1
381 172 m 0,31,32
 381 243 381 243 306 268 c 1,33,-1
 286 274 l 1,34,-1
 271 58 l 1,35,36
 323 67 323 67 352 99 c 128,-1,37
 381 131 381 131 381 172 c 0,31,32
149 468 m 0,38,39
 149 396 149 396 220 374 c 1,40,-1
 240 367 l 1,41,-1
 253 564 l 1,42,43
 202 559 202 559 175.5 532 c 128,-1,44
 149 505 149 505 149 468 c 0,38,39
EndSplineSet
EndChar

StartChar: percent
Encoding: 37 37 8
Width: 770
GlyphClass: 2
Flags: W
LayerCount: 2
Fore
SplineSet
215 -85 m 1,0,-1
 481 705 l 1,1,-1
 555 705 l 1,2,-1
 289 -85 l 1,3,-1
 215 -85 l 1,0,-1
291 420 m 128,-1,5
 291 333 291 333 257 278.5 c 128,-1,6
 223 224 223 224 153.5 224 c 128,-1,7
 84 224 84 224 49.5 279 c 128,-1,8
 15 334 15 334 15 420 c 128,-1,9
 15 506 15 506 49.5 561 c 128,-1,10
 84 616 84 616 153.5 616 c 128,-1,11
 223 616 223 616 257 561.5 c 128,-1,4
 291 507 291 507 291 420 c 128,-1,5
221 420 m 128,-1,13
 221 478 221 478 204 514.5 c 128,-1,14
 187 551 187 551 153 551 c 128,-1,15
 119 551 119 551 102 514.5 c 128,-1,16
 85 478 85 478 85 420 c 128,-1,17
 85 362 85 362 102 325.5 c 128,-1,18
 119 289 119 289 153 289 c 128,-1,19
 187 289 187 289 204 325.5 c 128,-1,12
 221 362 221 362 221 420 c 128,-1,13
479 200 m 128,-1,21
 479 287 479 287 513 341.5 c 128,-1,22
 547 396 547 396 616.5 396 c 128,-1,23
 686 396 686 396 720.5 341 c 128,-1,24
 755 286 755 286 755 200 c 128,-1,25
 755 114 755 114 720.5 59 c 128,-1,26
 686 4 686 4 616.5 4 c 128,-1,27
 547 4 547 4 513 58.5 c 128,-1,20
 479 113 479 113 479 200 c 128,-1,21
549 200 m 128,-1,29
 549 142 549 142 566 105.5 c 128,-1,30
 583 69 583 69 617 69 c 128,-1,31
 651 69 651 69 668 105.5 c 128,-1,32
 685 142 685 142 685 200 c 128,-1,33
 685 258 685 258 668 294.5 c 128,-1,34
 651 331 651 331 617 331 c 128,-1,35
 583 331 583 331 566 294.5 c 128,-1,28
 549 258 549 258 549 200 c 128,-1,29
EndSplineSet
EndChar

StartChar: ampersand
Encoding: 38 38 9
Width: 606
GlyphClass: 2
Flags: W
LayerCount: 2
Fore
SplineSet
606 378 m 1,0,-1
 606 310 l 1,1,-1
 493 310 l 1,2,3
 488 149 488 149 432 67.5 c 128,-1,4
 376 -14 376 -14 258.5 -14 c 128,-1,5
 141 -14 141 -14 88 43.5 c 128,-1,6
 35 101 35 101 35 188 c 0,7,8
 35 240 35 240 63.5 285 c 128,-1,9
 92 330 92 330 145 353 c 1,10,11
 67 400 67 400 67 485 c 128,-1,12
 67 570 67 570 118.5 617 c 128,-1,13
 170 664 170 664 259.5 664 c 128,-1,14
 349 664 349 664 417 618 c 1,15,-1
 383 548 l 1,16,17
 366 565 366 565 332.5 578.5 c 128,-1,18
 299 592 299 592 267 592 c 0,19,20
 209 592 209 592 178 564.5 c 128,-1,21
 147 537 147 537 147 491 c 0,22,23
 147 457 147 457 174 422 c 1,24,25
 190 403 190 403 225.5 390.5 c 128,-1,26
 261 378 261 378 312 378 c 2,27,-1
 606 378 l 1,0,-1
251 58 m 0,28,29
 417 58 417 58 417 310 c 1,30,-1
 251 310 l 2,31,32
 188 310 188 310 151.5 273.5 c 128,-1,33
 115 237 115 237 115 184.5 c 128,-1,34
 115 132 115 132 148.5 95 c 128,-1,35
 182 58 182 58 251 58 c 0,28,29
EndSplineSet
EndChar

StartChar: quotesingle
Encoding: 39 39 10
Width: 162
GlyphClass: 2
Flags: W
LayerCount: 2
Fore
SplineSet
50 457 m 1,0,-1
 40 680 l 1,1,-1
 122 680 l 1,2,-1
 112 457 l 1,3,-1
 50 457 l 1,0,-1
EndSplineSet
EndChar

StartChar: parenleft
Encoding: 40 40 11
Width: 246
GlyphClass: 2
Flags: W
LayerCount: 2
Fore
SplineSet
90.5 89 m 128,-1,1
 60 198 60 198 60 309.5 c 128,-1,2
 60 421 60 421 90.5 530.5 c 128,-1,3
 121 640 121 640 175 713 c 1,4,-1
 231 670 l 1,5,6
 189 611 189 611 163.5 503 c 128,-1,7
 138 395 138 395 138 310 c 128,-1,8
 138 225 138 225 163.5 117 c 128,-1,9
 189 9 189 9 231 -50 c 1,10,-1
 175 -93 l 1,11,0
 121 -20 121 -20 90.5 89 c 128,-1,1
EndSplineSet
EndChar

StartChar: parenright
Encoding: 41 41 12
Width: 246
GlyphClass: 2
Flags: W
LayerCount: 2
Fore
SplineSet
108 310 m 128,-1,1
 108 395 108 395 82.5 503 c 128,-1,2
 57 611 57 611 15 670 c 1,3,-1
 71 713 l 1,4,5
 125 640 125 640 155.5 530.5 c 128,-1,6
 186 421 186 421 186 309.5 c 128,-1,7
 186 198 186 198 155.5 89 c 128,-1,8
 125 -20 125 -20 71 -93 c 1,9,-1
 15 -50 l 1,10,11
 57 9 57 9 82.5 117 c 128,-1,0
 108 225 108 225 108 310 c 128,-1,1
EndSplineSet
EndChar

StartChar: asterisk
Encoding: 42 42 13
Width: 433
GlyphClass: 2
Flags: W
LayerCount: 2
Fore
SplineSet
283 486 m 1,0,-1
 257 563 l 1,1,-1
 388 590 l 1,2,-1
 403 540 l 1,3,-1
 283 486 l 1,4,-1
 349 370 l 1,5,-1
 306 340 l 1,6,-1
 217 438 l 1,7,-1
 283 486 l 1,0,-1
217 438 m 1,8,-1
 127 340 l 1,9,-1
 85 371 l 1,10,-1
 151 486 l 1,11,-1
 217 438 l 1,8,-1
151 486 m 1,12,-1
 30 541 l 1,13,-1
 46 590 l 1,14,-1
 176 563 l 1,15,-1
 151 486 l 1,12,-1
176 563 m 1,16,-1
 191 695 l 1,17,-1
 242 695 l 1,18,-1
 257 563 l 1,19,-1
 176 563 l 1,16,-1
EndSplineSet
EndChar

StartChar: plus
Encoding: 43 43 14
Width: 518
GlyphClass: 2
Flags: W
LayerCount: 2
Fore
SplineSet
47 275 m 1,0,-1
 47 347 l 1,1,-1
 223 347 l 1,2,-1
 223 523 l 1,3,-1
 295 523 l 1,4,-1
 295 347 l 1,5,-1
 471 347 l 1,6,-1
 471 275 l 1,7,-1
 295 275 l 1,8,-1
 295 99 l 1,9,-1
 223 99 l 1,10,-1
 223 275 l 1,11,-1
 47 275 l 1,0,-1
EndSplineSet
EndChar

StartChar: comma
Encoding: 44 44 15
Width: 210
GlyphClass: 2
Flags: W
LayerCount: 2
Fore
SplineSet
108 96 m 0,0,1
 145 96 145 96 160 73 c 1,2,-1
 66 -136 l 1,3,-1
 33 -126 l 1,4,-1
 49 41 l 2,5,6
 55 96 55 96 108 96 c 0,0,1
EndSplineSet
EndChar

StartChar: hyphen
Encoding: 45 45 16
Width: 408
GlyphClass: 2
Flags: W
LayerCount: 2
Fore
SplineSet
358 220 m 1,0,-1
 50 220 l 1,1,-1
 50 292 l 1,2,-1
 358 292 l 1,3,-1
 358 220 l 1,0,-1
EndSplineSet
EndChar

StartChar: period
Encoding: 46 46 17
Width: 210
GlyphClass: 2
Flags: W
LayerCount: 2
Fore
SplineSet
50 41 m 128,-1,1
 50 65 50 65 64 80.5 c 128,-1,2
 78 96 78 96 104.5 96 c 128,-1,3
 131 96 131 96 145.5 80.5 c 128,-1,4
 160 65 160 65 160 41 c 128,-1,5
 160 17 160 17 145.5 1.5 c 128,-1,6
 131 -14 131 -14 104.5 -14 c 128,-1,7
 78 -14 78 -14 64 1.5 c 128,-1,0
 50 17 50 17 50 41 c 128,-1,1
EndSplineSet
EndChar

StartChar: slash
Encoding: 47 47 18
Width: 312
GlyphClass: 2
Flags: W
LayerCount: 2
Fore
SplineSet
-30 -92 m 1,0,-1
 269 772 l 1,1,-1
 342 772 l 1,2,-1
 42 -92 l 1,3,-1
 -30 -92 l 1,0,-1
EndSplineSet
EndChar

StartChar: zero
Encoding: 48 48 19
Width: 518
GlyphClass: 2
Flags: W
LayerCount: 2
Fore
SplineSet
29 310 m 128,-1,1
 29 455 29 455 86 545.5 c 128,-1,2
 143 636 143 636 258 636 c 128,-1,3
 373 636 373 636 431 545 c 128,-1,4
 489 454 489 454 489 310 c 128,-1,5
 489 166 489 166 431 75 c 128,-1,6
 373 -16 373 -16 258 -16 c 128,-1,7
 143 -16 143 -16 86 74.5 c 128,-1,0
 29 165 29 165 29 310 c 128,-1,1
107 310 m 128,-1,9
 107 198 107 198 144.5 127.5 c 128,-1,10
 182 57 182 57 258 57 c 128,-1,11
 334 57 334 57 372.5 128 c 128,-1,12
 411 199 411 199 411 310 c 128,-1,13
 411 421 411 421 372.5 492 c 128,-1,14
 334 563 334 563 258 563 c 128,-1,15
 182 563 182 563 144.5 492.5 c 128,-1,8
 107 422 107 422 107 310 c 128,-1,9
EndSplineSet
EndChar

StartChar: one
Encoding: 49 49 20
Width: 518
GlyphClass: 2
Flags: W
LayerCount: 2
Fore
SplineSet
112 0 m 1,0,-1
 112 72 l 1,1,-1
 241 72 l 1,2,-1
 240 620 l 1,3,-1
 320 620 l 1,4,-1
 320 72 l 1,5,-1
 432 72 l 1,6,-1
 432 0 l 1,7,-1
 112 0 l 1,0,-1
103 500 m 1,8,-1
 85 570 l 1,9,-1
 240 620 l 1,10,-1
 240 540 l 1,11,-1
 103 500 l 1,8,-1
EndSplineSet
EndChar

StartChar: two
Encoding: 50 50 21
Width: 518
GlyphClass: 2
Flags: W
LayerCount: 2
Fore
SplineSet
334.5 397 m 128,-1,1
 352 431 352 431 352 470.5 c 128,-1,2
 352 510 352 510 320.5 537.5 c 128,-1,3
 289 565 289 565 227 565 c 0,4,5
 193 565 193 565 161 556 c 0,6,7
 115 542 115 542 97 527 c 1,8,-1
 65 589 l 1,9,10
 137 636 137 636 232 636 c 128,-1,11
 327 636 327 636 379.5 588 c 128,-1,12
 432 540 432 540 432 468 c 0,13,14
 432 381 432 381 337 271 c 1,15,-1
 161 72 l 1,16,-1
 438 72 l 1,17,-1
 438 0 l 1,18,-1
 52 0 l 1,19,-1
 52 63 l 1,20,-1
 272 312 l 2,21,0
 317 363 317 363 334.5 397 c 128,-1,1
EndSplineSet
EndChar

StartChar: three
Encoding: 51 51 22
Width: 518
GlyphClass: 2
Flags: W
LayerCount: 2
Fore
SplineSet
79 87 m 1,0,1
 128 55 128 55 207.5 55 c 128,-1,2
 287 55 287 55 326 90 c 128,-1,3
 365 125 365 125 365 171.5 c 128,-1,4
 365 218 365 218 333 249 c 128,-1,5
 301 280 301 280 235 280 c 2,6,-1
 140 280 l 1,7,-1
 140 349 l 1,8,-1
 176 349 l 2,9,10
 309 349 309 349 343 430 c 0,11,12
 351 449 351 449 351 468 c 0,13,14
 351 510 351 510 319.5 537.5 c 128,-1,15
 288 565 288 565 226 565 c 0,16,17
 192 565 192 565 160 556 c 0,18,19
 114 542 114 542 96 527 c 1,20,-1
 64 589 l 1,21,22
 136 636 136 636 231 636 c 128,-1,23
 326 636 326 636 376.5 588 c 128,-1,24
 427 540 427 540 427 465 c 0,25,26
 427 374 427 374 346 326 c 1,27,28
 441 283 441 283 441 176 c 0,29,30
 441 97 441 97 381.5 40.5 c 128,-1,31
 322 -16 322 -16 215.5 -16 c 128,-1,32
 109 -16 109 -16 46 27 c 1,33,-1
 79 87 l 1,0,1
EndSplineSet
EndChar

StartChar: four
Encoding: 52 52 23
Width: 518
GlyphClass: 2
Flags: W
LayerCount: 2
Fore
SplineSet
332 0 m 1,0,-1
 332 142 l 1,1,-1
 33 142 l 1,2,-1
 33 183 l 1,3,-1
 211 620 l 1,4,-1
 296 620 l 1,5,-1
 130 214 l 1,6,-1
 332 214 l 1,7,-1
 332 450 l 1,8,-1
 410 450 l 1,9,-1
 410 214 l 1,10,-1
 463 214 l 1,11,-1
 463 142 l 1,12,-1
 410 142 l 1,13,-1
 410 0 l 1,14,-1
 332 0 l 1,0,-1
EndSplineSet
EndChar

StartChar: five
Encoding: 53 53 24
Width: 518
GlyphClass: 2
Flags: W
LayerCount: 2
Fore
SplineSet
421 620 m 1,0,-1
 421 548 l 1,1,-1
 181 548 l 1,2,-1
 173 361 l 1,3,-1
 243 361 l 2,4,5
 348 361 348 361 398.5 310 c 128,-1,6
 449 259 449 259 449 178 c 128,-1,7
 449 97 449 97 389.5 40.5 c 128,-1,8
 330 -16 330 -16 223.5 -16 c 128,-1,9
 117 -16 117 -16 54 27 c 1,10,-1
 87 87 l 1,11,12
 136 55 136 55 215.5 55 c 128,-1,13
 295 55 295 55 334 90 c 128,-1,14
 373 125 373 125 373 174 c 128,-1,15
 373 223 373 223 341 256.5 c 128,-1,16
 309 290 309 290 243 290 c 2,17,-1
 96 290 l 1,18,-1
 109 620 l 1,19,-1
 421 620 l 1,0,-1
EndSplineSet
EndChar

StartChar: six
Encoding: 54 54 25
Width: 518
GlyphClass: 2
Flags: W
LayerCount: 2
Fore
SplineSet
428 520 m 1,0,1
 386 565 386 565 310 565 c 128,-1,2
 234 565 234 565 186.5 497.5 c 128,-1,3
 139 430 139 430 130 317 c 1,4,5
 203 378 203 378 283 378 c 0,6,7
 339 378 339 378 380.5 360 c 128,-1,8
 422 342 422 342 442 312 c 1,9,10
 482 256 482 256 482 192 c 0,11,12
 482 105 482 105 429 44.5 c 128,-1,13
 376 -16 376 -16 268.5 -16 c 128,-1,14
 161 -16 161 -16 105.5 61.5 c 128,-1,15
 50 139 50 139 50 256 c 0,16,17
 50 426 50 426 119.5 531 c 128,-1,18
 189 636 189 636 310 636 c 0,19,20
 408 636 408 636 463 581 c 1,21,-1
 428 520 l 1,0,1
281 308 m 0,22,23
 192 308 192 308 129 229 c 1,24,25
 142 55 142 55 271 55 c 0,26,27
 335 55 335 55 369.5 93 c 128,-1,28
 404 131 404 131 404 184 c 0,29,30
 404 213 404 213 395.5 238.5 c 128,-1,31
 387 264 387 264 357.5 286 c 128,-1,32
 328 308 328 308 281 308 c 0,22,23
EndSplineSet
EndChar

StartChar: seven
Encoding: 55 55 26
Width: 518
GlyphClass: 2
Flags: W
LayerCount: 2
Fore
SplineSet
466 620 m 1,0,-1
 466 579 l 1,1,-1
 224 0 l 1,2,-1
 137 0 l 1,3,-1
 368 548 l 1,4,-1
 58 548 l 1,5,-1
 58 620 l 1,6,-1
 466 620 l 1,0,-1
EndSplineSet
EndChar

StartChar: eight
Encoding: 56 56 27
Width: 518
GlyphClass: 2
Flags: W
LayerCount: 2
Fore
SplineSet
43 163 m 0,0,1
 43 277 43 277 153 329 c 1,2,3
 66 378 66 378 66 464 c 0,4,5
 66 538 66 538 116 587 c 128,-1,6
 166 636 166 636 259 636 c 128,-1,7
 352 636 352 636 402 587.5 c 128,-1,8
 452 539 452 539 452 459 c 128,-1,9
 452 379 452 379 367 327 c 1,10,11
 475 279 475 279 475 163 c 0,12,13
 475 90 475 90 417.5 37 c 128,-1,14
 360 -16 360 -16 259 -16 c 128,-1,15
 158 -16 158 -16 100.5 37 c 128,-1,16
 43 90 43 90 43 163 c 0,0,1
119 163 m 0,17,18
 119 118 119 118 156 86.5 c 128,-1,19
 193 55 193 55 259 55 c 128,-1,20
 325 55 325 55 362 86.5 c 128,-1,21
 399 118 399 118 399 166.5 c 128,-1,22
 399 215 399 215 365 243 c 128,-1,23
 331 271 331 271 256 290 c 0,24,25
 233 295 233 295 219 300 c 1,26,27
 119 247 119 247 119 163 c 0,17,18
142 466 m 128,-1,29
 142 424 142 424 175 398 c 128,-1,30
 208 372 208 372 291 351 c 1,31,32
 376 396 376 396 376 469 c 0,33,34
 376 510 376 510 346 537.5 c 128,-1,35
 316 565 316 565 259.5 565 c 128,-1,36
 203 565 203 565 172.5 536.5 c 128,-1,28
 142 508 142 508 142 466 c 128,-1,29
EndSplineSet
EndChar

StartChar: nine
Encoding: 57 57 28
Width: 518
GlyphClass: 2
Flags: W
LayerCount: 2
Fore
SplineSet
218 55 m 0,0,1
 284 55 284 55 331.5 116.5 c 128,-1,2
 379 178 379 178 388 295 c 1,3,4
 312 235 312 235 226 235 c 0,5,6
 173 235 173 235 134 254 c 128,-1,7
 95 273 95 273 74 303 c 0,8,9
 36 359 36 359 36 426 c 0,10,11
 36 513 36 513 90 574.5 c 128,-1,12
 144 636 144 636 248 636 c 0,13,14
 309 636 309 636 353.5 611.5 c 128,-1,15
 398 587 398 587 422 544 c 0,16,17
 468 463 468 463 468 344 c 0,18,19
 468 169 468 169 396 76.5 c 128,-1,20
 324 -16 324 -16 214.5 -16 c 128,-1,21
 105 -16 105 -16 40 39 c 1,22,-1
 81 100 l 1,23,24
 128 55 128 55 218 55 c 0,0,1
226 305 m 0,25,26
 267 305 267 305 311 324.5 c 128,-1,27
 355 344 355 344 388 384 c 1,28,29
 382 464 382 464 348.5 514.5 c 128,-1,30
 315 565 315 565 249 565 c 128,-1,31
 183 565 183 565 148.5 524.5 c 128,-1,32
 114 484 114 484 114 432.5 c 128,-1,33
 114 381 114 381 140 343 c 128,-1,34
 166 305 166 305 226 305 c 0,25,26
EndSplineSet
EndChar

StartChar: colon
Encoding: 58 58 29
Width: 260
GlyphClass: 2
Flags: W
LayerCount: 2
Fore
SplineSet
100 41 m 128,-1,1
 100 65 100 65 114 80.5 c 128,-1,2
 128 96 128 96 154.5 96 c 128,-1,3
 181 96 181 96 195.5 80.5 c 128,-1,4
 210 65 210 65 210 41 c 128,-1,5
 210 17 210 17 195.5 1.5 c 128,-1,6
 181 -14 181 -14 154.5 -14 c 128,-1,7
 128 -14 128 -14 114 1.5 c 128,-1,0
 100 17 100 17 100 41 c 128,-1,1
100 401 m 128,-1,9
 100 425 100 425 114 440.5 c 128,-1,10
 128 456 128 456 154.5 456 c 128,-1,11
 181 456 181 456 195.5 440.5 c 128,-1,12
 210 425 210 425 210 401 c 128,-1,13
 210 377 210 377 195.5 361.5 c 128,-1,14
 181 346 181 346 154.5 346 c 128,-1,15
 128 346 128 346 114 361.5 c 128,-1,8
 100 377 100 377 100 401 c 128,-1,9
EndSplineSet
EndChar

StartChar: semicolon
Encoding: 59 59 30
Width: 260
GlyphClass: 2
Flags: W
LayerCount: 2
Fore
SplineSet
158 96 m 0,0,1
 195 96 195 96 210 73 c 1,2,-1
 116 -136 l 1,3,-1
 83 -126 l 1,4,-1
 99 41 l 2,5,6
 105 96 105 96 158 96 c 0,0,1
100 401 m 128,-1,8
 100 425 100 425 114 440.5 c 128,-1,9
 128 456 128 456 154.5 456 c 128,-1,10
 181 456 181 456 195.5 440.5 c 128,-1,11
 210 425 210 425 210 401 c 128,-1,12
 210 377 210 377 195.5 361.5 c 128,-1,13
 181 346 181 346 154.5 346 c 128,-1,14
 128 346 128 346 114 361.5 c 128,-1,7
 100 377 100 377 100 401 c 128,-1,8
EndSplineSet
EndChar

StartChar: less
Encoding: 60 60 31
Width: 518
GlyphClass: 2
Flags: W
LayerCount: 2
Fore
SplineSet
70 286 m 1,0,-1
 70 335 l 1,1,-1
 406 534 l 1,2,-1
 443 473 l 1,3,-1
 169 311 l 1,4,-1
 443 149 l 1,5,-1
 406 88 l 1,6,-1
 70 286 l 1,0,-1
EndSplineSet
EndChar

StartChar: equal
Encoding: 61 61 32
Width: 518
GlyphClass: 2
Flags: W
LayerCount: 2
Fore
SplineSet
471 437 m 1,0,-1
 471 365 l 1,1,-1
 47 365 l 1,2,-1
 47 437 l 1,3,-1
 471 437 l 1,0,-1
47 185 m 1,4,-1
 47 257 l 1,5,-1
 471 257 l 1,6,-1
 471 185 l 1,7,-1
 47 185 l 1,4,-1
EndSplineSet
EndChar

StartChar: greater
Encoding: 62 62 33
Width: 518
GlyphClass: 2
Flags: W
LayerCount: 2
Fore
SplineSet
448 335 m 1,0,-1
 448 286 l 1,1,-1
 112 88 l 1,2,-1
 75 149 l 1,3,-1
 349 311 l 1,4,-1
 75 473 l 1,5,-1
 112 534 l 1,6,-1
 448 335 l 1,0,-1
EndSplineSet
EndChar

StartChar: question
Encoding: 63 63 34
Width: 354
GlyphClass: 2
Flags: W
LayerCount: 2
Fore
SplineSet
175 180 m 1,0,-1
 105 180 l 1,1,-1
 105 247 l 2,2,3
 105 295 105 295 123 332.5 c 128,-1,4
 141 370 141 370 159 386 c 128,-1,5
 177 402 177 402 206 423.5 c 128,-1,6
 235 445 235 445 245.5 454.5 c 128,-1,7
 256 464 256 464 267 483 c 128,-1,8
 278 502 278 502 278 525 c 0,9,10
 278 564 278 564 248 584 c 128,-1,11
 218 604 218 604 172 604 c 0,12,13
 92 604 92 604 42 552 c 1,14,-1
 0 608 l 1,15,16
 71 674 71 674 175 674 c 0,17,18
 251 674 251 674 302.5 635.5 c 128,-1,19
 354 597 354 597 354 525 c 0,20,21
 354 487 354 487 337.5 456 c 128,-1,22
 321 425 321 425 304.5 410 c 128,-1,23
 288 395 288 395 259.5 375 c 128,-1,24
 231 355 231 355 216.5 342 c 128,-1,25
 202 329 202 329 188.5 303 c 128,-1,26
 175 277 175 277 175 247 c 2,27,-1
 175 180 l 1,0,-1
85 41 m 128,-1,29
 85 65 85 65 99 80.5 c 128,-1,30
 113 96 113 96 139.5 96 c 128,-1,31
 166 96 166 96 180.5 80.5 c 128,-1,32
 195 65 195 65 195 41 c 128,-1,33
 195 17 195 17 180.5 1.5 c 128,-1,34
 166 -14 166 -14 139.5 -14 c 128,-1,35
 113 -14 113 -14 99 1.5 c 128,-1,28
 85 17 85 17 85 41 c 128,-1,29
EndSplineSet
EndChar

StartChar: at
Encoding: 64 64 35
Width: 806
GlyphClass: 2
Flags: W
LayerCount: 2
Fore
SplineSet
323.5 149.5 m 128,-1,1
 348 118 348 118 386.5 118 c 128,-1,2
 425 118 425 118 452 159 c 128,-1,3
 479 200 479 200 479 275 c 2,4,-1
 479 371 l 1,5,6
 445 385 445 385 412 385 c 0,7,8
 363 385 363 385 331 345.5 c 128,-1,9
 299 306 299 306 299 243.5 c 128,-1,0
 299 181 299 181 323.5 149.5 c 128,-1,1
413 -93 m 0,10,11
 247 -93 247 -93 158.5 4.5 c 128,-1,12
 70 102 70 102 70 250 c 128,-1,13
 70 398 70 398 158.5 495.5 c 128,-1,14
 247 593 247 593 405.5 593 c 128,-1,15
 564 593 564 593 650 494.5 c 128,-1,16
 736 396 736 396 736 250 c 0,17,18
 736 167 736 167 693 112.5 c 128,-1,19
 650 58 650 58 576 58 c 0,20,21
 541 58 541 58 514.5 80 c 128,-1,22
 488 102 488 102 483 132 c 1,23,-1
 477 132 l 1,24,25
 463 96 463 96 434.5 77 c 128,-1,26
 406 58 406 58 376 58 c 0,27,28
 312 58 312 58 270.5 106 c 128,-1,29
 229 154 229 154 229 243.5 c 128,-1,30
 229 333 229 333 280 388.5 c 128,-1,31
 331 444 331 444 411.5 444 c 128,-1,32
 492 444 492 444 548 409 c 1,33,-1
 548 169 l 2,34,35
 548 119 548 119 584 119 c 0,36,37
 626 119 626 119 647 158.5 c 128,-1,38
 668 198 668 198 668 250 c 0,39,40
 668 369 668 369 599.5 450 c 128,-1,41
 531 531 531 531 405.5 531 c 128,-1,42
 280 531 280 531 209 451 c 128,-1,43
 138 371 138 371 138 250 c 128,-1,44
 138 129 138 129 209 49 c 128,-1,45
 280 -31 280 -31 413 -31 c 0,46,47
 511 -31 511 -31 578 15 c 1,48,-1
 611 -35 l 1,49,50
 526 -93 526 -93 413 -93 c 0,10,11
EndSplineSet
EndChar

StartChar: A
Encoding: 65 65 36
Width: 556
GlyphClass: 2
Flags: W
LayerCount: 2
Fore
SplineSet
327 680 m 1,0,-1
 556 0 l 1,1,-1
 473 0 l 1,2,-1
 407 200 l 1,3,-1
 149 200 l 1,4,-1
 83 0 l 1,5,-1
 0 0 l 1,6,-1
 229 680 l 1,7,-1
 327 680 l 1,0,-1
278 592 m 1,8,-1
 172 272 l 1,9,-1
 383 272 l 1,10,-1
 278 592 l 1,8,-1
EndSplineSet
EndChar

StartChar: B
Encoding: 66 66 37
Width: 564
GlyphClass: 2
Flags: W
LayerCount: 2
Fore
SplineSet
90 0 m 1,0,-1
 90 680 l 1,1,-1
 340 680 l 2,2,3
 408 680 408 680 456 632 c 128,-1,4
 504 584 504 584 504 516 c 0,5,6
 504 469 504 469 480 430.5 c 128,-1,7
 456 392 456 392 416 371 c 1,8,9
 470 350 470 350 502 306 c 128,-1,10
 534 262 534 262 534 203 c 0,11,12
 534 118 534 118 475 59 c 128,-1,13
 416 0 416 0 331 0 c 2,14,-1
 90 0 l 1,0,-1
329 334 m 2,15,-1
 170 334 l 1,16,-1
 170 72 l 1,17,-1
 329 72 l 2,18,19
 382 72 382 72 420 111 c 128,-1,20
 458 150 458 150 458 203.5 c 128,-1,21
 458 257 458 257 420 295.5 c 128,-1,22
 382 334 382 334 329 334 c 2,15,-1
325 608 m 2,23,-1
 170 608 l 1,24,-1
 170 406 l 1,25,-1
 325 406 l 2,26,27
 368 406 368 406 398 435 c 128,-1,28
 428 464 428 464 428 507 c 128,-1,29
 428 550 428 550 398 579 c 128,-1,30
 368 608 368 608 325 608 c 2,23,-1
EndSplineSet
EndChar

StartChar: C
Encoding: 67 67 38
Width: 534
GlyphClass: 2
Flags: W
LayerCount: 2
Fore
SplineSet
336 -16 m 0,0,1
 193 -16 193 -16 121.5 83 c 128,-1,2
 50 182 50 182 50 340 c 128,-1,3
 50 498 50 498 121.5 597 c 128,-1,4
 193 696 193 696 336 696 c 0,5,6
 430 696 430 696 507 649 c 1,7,-1
 479 582 l 1,8,9
 413 623 413 623 336 623 c 0,10,11
 233 623 233 623 181.5 544.5 c 128,-1,12
 130 466 130 466 130 340 c 128,-1,13
 130 214 130 214 181.5 135.5 c 128,-1,14
 233 57 233 57 336 57 c 0,15,16
 421 57 421 57 489 99 c 1,17,-1
 524 37 l 1,18,19
 438 -16 438 -16 336 -16 c 0,0,1
EndSplineSet
EndChar

StartChar: D
Encoding: 68 68 39
Width: 651
GlyphClass: 2
Flags: W
LayerCount: 2
Fore
SplineSet
90 0 m 1,0,-1
 90 680 l 1,1,-1
 333 680 l 2,2,3
 477 680 477 680 549 585 c 128,-1,4
 621 490 621 490 621 340 c 128,-1,5
 621 190 621 190 549 95 c 128,-1,6
 477 0 477 0 333 0 c 2,7,-1
 90 0 l 1,0,-1
333 608 m 2,8,-1
 170 608 l 1,9,-1
 170 72 l 1,10,-1
 333 72 l 2,11,12
 437 72 437 72 489 146.5 c 128,-1,13
 541 221 541 221 541 340 c 128,-1,14
 541 459 541 459 489 533.5 c 128,-1,15
 437 608 437 608 333 608 c 2,8,-1
EndSplineSet
EndChar

StartChar: E
Encoding: 69 69 40
Width: 510
GlyphClass: 2
Flags: W
LayerCount: 2
Fore
SplineSet
78 0 m 1,0,-1
 78 680 l 1,1,-1
 448 680 l 1,2,-1
 448 608 l 1,3,-1
 158 608 l 1,4,-1
 158 376 l 1,5,-1
 395 376 l 1,6,-1
 395 304 l 1,7,-1
 158 304 l 1,8,-1
 158 72 l 1,9,-1
 468 72 l 1,10,-1
 468 0 l 1,11,-1
 78 0 l 1,0,-1
EndSplineSet
EndChar

StartChar: F
Encoding: 70 70 41
Width: 460
GlyphClass: 2
Flags: W
LayerCount: 2
Fore
SplineSet
90 0 m 1,0,-1
 90 680 l 1,1,-1
 450 680 l 1,2,-1
 450 608 l 1,3,-1
 170 608 l 1,4,-1
 170 376 l 1,5,-1
 397 376 l 1,6,-1
 397 304 l 1,7,-1
 170 304 l 1,8,-1
 170 0 l 1,9,-1
 90 0 l 1,0,-1
EndSplineSet
EndChar

StartChar: G
Encoding: 71 71 42
Width: 645
GlyphClass: 2
Flags: W
LayerCount: 2
Fore
SplineSet
339 -16 m 0,0,1
 241 -16 241 -16 174.5 33 c 128,-1,2
 108 82 108 82 79 160 c 128,-1,3
 50 238 50 238 50 340 c 128,-1,4
 50 442 50 442 79 520 c 128,-1,5
 108 598 108 598 174.5 647 c 128,-1,6
 241 696 241 696 349.5 696 c 128,-1,7
 458 696 458 696 542 650 c 1,8,-1
 514 582 l 1,9,10
 434 623 434 623 333.5 623 c 128,-1,11
 233 623 233 623 181.5 544.5 c 128,-1,12
 130 466 130 466 130 339.5 c 128,-1,13
 130 213 130 213 181 135 c 128,-1,14
 232 57 232 57 331.5 57 c 128,-1,15
 431 57 431 57 494 92 c 1,16,-1
 494 304 l 1,17,-1
 341 304 l 1,18,-1
 341 376 l 1,19,-1
 570 376 l 1,20,-1
 570 53 l 1,21,22
 460 -16 460 -16 339 -16 c 0,0,1
EndSplineSet
EndChar

StartChar: H
Encoding: 72 72 43
Width: 664
GlyphClass: 2
Flags: W
LayerCount: 2
Fore
SplineSet
90 0 m 1,0,-1
 90 680 l 1,1,-1
 170 680 l 1,2,-1
 170 377 l 1,3,-1
 494 377 l 1,4,-1
 494 680 l 1,5,-1
 574 680 l 1,6,-1
 574 0 l 1,7,-1
 494 0 l 1,8,-1
 494 303 l 1,9,-1
 170 303 l 1,10,-1
 170 0 l 1,11,-1
 90 0 l 1,0,-1
EndSplineSet
EndChar

StartChar: I
Encoding: 73 73 44
Width: 260
GlyphClass: 2
Flags: W
LayerCount: 2
Fore
SplineSet
90 0 m 1,0,-1
 90 680 l 1,1,-1
 170 680 l 1,2,-1
 170 0 l 1,3,-1
 90 0 l 1,0,-1
EndSplineSet
EndChar

StartChar: J
Encoding: 74 74 45
Width: 427
GlyphClass: 2
Flags: W
LayerCount: 2
Fore
SplineSet
171 56 m 0,0,1
 272 56 272 56 272 192 c 2,2,-1
 272 680 l 1,3,-1
 352 680 l 1,4,-1
 352 192 l 2,5,6
 352 93 352 93 304.5 38.5 c 128,-1,7
 257 -16 257 -16 182 -16 c 0,8,9
 73 -16 73 -16 0 57 c 1,10,-1
 44 113 l 1,11,12
 104 56 104 56 171 56 c 0,0,1
EndSplineSet
EndChar

StartChar: K
Encoding: 75 75 46
Width: 551
GlyphClass: 2
Flags: W
LayerCount: 2
Fore
SplineSet
90 0 m 1,0,-1
 90 680 l 1,1,-1
 170 680 l 1,2,-1
 170 361 l 1,3,-1
 234 361 l 1,4,-1
 437 680 l 1,5,-1
 526 680 l 1,6,-1
 322 360 l 1,7,8
 372 356 372 356 397 331 c 128,-1,9
 422 306 422 306 441 260 c 1,10,-1
 536 8 l 1,11,-1
 460 -16 l 1,12,-1
 361 246 l 1,13,14
 349 282 349 282 330 288 c 0,15,16
 321 291 321 291 308 291 c 2,17,-1
 170 291 l 1,18,-1
 170 0 l 1,19,-1
 90 0 l 1,0,-1
EndSplineSet
EndChar

StartChar: L
Encoding: 76 76 47
Width: 447
GlyphClass: 2
Flags: W
LayerCount: 2
Fore
SplineSet
170 72 m 1,0,-1
 447 72 l 1,1,-1
 447 0 l 1,2,-1
 90 0 l 1,3,-1
 90 680 l 1,4,-1
 170 680 l 1,5,-1
 170 72 l 1,0,-1
EndSplineSet
EndChar

StartChar: M
Encoding: 77 77 48
Width: 815
GlyphClass: 2
Flags: W
LayerCount: 2
Fore
SplineSet
80 0 m 1,0,-1
 105 680 l 1,1,-1
 198 680 l 1,2,-1
 407 201 l 1,3,-1
 617 680 l 1,4,-1
 710 680 l 1,5,-1
 735 0 l 1,6,-1
 655 0 l 1,7,-1
 635 532 l 1,8,-1
 449 106 l 1,9,-1
 366 106 l 1,10,-1
 179 532 l 1,11,-1
 160 0 l 1,12,-1
 80 0 l 1,0,-1
EndSplineSet
EndChar

StartChar: N
Encoding: 78 78 49
Width: 680
GlyphClass: 2
Flags: W
LayerCount: 2
Fore
SplineSet
90 0 m 1,0,-1
 90 680 l 1,1,-1
 183 680 l 1,2,-1
 510 127 l 1,3,-1
 510 680 l 1,4,-1
 590 680 l 1,5,-1
 590 0 l 1,6,-1
 497 0 l 1,7,-1
 170 553 l 1,8,-1
 170 0 l 1,9,-1
 90 0 l 1,0,-1
EndSplineSet
EndChar

StartChar: O
Encoding: 79 79 50
Width: 674
GlyphClass: 2
Flags: W
LayerCount: 2
Fore
SplineSet
50 340 m 128,-1,1
 50 498 50 498 121.5 597 c 128,-1,2
 193 696 193 696 336 696 c 0,3,4
 433 696 433 696 499.5 647 c 128,-1,5
 566 598 566 598 595 520 c 128,-1,6
 624 442 624 442 624 340 c 128,-1,7
 624 238 624 238 595 160 c 128,-1,8
 566 82 566 82 499.5 33 c 128,-1,9
 433 -16 433 -16 336 -16 c 0,10,11
 193 -16 193 -16 121.5 83 c 128,-1,0
 50 182 50 182 50 340 c 128,-1,1
130 340 m 128,-1,13
 130 214 130 214 181.5 135.5 c 128,-1,14
 233 57 233 57 336.5 57 c 128,-1,15
 440 57 440 57 492 136 c 128,-1,16
 544 215 544 215 544 340 c 128,-1,17
 544 465 544 465 492 544 c 128,-1,18
 440 623 440 623 336.5 623 c 128,-1,19
 233 623 233 623 181.5 544.5 c 128,-1,12
 130 466 130 466 130 340 c 128,-1,13
EndSplineSet
EndChar

StartChar: P
Encoding: 80 80 51
Width: 509
GlyphClass: 2
Flags: W
LayerCount: 2
Fore
SplineSet
90 0 m 1,0,-1
 90 680 l 1,1,-1
 301 680 l 2,2,3
 386 680 386 680 445 621 c 128,-1,4
 504 562 504 562 504 477 c 128,-1,5
 504 392 504 392 445 333 c 128,-1,6
 386 274 386 274 301 274 c 2,7,-1
 170 274 l 1,8,-1
 170 0 l 1,9,-1
 90 0 l 1,0,-1
298 607 m 2,10,-1
 170 607 l 1,11,-1
 170 347 l 1,12,-1
 298 347 l 2,13,14
 350 347 350 347 387.5 385.5 c 128,-1,15
 425 424 425 424 425 477 c 128,-1,16
 425 530 425 530 387.5 568.5 c 128,-1,17
 350 607 350 607 298 607 c 2,10,-1
EndSplineSet
EndChar

StartChar: Q
Encoding: 81 81 52
Width: 674
GlyphClass: 2
Flags: W
LayerCount: 2
Fore
SplineSet
546 -143 m 1,0,1
 484 -183 484 -183 426.5 -183 c 128,-1,2
 369 -183 369 -183 333.5 -144 c 128,-1,3
 298 -105 298 -105 298 -20 c 2,4,-1
 298 -14 l 1,5,6
 173 0 173 0 111.5 96.5 c 128,-1,7
 50 193 50 193 50 345.5 c 128,-1,8
 50 498 50 498 121.5 597 c 128,-1,9
 193 696 193 696 336 696 c 0,10,11
 433 696 433 696 500 647 c 0,12,13
 624 555 624 555 624 340 c 0,14,15
 624 194 624 194 561.5 97 c 128,-1,16
 499 0 499 0 374 -14 c 1,17,-1
 374 -24 l 2,18,19
 374 -112 374 -112 435 -112 c 0,20,21
 464 -112 464 -112 516 -89 c 1,22,-1
 546 -143 l 1,0,1
130 340 m 128,-1,24
 130 214 130 214 181.5 135.5 c 128,-1,25
 233 57 233 57 336.5 57 c 128,-1,26
 440 57 440 57 492 136 c 128,-1,27
 544 215 544 215 544 340 c 128,-1,28
 544 465 544 465 492 544 c 128,-1,29
 440 623 440 623 336.5 623 c 128,-1,30
 233 623 233 623 181.5 544.5 c 128,-1,23
 130 466 130 466 130 340 c 128,-1,24
EndSplineSet
EndChar

StartChar: R
Encoding: 82 82 53
Width: 579
GlyphClass: 2
Flags: W
LayerCount: 2
Fore
SplineSet
90 0 m 1,0,-1
 90 680 l 1,1,-1
 323 680 l 2,2,3
 404 680 404 680 461 623.5 c 128,-1,4
 518 567 518 567 518 485 c 0,5,6
 518 427 518 427 487.5 380 c 128,-1,7
 457 333 457 333 406 309 c 1,8,9
 436 296 436 296 450 260 c 2,10,-1
 545 8 l 1,11,-1
 469 -16 l 1,12,-1
 370 246 l 2,13,14
 356 282 356 282 342 287 c 0,15,16
 334 290 334 290 322 291 c 1,17,-1
 170 291 l 1,18,-1
 170 0 l 1,19,-1
 90 0 l 1,0,-1
319 607 m 2,20,-1
 170 607 l 1,21,-1
 170 361 l 1,22,-1
 319 361 l 2,23,24
 368 361 368 361 403 398 c 128,-1,25
 438 435 438 435 438 485 c 128,-1,26
 438 535 438 535 403 571 c 128,-1,27
 368 607 368 607 319 607 c 2,20,-1
EndSplineSet
EndChar

StartChar: S
Encoding: 83 83 54
Width: 511
GlyphClass: 2
Flags: W
LayerCount: 2
Fore
SplineSet
154.5 81 m 128,-1,1
 203 59 203 59 260.5 59 c 128,-1,2
 318 59 318 59 359.5 89 c 128,-1,3
 401 119 401 119 401 173.5 c 128,-1,4
 401 228 401 228 365.5 259 c 128,-1,5
 330 290 330 290 279.5 306 c 128,-1,6
 229 322 229 322 178.5 340 c 128,-1,7
 128 358 128 358 92.5 399.5 c 128,-1,8
 57 441 57 441 57 509 c 0,9,10
 57 602 57 602 117.5 649 c 128,-1,11
 178 696 178 696 260 696 c 0,12,13
 373 696 373 696 447 649 c 1,14,-1
 407 585 l 1,15,16
 350 621 350 621 259 621 c 0,17,18
 211 621 211 621 174 594 c 128,-1,19
 137 567 137 567 137 514 c 0,20,21
 137 447 137 447 206 416 c 0,22,23
 236 402 236 402 272.5 391 c 128,-1,24
 309 380 309 380 345.5 365 c 128,-1,25
 382 350 382 350 412 329 c 0,26,27
 481 282 481 282 481 182.5 c 128,-1,28
 481 83 481 83 417.5 33.5 c 128,-1,29
 354 -16 354 -16 257 -16 c 0,30,31
 128 -16 128 -16 30 76 c 1,32,-1
 76 136 l 1,33,0
 106 103 106 103 154.5 81 c 128,-1,1
EndSplineSet
EndChar

StartChar: T
Encoding: 84 84 55
Width: 470
GlyphClass: 2
Flags: W
LayerCount: 2
Fore
SplineSet
195 0 m 1,0,-1
 195 608 l 1,1,-1
 5 608 l 1,2,-1
 5 680 l 1,3,-1
 465 680 l 1,4,-1
 465 608 l 1,5,-1
 275 608 l 1,6,-1
 275 0 l 1,7,-1
 195 0 l 1,0,-1
EndSplineSet
PairPos2: "'kern' Horizontal Kerning in Latin lookup 0 per glyph data 1" ellipsis dx=0 dy=0 dh=-55 dv=0 dx=0 dy=0 dh=0 dv=0
PairPos2: "'kern' Horizontal Kerning in Latin lookup 0 per glyph data 1" quotedblbase dx=0 dy=0 dh=-55 dv=0 dx=0 dy=0 dh=0 dv=0
PairPos2: "'kern' Horizontal Kerning in Latin lookup 0 per glyph data 1" quotesinglbase dx=0 dy=0 dh=-55 dv=0 dx=0 dy=0 dh=0 dv=0
PairPos2: "'kern' Horizontal Kerning in Latin lookup 0 per glyph data 1" scaron dx=0 dy=0 dh=-55 dv=0 dx=0 dy=0 dh=0 dv=0
PairPos2: "'kern' Horizontal Kerning in Latin lookup 0 per glyph data 1" oe dx=0 dy=0 dh=-75 dv=0 dx=0 dy=0 dh=0 dv=0
PairPos2: "'kern' Horizontal Kerning in Latin lookup 0 per glyph data 1" ydieresis dx=0 dy=0 dh=-75 dv=0 dx=0 dy=0 dh=0 dv=0
PairPos2: "'kern' Horizontal Kerning in Latin lookup 0 per glyph data 1" yacute dx=0 dy=0 dh=-75 dv=0 dx=0 dy=0 dh=0 dv=0
PairPos2: "'kern' Horizontal Kerning in Latin lookup 0 per glyph data 1" oslash dx=0 dy=0 dh=-75 dv=0 dx=0 dy=0 dh=0 dv=0
PairPos2: "'kern' Horizontal Kerning in Latin lookup 0 per glyph data 1" odieresis dx=0 dy=0 dh=-75 dv=0 dx=0 dy=0 dh=0 dv=0
PairPos2: "'kern' Horizontal Kerning in Latin lookup 0 per glyph data 1" otilde dx=0 dy=0 dh=-75 dv=0 dx=0 dy=0 dh=0 dv=0
PairPos2: "'kern' Horizontal Kerning in Latin lookup 0 per glyph data 1" ocircumflex dx=0 dy=0 dh=-75 dv=0 dx=0 dy=0 dh=0 dv=0
PairPos2: "'kern' Horizontal Kerning in Latin lookup 0 per glyph data 1" oacute dx=0 dy=0 dh=-75 dv=0 dx=0 dy=0 dh=0 dv=0
PairPos2: "'kern' Horizontal Kerning in Latin lookup 0 per glyph data 1" ograve dx=0 dy=0 dh=-75 dv=0 dx=0 dy=0 dh=0 dv=0
PairPos2: "'kern' Horizontal Kerning in Latin lookup 0 per glyph data 1" edieresis dx=0 dy=0 dh=-75 dv=0 dx=0 dy=0 dh=0 dv=0
PairPos2: "'kern' Horizontal Kerning in Latin lookup 0 per glyph data 1" ecircumflex dx=0 dy=0 dh=-75 dv=0 dx=0 dy=0 dh=0 dv=0
PairPos2: "'kern' Horizontal Kerning in Latin lookup 0 per glyph data 1" eacute dx=0 dy=0 dh=-75 dv=0 dx=0 dy=0 dh=0 dv=0
PairPos2: "'kern' Horizontal Kerning in Latin lookup 0 per glyph data 1" egrave dx=0 dy=0 dh=-75 dv=0 dx=0 dy=0 dh=0 dv=0
PairPos2: "'kern' Horizontal Kerning in Latin lookup 0 per glyph data 1" ccedilla dx=0 dy=0 dh=-75 dv=0 dx=0 dy=0 dh=0 dv=0
PairPos2: "'kern' Horizontal Kerning in Latin lookup 0 per glyph data 1" ae dx=0 dy=0 dh=-45 dv=0 dx=0 dy=0 dh=0 dv=0
PairPos2: "'kern' Horizontal Kerning in Latin lookup 0 per glyph data 1" aring dx=0 dy=0 dh=-45 dv=0 dx=0 dy=0 dh=0 dv=0
PairPos2: "'kern' Horizontal Kerning in Latin lookup 0 per glyph data 1" adieresis dx=0 dy=0 dh=-45 dv=0 dx=0 dy=0 dh=0 dv=0
PairPos2: "'kern' Horizontal Kerning in Latin lookup 0 per glyph data 1" atilde dx=0 dy=0 dh=-45 dv=0 dx=0 dy=0 dh=0 dv=0
PairPos2: "'kern' Horizontal Kerning in Latin lookup 0 per glyph data 1" acircumflex dx=0 dy=0 dh=-45 dv=0 dx=0 dy=0 dh=0 dv=0
PairPos2: "'kern' Horizontal Kerning in Latin lookup 0 per glyph data 1" aacute dx=0 dy=0 dh=-45 dv=0 dx=0 dy=0 dh=0 dv=0
PairPos2: "'kern' Horizontal Kerning in Latin lookup 0 per glyph data 1" agrave dx=0 dy=0 dh=-45 dv=0 dx=0 dy=0 dh=0 dv=0
PairPos2: "'kern' Horizontal Kerning in Latin lookup 0 per glyph data 1" Aring dx=0 dy=0 dh=-45 dv=0 dx=0 dy=0 dh=0 dv=0
PairPos2: "'kern' Horizontal Kerning in Latin lookup 0 per glyph data 1" Adieresis dx=0 dy=0 dh=-45 dv=0 dx=0 dy=0 dh=0 dv=0
PairPos2: "'kern' Horizontal Kerning in Latin lookup 0 per glyph data 1" Atilde dx=0 dy=0 dh=-45 dv=0 dx=0 dy=0 dh=0 dv=0
PairPos2: "'kern' Horizontal Kerning in Latin lookup 0 per glyph data 1" Acircumflex dx=0 dy=0 dh=-45 dv=0 dx=0 dy=0 dh=0 dv=0
PairPos2: "'kern' Horizontal Kerning in Latin lookup 0 per glyph data 1" Aacute dx=0 dy=0 dh=-45 dv=0 dx=0 dy=0 dh=0 dv=0
PairPos2: "'kern' Horizontal Kerning in Latin lookup 0 per glyph data 1" Agrave dx=0 dy=0 dh=-45 dv=0 dx=0 dy=0 dh=0 dv=0
PairPos2: "'kern' Horizontal Kerning in Latin lookup 0 per glyph data 1" y dx=0 dy=0 dh=-75 dv=0 dx=0 dy=0 dh=0 dv=0
PairPos2: "'kern' Horizontal Kerning in Latin lookup 0 per glyph data 1" w dx=0 dy=0 dh=-65 dv=0 dx=0 dy=0 dh=0 dv=0
PairPos2: "'kern' Horizontal Kerning in Latin lookup 0 per glyph data 1" v dx=0 dy=0 dh=-75 dv=0 dx=0 dy=0 dh=0 dv=0
PairPos2: "'kern' Horizontal Kerning in Latin lookup 0 per glyph data 1" s dx=0 dy=0 dh=-55 dv=0 dx=0 dy=0 dh=0 dv=0
PairPos2: "'kern' Horizontal Kerning in Latin lookup 0 per glyph data 1" q dx=0 dy=0 dh=-75 dv=0 dx=0 dy=0 dh=0 dv=0
PairPos2: "'kern' Horizontal Kerning in Latin lookup 0 per glyph data 1" o dx=0 dy=0 dh=-75 dv=0 dx=0 dy=0 dh=0 dv=0
PairPos2: "'kern' Horizontal Kerning in Latin lookup 0 per glyph data 1" e dx=0 dy=0 dh=-75 dv=0 dx=0 dy=0 dh=0 dv=0
PairPos2: "'kern' Horizontal Kerning in Latin lookup 0 per glyph data 1" d dx=0 dy=0 dh=-75 dv=0 dx=0 dy=0 dh=0 dv=0
PairPos2: "'kern' Horizontal Kerning in Latin lookup 0 per glyph data 1" c dx=0 dy=0 dh=-75 dv=0 dx=0 dy=0 dh=0 dv=0
PairPos2: "'kern' Horizontal Kerning in Latin lookup 0 per glyph data 1" a dx=0 dy=0 dh=-45 dv=0 dx=0 dy=0 dh=0 dv=0
PairPos2: "'kern' Horizontal Kerning in Latin lookup 0 per glyph data 1" A dx=0 dy=0 dh=-45 dv=0 dx=0 dy=0 dh=0 dv=0
PairPos2: "'kern' Horizontal Kerning in Latin lookup 0 per glyph data 1" semicolon dx=0 dy=0 dh=-55 dv=0 dx=0 dy=0 dh=0 dv=0
PairPos2: "'kern' Horizontal Kerning in Latin lookup 0 per glyph data 1" colon dx=0 dy=0 dh=-55 dv=0 dx=0 dy=0 dh=0 dv=0
PairPos2: "'kern' Horizontal Kerning in Latin lookup 0 per glyph data 1" period dx=0 dy=0 dh=-55 dv=0 dx=0 dy=0 dh=0 dv=0
PairPos2: "'kern' Horizontal Kerning in Latin lookup 0 per glyph data 1" hyphen dx=0 dy=0 dh=-55 dv=0 dx=0 dy=0 dh=0 dv=0
PairPos2: "'kern' Horizontal Kerning in Latin lookup 0 per glyph data 1" comma dx=0 dy=0 dh=-55 dv=0 dx=0 dy=0 dh=0 dv=0
EndChar

StartChar: U
Encoding: 85 85 56
Width: 653
GlyphClass: 2
Flags: W
LayerCount: 2
Fore
SplineSet
75 680 m 1,0,-1
 155 680 l 1,1,-1
 155 248 l 2,2,3
 155 163 155 163 197.5 110 c 128,-1,4
 240 57 240 57 326 57 c 128,-1,5
 412 57 412 57 455 110 c 128,-1,6
 498 163 498 163 498 248 c 2,7,-1
 498 680 l 1,8,-1
 578 680 l 1,9,-1
 578 253 l 2,10,11
 578 134 578 134 515 59 c 128,-1,12
 452 -16 452 -16 326 -16 c 128,-1,13
 200 -16 200 -16 137.5 59 c 128,-1,14
 75 134 75 134 75 253 c 2,15,-1
 75 680 l 1,0,-1
EndSplineSet
EndChar

StartChar: V
Encoding: 86 86 57
Width: 556
GlyphClass: 2
Flags: W
LayerCount: 2
Fore
SplineSet
83 680 m 1,0,-1
 278 88 l 1,1,-1
 473 680 l 1,2,-1
 556 680 l 1,3,-1
 327 0 l 1,4,-1
 229 0 l 1,5,-1
 0 680 l 1,6,-1
 83 680 l 1,0,-1
EndSplineSet
PairPos2: "'kern' Horizontal Kerning in Latin lookup 0 per glyph data 1" ellipsis dx=0 dy=0 dh=-55 dv=0 dx=0 dy=0 dh=0 dv=0
PairPos2: "'kern' Horizontal Kerning in Latin lookup 0 per glyph data 1" quotedblbase dx=0 dy=0 dh=-55 dv=0 dx=0 dy=0 dh=0 dv=0
PairPos2: "'kern' Horizontal Kerning in Latin lookup 0 per glyph data 1" quotesinglbase dx=0 dy=0 dh=-55 dv=0 dx=0 dy=0 dh=0 dv=0
PairPos2: "'kern' Horizontal Kerning in Latin lookup 0 per glyph data 1" oe dx=0 dy=0 dh=-30 dv=0 dx=0 dy=0 dh=0 dv=0
PairPos2: "'kern' Horizontal Kerning in Latin lookup 0 per glyph data 1" oslash dx=0 dy=0 dh=-30 dv=0 dx=0 dy=0 dh=0 dv=0
PairPos2: "'kern' Horizontal Kerning in Latin lookup 0 per glyph data 1" odieresis dx=0 dy=0 dh=-30 dv=0 dx=0 dy=0 dh=0 dv=0
PairPos2: "'kern' Horizontal Kerning in Latin lookup 0 per glyph data 1" otilde dx=0 dy=0 dh=-30 dv=0 dx=0 dy=0 dh=0 dv=0
PairPos2: "'kern' Horizontal Kerning in Latin lookup 0 per glyph data 1" ocircumflex dx=0 dy=0 dh=-30 dv=0 dx=0 dy=0 dh=0 dv=0
PairPos2: "'kern' Horizontal Kerning in Latin lookup 0 per glyph data 1" oacute dx=0 dy=0 dh=-30 dv=0 dx=0 dy=0 dh=0 dv=0
PairPos2: "'kern' Horizontal Kerning in Latin lookup 0 per glyph data 1" ograve dx=0 dy=0 dh=-30 dv=0 dx=0 dy=0 dh=0 dv=0
PairPos2: "'kern' Horizontal Kerning in Latin lookup 0 per glyph data 1" edieresis dx=0 dy=0 dh=-30 dv=0 dx=0 dy=0 dh=0 dv=0
PairPos2: "'kern' Horizontal Kerning in Latin lookup 0 per glyph data 1" ecircumflex dx=0 dy=0 dh=-30 dv=0 dx=0 dy=0 dh=0 dv=0
PairPos2: "'kern' Horizontal Kerning in Latin lookup 0 per glyph data 1" eacute dx=0 dy=0 dh=-30 dv=0 dx=0 dy=0 dh=0 dv=0
PairPos2: "'kern' Horizontal Kerning in Latin lookup 0 per glyph data 1" egrave dx=0 dy=0 dh=-30 dv=0 dx=0 dy=0 dh=0 dv=0
PairPos2: "'kern' Horizontal Kerning in Latin lookup 0 per glyph data 1" ccedilla dx=0 dy=0 dh=-30 dv=0 dx=0 dy=0 dh=0 dv=0
PairPos2: "'kern' Horizontal Kerning in Latin lookup 0 per glyph data 1" AE dx=0 dy=0 dh=-70 dv=0 dx=0 dy=0 dh=0 dv=0
PairPos2: "'kern' Horizontal Kerning in Latin lookup 0 per glyph data 1" Aring dx=0 dy=0 dh=-25 dv=0 dx=0 dy=0 dh=0 dv=0
PairPos2: "'kern' Horizontal Kerning in Latin lookup 0 per glyph data 1" Adieresis dx=0 dy=0 dh=-25 dv=0 dx=0 dy=0 dh=0 dv=0
PairPos2: "'kern' Horizontal Kerning in Latin lookup 0 per glyph data 1" Atilde dx=0 dy=0 dh=-25 dv=0 dx=0 dy=0 dh=0 dv=0
PairPos2: "'kern' Horizontal Kerning in Latin lookup 0 per glyph data 1" Acircumflex dx=0 dy=0 dh=-25 dv=0 dx=0 dy=0 dh=0 dv=0
PairPos2: "'kern' Horizontal Kerning in Latin lookup 0 per glyph data 1" Aacute dx=0 dy=0 dh=-25 dv=0 dx=0 dy=0 dh=0 dv=0
PairPos2: "'kern' Horizontal Kerning in Latin lookup 0 per glyph data 1" Agrave dx=0 dy=0 dh=-25 dv=0 dx=0 dy=0 dh=0 dv=0
PairPos2: "'kern' Horizontal Kerning in Latin lookup 0 per glyph data 1" q dx=0 dy=0 dh=-30 dv=0 dx=0 dy=0 dh=0 dv=0
PairPos2: "'kern' Horizontal Kerning in Latin lookup 0 per glyph data 1" o dx=0 dy=0 dh=-30 dv=0 dx=0 dy=0 dh=0 dv=0
PairPos2: "'kern' Horizontal Kerning in Latin lookup 0 per glyph data 1" e dx=0 dy=0 dh=-30 dv=0 dx=0 dy=0 dh=0 dv=0
PairPos2: "'kern' Horizontal Kerning in Latin lookup 0 per glyph data 1" d dx=0 dy=0 dh=-30 dv=0 dx=0 dy=0 dh=0 dv=0
PairPos2: "'kern' Horizontal Kerning in Latin lookup 0 per glyph data 1" c dx=0 dy=0 dh=-30 dv=0 dx=0 dy=0 dh=0 dv=0
PairPos2: "'kern' Horizontal Kerning in Latin lookup 0 per glyph data 1" A dx=0 dy=0 dh=-25 dv=0 dx=0 dy=0 dh=0 dv=0
PairPos2: "'kern' Horizontal Kerning in Latin lookup 0 per glyph data 1" period dx=0 dy=0 dh=-55 dv=0 dx=0 dy=0 dh=0 dv=0
PairPos2: "'kern' Horizontal Kerning in Latin lookup 0 per glyph data 1" comma dx=0 dy=0 dh=-55 dv=0 dx=0 dy=0 dh=0 dv=0
EndChar

StartChar: W
Encoding: 87 87 58
Width: 825
GlyphClass: 2
Flags: W
LayerCount: 2
Fore
SplineSet
549 0 m 1,0,-1
 411 533 l 1,1,-1
 268 0 l 1,2,-1
 175 0 l 1,3,-1
 0 680 l 1,4,-1
 83 680 l 1,5,-1
 223 120 l 1,6,-1
 373 680 l 1,7,-1
 455 680 l 1,8,-1
 596 120 l 1,9,-1
 745 680 l 1,10,-1
 825 680 l 1,11,-1
 642 0 l 1,12,-1
 549 0 l 1,0,-1
EndSplineSet
PairPos2: "'kern' Horizontal Kerning in Latin lookup 0 per glyph data 1" ellipsis dx=0 dy=0 dh=-45 dv=0 dx=0 dy=0 dh=0 dv=0
PairPos2: "'kern' Horizontal Kerning in Latin lookup 0 per glyph data 1" quotedblbase dx=0 dy=0 dh=-45 dv=0 dx=0 dy=0 dh=0 dv=0
PairPos2: "'kern' Horizontal Kerning in Latin lookup 0 per glyph data 1" quotesinglbase dx=0 dy=0 dh=-45 dv=0 dx=0 dy=0 dh=0 dv=0
PairPos2: "'kern' Horizontal Kerning in Latin lookup 0 per glyph data 1" oe dx=0 dy=0 dh=-20 dv=0 dx=0 dy=0 dh=0 dv=0
PairPos2: "'kern' Horizontal Kerning in Latin lookup 0 per glyph data 1" oslash dx=0 dy=0 dh=-20 dv=0 dx=0 dy=0 dh=0 dv=0
PairPos2: "'kern' Horizontal Kerning in Latin lookup 0 per glyph data 1" odieresis dx=0 dy=0 dh=-20 dv=0 dx=0 dy=0 dh=0 dv=0
PairPos2: "'kern' Horizontal Kerning in Latin lookup 0 per glyph data 1" otilde dx=0 dy=0 dh=-20 dv=0 dx=0 dy=0 dh=0 dv=0
PairPos2: "'kern' Horizontal Kerning in Latin lookup 0 per glyph data 1" ocircumflex dx=0 dy=0 dh=-20 dv=0 dx=0 dy=0 dh=0 dv=0
PairPos2: "'kern' Horizontal Kerning in Latin lookup 0 per glyph data 1" oacute dx=0 dy=0 dh=-20 dv=0 dx=0 dy=0 dh=0 dv=0
PairPos2: "'kern' Horizontal Kerning in Latin lookup 0 per glyph data 1" ograve dx=0 dy=0 dh=-20 dv=0 dx=0 dy=0 dh=0 dv=0
PairPos2: "'kern' Horizontal Kerning in Latin lookup 0 per glyph data 1" edieresis dx=0 dy=0 dh=-20 dv=0 dx=0 dy=0 dh=0 dv=0
PairPos2: "'kern' Horizontal Kerning in Latin lookup 0 per glyph data 1" ecircumflex dx=0 dy=0 dh=-20 dv=0 dx=0 dy=0 dh=0 dv=0
PairPos2: "'kern' Horizontal Kerning in Latin lookup 0 per glyph data 1" eacute dx=0 dy=0 dh=-20 dv=0 dx=0 dy=0 dh=0 dv=0
PairPos2: "'kern' Horizontal Kerning in Latin lookup 0 per glyph data 1" egrave dx=0 dy=0 dh=-20 dv=0 dx=0 dy=0 dh=0 dv=0
PairPos2: "'kern' Horizontal Kerning in Latin lookup 0 per glyph data 1" ccedilla dx=0 dy=0 dh=-20 dv=0 dx=0 dy=0 dh=0 dv=0
PairPos2: "'kern' Horizontal Kerning in Latin lookup 0 per glyph data 1" AE dx=0 dy=0 dh=-60 dv=0 dx=0 dy=0 dh=0 dv=0
PairPos2: "'kern' Horizontal Kerning in Latin lookup 0 per glyph data 1" Aring dx=0 dy=0 dh=-20 dv=0 dx=0 dy=0 dh=0 dv=0
PairPos2: "'kern' Horizontal Kerning in Latin lookup 0 per glyph data 1" Adieresis dx=0 dy=0 dh=-20 dv=0 dx=0 dy=0 dh=0 dv=0
PairPos2: "'kern' Horizontal Kerning in Latin lookup 0 per glyph data 1" Atilde dx=0 dy=0 dh=-20 dv=0 dx=0 dy=0 dh=0 dv=0
PairPos2: "'kern' Horizontal Kerning in Latin lookup 0 per glyph data 1" Acircumflex dx=0 dy=0 dh=-20 dv=0 dx=0 dy=0 dh=0 dv=0
PairPos2: "'kern' Horizontal Kerning in Latin lookup 0 per glyph data 1" Aacute dx=0 dy=0 dh=-20 dv=0 dx=0 dy=0 dh=0 dv=0
PairPos2: "'kern' Horizontal Kerning in Latin lookup 0 per glyph data 1" Agrave dx=0 dy=0 dh=-20 dv=0 dx=0 dy=0 dh=0 dv=0
PairPos2: "'kern' Horizontal Kerning in Latin lookup 0 per glyph data 1" q dx=0 dy=0 dh=-20 dv=0 dx=0 dy=0 dh=0 dv=0
PairPos2: "'kern' Horizontal Kerning in Latin lookup 0 per glyph data 1" o dx=0 dy=0 dh=-20 dv=0 dx=0 dy=0 dh=0 dv=0
PairPos2: "'kern' Horizontal Kerning in Latin lookup 0 per glyph data 1" e dx=0 dy=0 dh=-20 dv=0 dx=0 dy=0 dh=0 dv=0
PairPos2: "'kern' Horizontal Kerning in Latin lookup 0 per glyph data 1" d dx=0 dy=0 dh=-20 dv=0 dx=0 dy=0 dh=0 dv=0
PairPos2: "'kern' Horizontal Kerning in Latin lookup 0 per glyph data 1" c dx=0 dy=0 dh=-20 dv=0 dx=0 dy=0 dh=0 dv=0
PairPos2: "'kern' Horizontal Kerning in Latin lookup 0 per glyph data 1" A dx=0 dy=0 dh=-20 dv=0 dx=0 dy=0 dh=0 dv=0
PairPos2: "'kern' Horizontal Kerning in Latin lookup 0 per glyph data 1" period dx=0 dy=0 dh=-45 dv=0 dx=0 dy=0 dh=0 dv=0
PairPos2: "'kern' Horizontal Kerning in Latin lookup 0 per glyph data 1" comma dx=0 dy=0 dh=-45 dv=0 dx=0 dy=0 dh=0 dv=0
EndChar

StartChar: X
Encoding: 88 88 59
Width: 573
GlyphClass: 2
Flags: W
LayerCount: 2
Fore
SplineSet
25 680 m 1,0,-1
 118 680 l 1,1,-1
 285 424 l 1,2,-1
 453 680 l 1,3,-1
 546 680 l 1,4,-1
 331 353 l 1,5,-1
 563 0 l 1,6,-1
 471 0 l 1,7,-1
 286 281 l 1,8,-1
 102 0 l 1,9,-1
 10 0 l 1,10,-1
 240 352 l 1,11,-1
 25 680 l 1,0,-1
EndSplineSet
EndChar

StartChar: Y
Encoding: 89 89 60
Width: 528
GlyphClass: 2
Flags: W
LayerCount: 2
Fore
SplineSet
224 0 m 1,0,-1
 224 235 l 1,1,-1
 0 680 l 1,2,-1
 88 680 l 1,3,-1
 264 314 l 1,4,-1
 440 680 l 1,5,-1
 528 680 l 1,6,-1
 304 235 l 1,7,-1
 304 0 l 1,8,-1
 224 0 l 1,0,-1
EndSplineSet
EndChar

StartChar: Z
Encoding: 90 90 61
Width: 501
GlyphClass: 2
Flags: W
LayerCount: 2
Fore
SplineSet
486 0 m 1,0,-1
 15 0 l 1,1,-1
 15 68 l 1,2,-1
 369 608 l 1,3,-1
 40 608 l 1,4,-1
 40 680 l 1,5,-1
 481 680 l 1,6,-1
 481 639 l 1,7,-1
 110 72 l 1,8,-1
 486 72 l 1,9,-1
 486 0 l 1,0,-1
EndSplineSet
EndChar

StartChar: bracketleft
Encoding: 91 91 62
Width: 277
GlyphClass: 2
Flags: W
LayerCount: 2
Fore
SplineSet
261 0 m 1,0,-1
 261 -60 l 1,1,-1
 90 -60 l 1,2,-1
 90 682 l 1,3,-1
 170 682 l 1,4,-1
 169 0 l 1,5,-1
 261 0 l 1,0,-1
262 682 m 1,6,-1
 262 622 l 1,7,-1
 170 622 l 1,8,-1
 170 682 l 1,9,-1
 262 682 l 1,6,-1
EndSplineSet
EndChar

StartChar: backslash
Encoding: 92 92 63
Width: 312
GlyphClass: 2
Flags: W
LayerCount: 2
Fore
SplineSet
269 -92 m 1,0,-1
 -30 772 l 1,1,-1
 42 772 l 1,2,-1
 342 -92 l 1,3,-1
 269 -92 l 1,0,-1
EndSplineSet
EndChar

StartChar: bracketright
Encoding: 93 93 64
Width: 277
GlyphClass: 2
Flags: W
LayerCount: 2
Fore
SplineSet
16 -60 m 1,0,-1
 16 0 l 1,1,-1
 108 0 l 1,2,-1
 107 682 l 1,3,-1
 187 682 l 1,4,-1
 187 -60 l 1,5,-1
 16 -60 l 1,0,-1
15 622 m 1,6,-1
 15 682 l 1,7,-1
 107 682 l 1,8,-1
 107 622 l 1,9,-1
 15 622 l 1,6,-1
EndSplineSet
EndChar

StartChar: asciicircum
Encoding: 94 94 65
Width: 518
GlyphClass: 2
Flags: W
LayerCount: 2
Fore
SplineSet
235 656 m 1,0,-1
 284 656 l 1,1,-1
 482 320 l 1,2,-1
 421 283 l 1,3,-1
 259 557 l 1,4,-1
 97 283 l 1,5,-1
 36 320 l 1,6,-1
 235 656 l 1,0,-1
EndSplineSet
EndChar

StartChar: underscore
Encoding: 95 95 66
Width: 624
GlyphClass: 2
Flags: W
LayerCount: 2
Fore
SplineSet
574 -72 m 1,0,-1
 50 -72 l 1,1,-1
 50 0 l 1,2,-1
 574 0 l 1,3,-1
 574 -72 l 1,0,-1
EndSplineSet
EndChar

StartChar: grave
Encoding: 96 96 67
Width: 210
GlyphClass: 2
Flags: W
LayerCount: 2
Fore
SplineSet
70 735 m 0,0,1
 96 735 96 735 122 700 c 2,2,-1
 224 560 l 1,3,-1
 200 535 l 1,4,-1
 20 682 l 1,5,6
 38 735 38 735 70 735 c 0,0,1
EndSplineSet
EndChar

StartChar: a
Encoding: 97 97 68
Width: 564
GlyphClass: 2
Flags: W
LayerCount: 2
Fore
SplineSet
241 -14 m 0,0,1
 155 -14 155 -14 100 51 c 128,-1,2
 45 116 45 116 45 238.5 c 128,-1,3
 45 361 45 361 114.5 437.5 c 128,-1,4
 184 514 184 514 287.5 514 c 128,-1,5
 391 514 391 514 474 456 c 1,6,-1
 474 100 l 1,7,-1
 484 0 l 1,8,-1
 418 -5 l 1,9,-1
 401 85 l 1,10,11
 345 -14 345 -14 241 -14 c 0,0,1
159 102 m 128,-1,13
 197 54 197 54 256.5 54 c 128,-1,14
 316 54 316 54 357 113.5 c 128,-1,15
 398 173 398 173 398 282 c 2,16,-1
 398 421 l 1,17,18
 348 446 348 446 291 446 c 0,19,20
 217 446 217 446 169 388.5 c 128,-1,21
 121 331 121 331 121 240.5 c 128,-1,12
 121 150 121 150 159 102 c 128,-1,13
EndSplineSet
EndChar

StartChar: b
Encoding: 98 98 69
Width: 554
GlyphClass: 2
Flags: W
LayerCount: 2
Fore
SplineSet
151 700 m 1,0,-1
 151 418 l 1,1,2
 206 514 206 514 313 514 c 0,3,4
 397 514 397 514 450.5 449 c 128,-1,5
 504 384 504 384 504 261.5 c 128,-1,6
 504 139 504 139 434.5 62.5 c 128,-1,7
 365 -14 365 -14 265 -14 c 128,-1,8
 165 -14 165 -14 120 42.5 c 128,-1,9
 75 99 75 99 75 196 c 2,10,-1
 75 700 l 1,11,-1
 151 700 l 1,0,-1
394 398.5 m 128,-1,13
 360 446 360 446 298.5 446 c 128,-1,14
 237 446 237 446 195 391 c 128,-1,15
 153 336 153 336 151 222 c 1,16,-1
 151 196 l 2,17,18
 151 133 151 133 177.5 93.5 c 128,-1,19
 204 54 204 54 258 54 c 0,20,21
 332 54 332 54 380 111.5 c 128,-1,22
 428 169 428 169 428 260 c 128,-1,12
 428 351 428 351 394 398.5 c 128,-1,13
EndSplineSet
EndChar

StartChar: c
Encoding: 99 99 70
Width: 446
GlyphClass: 2
Flags: W
LayerCount: 2
Fore
SplineSet
433 48 m 1,0,1
 361 -14 361 -14 265.5 -14 c 128,-1,2
 170 -14 170 -14 107.5 50 c 128,-1,3
 45 114 45 114 45 236.5 c 128,-1,4
 45 359 45 359 107.5 436.5 c 128,-1,5
 170 514 170 514 281 514 c 0,6,7
 350 514 350 514 409 478 c 1,8,-1
 390 417 l 1,9,10
 337 446 337 446 283 446 c 0,11,12
 209 446 209 446 165 390 c 128,-1,13
 121 334 121 334 121 240.5 c 128,-1,14
 121 147 121 147 161.5 100.5 c 128,-1,15
 202 54 202 54 265 54 c 0,16,17
 345 54 345 54 403 102 c 1,18,-1
 433 48 l 1,0,1
EndSplineSet
EndChar

StartChar: d
Encoding: 100 100 71
Width: 564
GlyphClass: 2
Flags: W
LayerCount: 2
Fore
SplineSet
241 -14 m 0,0,1
 155 -14 155 -14 100 51 c 128,-1,2
 45 116 45 116 45 238.5 c 128,-1,3
 45 361 45 361 114.5 437.5 c 128,-1,4
 184 514 184 514 291 514 c 0,5,6
 344 514 344 514 398 495 c 1,7,-1
 398 700 l 1,8,-1
 474 700 l 1,9,-1
 474 100 l 1,10,-1
 484 0 l 1,11,-1
 418 -5 l 1,12,-1
 401 85 l 1,13,14
 345 -14 345 -14 241 -14 c 0,0,1
159 102 m 128,-1,16
 197 54 197 54 256.5 54 c 128,-1,17
 316 54 316 54 357 113.5 c 128,-1,18
 398 173 398 173 398 282 c 2,19,-1
 398 421 l 1,20,21
 348 446 348 446 291 446 c 0,22,23
 217 446 217 446 169 388.5 c 128,-1,24
 121 331 121 331 121 240.5 c 128,-1,15
 121 150 121 150 159 102 c 128,-1,16
EndSplineSet
EndChar

StartChar: e
Encoding: 101 101 72
Width: 484
GlyphClass: 2
Flags: W
LayerCount: 2
Fore
SplineSet
252 -14 m 0,0,1
 162 -14 162 -14 103.5 49 c 128,-1,2
 45 112 45 112 45 234 c 128,-1,3
 45 356 45 356 114 435 c 128,-1,4
 183 514 183 514 293 514 c 0,5,6
 363 514 363 514 406 471.5 c 128,-1,7
 449 429 449 429 449 365.5 c 128,-1,8
 449 302 449 302 383.5 249 c 128,-1,9
 318 196 318 196 193 196 c 0,10,11
 160 196 160 196 123 199 c 1,12,13
 130 128 130 128 166.5 91 c 128,-1,14
 203 54 203 54 255 54 c 0,15,16
 342 54 342 54 400 108 c 1,17,-1
 436 59 l 1,18,19
 360 -14 360 -14 252 -14 c 0,0,1
290 446 m 0,20,21
 221 446 221 446 175.5 397 c 128,-1,22
 130 348 130 348 122 267 c 1,23,24
 155 262 155 262 195 262 c 0,25,26
 281 262 281 262 327 294 c 128,-1,27
 373 326 373 326 373 368 c 0,28,29
 373 399 373 399 350.5 422.5 c 128,-1,30
 328 446 328 446 290 446 c 0,20,21
EndSplineSet
EndChar

StartChar: f
Encoding: 102 102 73
Width: 303
GlyphClass: 2
Flags: W
LayerCount: 2
Fore
SplineSet
40 435 m 1,0,-1
 40 500 l 1,1,-1
 105 500 l 1,2,-1
 105 551 l 2,3,4
 105 636 105 636 140.5 675 c 128,-1,5
 176 714 176 714 233.5 714 c 128,-1,6
 291 714 291 714 353 674 c 1,7,-1
 323 620 l 1,8,9
 271 643 271 643 242 643 c 0,10,11
 181 643 181 643 181 555 c 2,12,-1
 181 500 l 1,13,-1
 296 500 l 1,14,-1
 296 435 l 1,15,-1
 181 435 l 1,16,-1
 181 -160 l 1,17,-1
 105 -160 l 1,18,-1
 105 435 l 1,19,-1
 40 435 l 1,0,-1
EndSplineSet
EndChar

StartChar: g
Encoding: 103 103 74
Width: 559
GlyphClass: 2
Flags: W
LayerCount: 2
Fore
SplineSet
404.5 -162.5 m 128,-1,1
 335 -239 335 -239 231.5 -239 c 128,-1,2
 128 -239 128 -239 45 -181 c 1,3,-1
 83 -122 l 1,4,5
 107 -142 107 -142 147 -155 c 128,-1,6
 187 -168 187 -168 228 -168 c 0,7,8
 302 -168 302 -168 350 -111 c 128,-1,9
 398 -54 398 -54 398 35 c 2,10,-1
 398 82 l 1,11,12
 342 -14 342 -14 241 -14 c 0,13,14
 155 -14 155 -14 100 51 c 128,-1,15
 45 116 45 116 45 238.5 c 128,-1,16
 45 361 45 361 114.5 437.5 c 128,-1,17
 184 514 184 514 287.5 514 c 128,-1,18
 391 514 391 514 474 456 c 1,19,-1
 474 34 l 2,20,0
 474 -86 474 -86 404.5 -162.5 c 128,-1,1
159 102 m 128,-1,22
 197 54 197 54 256.5 54 c 128,-1,23
 316 54 316 54 357 114 c 128,-1,24
 398 174 398 174 398 285 c 2,25,-1
 398 421 l 1,26,27
 348 446 348 446 291 446 c 0,28,29
 217 446 217 446 169 388.5 c 128,-1,30
 121 331 121 331 121 240.5 c 128,-1,21
 121 150 121 150 159 102 c 128,-1,22
EndSplineSet
EndChar

StartChar: h
Encoding: 104 104 75
Width: 574
GlyphClass: 2
Flags: W
LayerCount: 2
Fore
SplineSet
499 0 m 1,0,-1
 423 0 l 1,1,-1
 423 304 l 2,2,3
 423 446 423 446 322 446 c 0,4,5
 264 446 264 446 216.5 386 c 128,-1,6
 169 326 169 326 166 221 c 1,7,-1
 166 0 l 1,8,-1
 90 0 l 1,9,-1
 90 700 l 1,10,-1
 166 700 l 1,11,-1
 166 403 l 1,12,13
 196 457 196 457 241.5 485.5 c 128,-1,14
 287 514 287 514 335 514 c 0,15,16
 499 514 499 514 499 304 c 2,17,-1
 499 0 l 1,0,-1
EndSplineSet
EndChar

StartChar: i
Encoding: 105 105 76
Width: 256
GlyphClass: 2
Flags: W
LayerCount: 2
Fore
SplineSet
80 644 m 128,-1,1
 80 665 80 665 92 678.5 c 128,-1,2
 104 692 104 692 127 692 c 128,-1,3
 150 692 150 692 163 678 c 128,-1,4
 176 664 176 664 176 644 c 128,-1,5
 176 624 176 624 163 610 c 128,-1,6
 150 596 150 596 127 596 c 128,-1,7
 104 596 104 596 92 609.5 c 128,-1,0
 80 623 80 623 80 644 c 128,-1,1
90 0 m 1,8,-1
 90 500 l 1,9,-1
 166 500 l 1,10,-1
 166 0 l 1,11,-1
 90 0 l 1,8,-1
EndSplineSet
EndChar

StartChar: j
Encoding: 106 106 77
Width: 256
GlyphClass: 2
Flags: W
LayerCount: 2
Fore
SplineSet
82 644 m 128,-1,1
 82 664 82 664 94 677 c 128,-1,2
 106 690 106 690 128 690 c 128,-1,3
 150 690 150 690 162 677 c 128,-1,4
 174 664 174 664 174 644 c 128,-1,5
 174 624 174 624 162 611 c 128,-1,6
 150 598 150 598 128 598 c 128,-1,7
 106 598 106 598 94 611 c 128,-1,0
 82 624 82 624 82 644 c 128,-1,1
29 -168 m 0,8,9
 90 -168 90 -168 90 -80 c 2,10,-1
 90 500 l 1,11,-1
 166 500 l 1,12,-1
 166 -76 l 2,13,14
 166 -161 166 -161 130.5 -200 c 128,-1,15
 95 -239 95 -239 37.5 -239 c 128,-1,16
 -20 -239 -20 -239 -82 -199 c 1,17,-1
 -52 -145 l 1,18,19
 0 -168 0 -168 29 -168 c 0,8,9
EndSplineSet
EndChar

StartChar: k
Encoding: 107 107 78
Width: 508
GlyphClass: 2
Flags: W
LayerCount: 2
Fore
SplineSet
467 385 m 0,0,1
 467 283 467 283 346 223 c 1,2,-1
 478 0 l 1,3,-1
 390 0 l 1,4,-1
 274 197 l 1,5,6
 229 184 229 184 166 178 c 1,7,-1
 166 0 l 1,8,-1
 90 0 l 1,9,-1
 90 700 l 1,10,-1
 166 700 l 1,11,-1
 166 421 l 1,12,13
 226 514 226 514 324 514 c 0,14,15
 396 514 396 514 431.5 478 c 128,-1,16
 467 442 467 442 467 385 c 0,0,1
322 446 m 0,17,18
 256 446 256 446 211 389.5 c 128,-1,19
 166 333 166 333 166 267 c 2,20,-1
 166 245 l 1,21,22
 277 254 277 254 334 292.5 c 128,-1,23
 391 331 391 331 391 380 c 0,24,25
 391 409 391 409 374 427.5 c 128,-1,26
 357 446 357 446 322 446 c 0,17,18
EndSplineSet
EndChar

StartChar: l
Encoding: 108 108 79
Width: 263
GlyphClass: 2
Flags: W
LayerCount: 2
Fore
SplineSet
75 700 m 1,0,-1
 151 700 l 1,1,-1
 151 110 l 2,2,3
 151 55 151 55 196 55 c 0,4,5
 225 55 225 55 253 75 c 1,6,-1
 283 21 l 1,7,8
 228 -14 228 -14 179 -14 c 128,-1,9
 130 -14 130 -14 102.5 13 c 128,-1,10
 75 40 75 40 75 110 c 2,11,-1
 75 700 l 1,0,-1
EndSplineSet
EndChar

StartChar: m
Encoding: 109 109 80
Width: 872
GlyphClass: 2
Flags: W
LayerCount: 2
Fore
SplineSet
320 514 m 0,0,1
 440 514 440 514 470 389 c 1,2,3
 499 449 499 449 544.5 481.5 c 128,-1,4
 590 514 590 514 638 514 c 0,5,6
 715 514 715 514 756 461.5 c 128,-1,7
 797 409 797 409 797 304 c 2,8,-1
 797 0 l 1,9,-1
 721 0 l 1,10,-1
 721 304 l 2,11,12
 721 446 721 446 626 446 c 0,13,14
 571 446 571 446 526.5 386 c 128,-1,15
 482 326 482 326 479 221 c 1,16,-1
 479 0 l 1,17,-1
 403 0 l 1,18,-1
 403 304 l 2,19,20
 403 446 403 446 308 446 c 0,21,22
 253 446 253 446 208.5 386 c 128,-1,23
 164 326 164 326 161 221 c 1,24,-1
 161 0 l 1,25,-1
 85 0 l 1,26,-1
 85 400 l 1,27,-1
 75 500 l 1,28,-1
 141 505 l 1,29,-1
 160 404 l 1,30,31
 190 457 190 457 233 485.5 c 128,-1,32
 276 514 276 514 320 514 c 0,0,1
EndSplineSet
EndChar

StartChar: n
Encoding: 110 110 81
Width: 569
GlyphClass: 2
Flags: W
LayerCount: 2
Fore
SplineSet
330 514 m 0,0,1
 494 514 494 514 494 304 c 2,2,-1
 494 0 l 1,3,-1
 418 0 l 1,4,-1
 418 304 l 2,5,6
 418 446 418 446 317 446 c 0,7,8
 259 446 259 446 211.5 386 c 128,-1,9
 164 326 164 326 161 221 c 1,10,-1
 161 0 l 1,11,-1
 85 0 l 1,12,-1
 85 400 l 1,13,-1
 75 500 l 1,14,-1
 141 505 l 1,15,-1
 160 402 l 1,16,17
 191 456 191 456 237 485 c 128,-1,18
 283 514 283 514 330 514 c 0,0,1
EndSplineSet
EndChar

StartChar: o
Encoding: 111 111 82
Width: 541
GlyphClass: 2
Flags: W
LayerCount: 2
Fore
SplineSet
50 250 m 128,-1,1
 50 367 50 367 105 440.5 c 128,-1,2
 160 514 160 514 269.5 514 c 128,-1,3
 379 514 379 514 435 440.5 c 128,-1,4
 491 367 491 367 491 250 c 128,-1,5
 491 133 491 133 435 59.5 c 128,-1,6
 379 -14 379 -14 269.5 -14 c 128,-1,7
 160 -14 160 -14 105 59.5 c 128,-1,0
 50 133 50 133 50 250 c 128,-1,1
126 250 m 128,-1,9
 126 163 126 163 162 108.5 c 128,-1,10
 198 54 198 54 270 54 c 128,-1,11
 342 54 342 54 378.5 108.5 c 128,-1,12
 415 163 415 163 415 250 c 128,-1,13
 415 337 415 337 378.5 391.5 c 128,-1,14
 342 446 342 446 270 446 c 128,-1,15
 198 446 198 446 162 391.5 c 128,-1,8
 126 337 126 337 126 250 c 128,-1,9
EndSplineSet
EndChar

StartChar: p
Encoding: 112 112 83
Width: 564
GlyphClass: 2
Flags: W
LayerCount: 2
Fore
SplineSet
318 514 m 0,0,1
 404 514 404 514 459 449 c 128,-1,2
 514 384 514 384 514 261.5 c 128,-1,3
 514 139 514 139 444.5 62.5 c 128,-1,4
 375 -14 375 -14 268 -14 c 0,5,6
 215 -14 215 -14 161 5 c 1,7,-1
 161 -225 l 1,8,-1
 85 -225 l 1,9,-1
 85 400 l 1,10,-1
 75 500 l 1,11,-1
 141 505 l 1,12,-1
 158 413 l 1,13,14
 214 514 214 514 318 514 c 0,0,1
400 398 m 128,-1,16
 362 446 362 446 303.5 446 c 128,-1,17
 245 446 245 446 204 389 c 128,-1,18
 163 332 163 332 161 226 c 1,19,-1
 161 82 l 1,20,21
 213 54 213 54 268 54 c 0,22,23
 342 54 342 54 390 111.5 c 128,-1,24
 438 169 438 169 438 259.5 c 128,-1,15
 438 350 438 350 400 398 c 128,-1,16
EndSplineSet
EndChar

StartChar: q
Encoding: 113 113 84
Width: 569
GlyphClass: 2
Flags: W
LayerCount: 2
Fore
SplineSet
479 -225 m 1,0,-1
 403 -225 l 1,1,-1
 403 78 l 1,2,3
 348 -15 348 -15 241 -15 c 0,4,5
 157 -15 157 -15 103.5 50 c 128,-1,6
 50 115 50 115 50 237.5 c 128,-1,7
 50 360 50 360 119.5 436.5 c 128,-1,8
 189 513 189 513 291.5 513 c 128,-1,9
 394 513 394 513 479 454 c 1,10,-1
 479 -225 l 1,0,-1
241 53 m 0,11,12
 310 53 310 53 356.5 114.5 c 128,-1,13
 403 176 403 176 403 289 c 2,14,-1
 403 421 l 1,15,16
 357 445 357 445 289.5 445 c 128,-1,17
 222 445 222 445 174 387.5 c 128,-1,18
 126 330 126 330 126 239.5 c 128,-1,19
 126 149 126 149 158.5 101 c 128,-1,20
 191 53 191 53 241 53 c 0,11,12
EndSplineSet
EndChar

StartChar: r
Encoding: 114 114 85
Width: 352
GlyphClass: 2
Flags: W
LayerCount: 2
Fore
SplineSet
161 0 m 1,0,-1
 85 0 l 1,1,-1
 85 400 l 1,2,-1
 75 500 l 1,3,-1
 141 505 l 1,4,-1
 161 385 l 1,5,6
 191 447 191 447 237 479 c 128,-1,7
 283 511 283 511 337 511 c 1,8,-1
 342 435 l 1,9,10
 166 421 166 421 161 166 c 1,11,-1
 161 0 l 1,0,-1
EndSplineSet
PairPos2: "'kern' Horizontal Kerning in Latin lookup 0 per glyph data 1" ellipsis dx=0 dy=0 dh=-74 dv=0 dx=0 dy=0 dh=0 dv=0
PairPos2: "'kern' Horizontal Kerning in Latin lookup 0 per glyph data 1" quotedblbase dx=0 dy=0 dh=-74 dv=0 dx=0 dy=0 dh=0 dv=0
PairPos2: "'kern' Horizontal Kerning in Latin lookup 0 per glyph data 1" quotesinglbase dx=0 dy=0 dh=-74 dv=0 dx=0 dy=0 dh=0 dv=0
PairPos2: "'kern' Horizontal Kerning in Latin lookup 0 per glyph data 1" period dx=0 dy=0 dh=-74 dv=0 dx=0 dy=0 dh=0 dv=0
PairPos2: "'kern' Horizontal Kerning in Latin lookup 0 per glyph data 1" hyphen dx=0 dy=0 dh=-55 dv=0 dx=0 dy=0 dh=0 dv=0
PairPos2: "'kern' Horizontal Kerning in Latin lookup 0 per glyph data 1" comma dx=0 dy=0 dh=-74 dv=0 dx=0 dy=0 dh=0 dv=0
EndChar

StartChar: s
Encoding: 115 115 86
Width: 431
GlyphClass: 2
Flags: W
LayerCount: 2
Fore
SplineSet
216 55 m 0,0,1
 260 55 260 55 290 76 c 128,-1,2
 320 97 320 97 320 128.5 c 128,-1,3
 320 160 320 160 303 178.5 c 128,-1,4
 286 197 286 197 266.5 205 c 128,-1,5
 247 213 247 213 211 223.5 c 128,-1,6
 175 234 175 234 156 241.5 c 128,-1,7
 137 249 137 249 111 265 c 0,8,9
 62 295 62 295 62 367.5 c 128,-1,10
 62 440 62 440 111 477 c 128,-1,11
 160 514 160 514 226 514 c 0,12,13
 267 514 267 514 308.5 503 c 128,-1,14
 350 492 350 492 371 480 c 1,15,-1
 343 419 l 1,16,17
 295 445 295 445 226 445 c 0,18,19
 191 445 191 445 164.5 426.5 c 128,-1,20
 138 408 138 408 138 379.5 c 128,-1,21
 138 351 138 351 154 335 c 128,-1,22
 170 319 170 319 187 312 c 128,-1,23
 204 305 204 305 239 295 c 128,-1,24
 274 285 274 285 295.5 276.5 c 128,-1,25
 317 268 317 268 344 250 c 0,26,27
 396 215 396 215 396 139.5 c 128,-1,28
 396 64 396 64 344.5 25 c 128,-1,29
 293 -14 293 -14 216 -14 c 0,30,31
 112 -14 112 -14 40 53 c 1,32,-1
 81 108 l 1,33,34
 136 55 136 55 216 55 c 0,0,1
EndSplineSet
EndChar

StartChar: t
Encoding: 116 116 87
Width: 331
GlyphClass: 2
Flags: W
LayerCount: 2
Fore
SplineSet
29 435 m 1,0,-1
 29 500 l 1,1,-1
 105 500 l 1,2,-1
 129 650 l 1,3,-1
 181 650 l 1,4,-1
 181 500 l 1,5,-1
 298 500 l 1,6,-1
 298 435 l 1,7,-1
 181 435 l 1,8,-1
 181 109 l 2,9,10
 181 54 181 54 226 54 c 0,11,12
 260 54 260 54 300 83 c 1,13,-1
 328 32 l 1,14,15
 270 -14 270 -14 215 -14 c 128,-1,16
 160 -14 160 -14 132.5 12.5 c 128,-1,17
 105 39 105 39 105 109 c 2,18,-1
 105 435 l 1,19,-1
 29 435 l 1,0,-1
EndSplineSet
EndChar

StartChar: u
Encoding: 117 117 88
Width: 569
GlyphClass: 2
Flags: W
LayerCount: 2
Fore
SplineSet
75 500 m 1,0,-1
 151 500 l 1,1,-1
 151 196 l 2,2,3
 151 54 151 54 252 54 c 0,4,5
 310 54 310 54 357.5 113.5 c 128,-1,6
 405 173 405 173 408 278 c 1,7,-1
 408 500 l 1,8,-1
 484 500 l 1,9,-1
 484 100 l 1,10,-1
 494 0 l 1,11,-1
 428 -5 l 1,12,-1
 408 98 l 1,13,14
 378 44 378 44 332 15 c 128,-1,15
 286 -14 286 -14 239 -14 c 0,16,17
 75 -14 75 -14 75 196 c 2,18,-1
 75 500 l 1,0,-1
EndSplineSet
EndChar

StartChar: v
Encoding: 118 118 89
Width: 472
GlyphClass: 2
Flags: W
LayerCount: 2
Fore
SplineSet
87 500 m 1,0,-1
 237 87 l 1,1,-1
 386 500 l 1,2,-1
 467 500 l 1,3,-1
 281 0 l 1,4,-1
 191 0 l 1,5,-1
 5 500 l 1,6,-1
 87 500 l 1,0,-1
EndSplineSet
EndChar

StartChar: w
Encoding: 119 119 90
Width: 706
GlyphClass: 2
Flags: W
LayerCount: 2
Fore
SplineSet
317 500 m 1,0,-1
 389 500 l 1,1,-1
 503 118 l 1,2,-1
 611 500 l 1,3,-1
 691 500 l 1,4,-1
 550 0 l 1,5,-1
 465 0 l 1,6,-1
 353 369 l 1,7,-1
 241 0 l 1,8,-1
 156 0 l 1,9,-1
 15 500 l 1,10,-1
 95 500 l 1,11,-1
 203 118 l 1,12,-1
 317 500 l 1,0,-1
EndSplineSet
EndChar

StartChar: x
Encoding: 120 120 91
Width: 435
GlyphClass: 2
Flags: W
LayerCount: 2
Fore
SplineSet
16 500 m 1,0,-1
 106 500 l 1,1,-1
 220 323 l 1,2,-1
 335 500 l 1,3,-1
 425 500 l 1,4,-1
 266 253 l 1,5,-1
 430 0 l 1,6,-1
 340 0 l 1,7,-1
 217 189 l 1,8,-1
 95 0 l 1,9,-1
 5 0 l 1,10,-1
 172 258 l 1,11,-1
 16 500 l 1,0,-1
EndSplineSet
EndChar

StartChar: y
Encoding: 121 121 92
Width: 475
GlyphClass: 2
Flags: W
LayerCount: 2
Fore
SplineSet
197 -239 m 1,0,-1
 132 -217 l 1,1,-1
 200 -26 l 1,2,-1
 5 500 l 1,3,-1
 87 500 l 1,4,-1
 238 82 l 1,5,-1
 387 500 l 1,6,-1
 467 500 l 1,7,-1
 197 -239 l 1,0,-1
EndSplineSet
EndChar

StartChar: z
Encoding: 122 122 93
Width: 420
GlyphClass: 2
Flags: W
LayerCount: 2
Fore
SplineSet
42 435 m 1,0,-1
 42 500 l 1,1,-1
 400 500 l 1,2,-1
 138 65 l 1,3,-1
 399 65 l 1,4,-1
 399 0 l 1,5,-1
 11 0 l 1,6,-1
 271 435 l 1,7,-1
 42 435 l 1,0,-1
EndSplineSet
EndChar

StartChar: braceleft
Encoding: 123 123 94
Width: 277
GlyphClass: 2
Flags: W
LayerCount: 2
Fore
SplineSet
187 0 m 2,0,-1
 262 0 l 1,1,-1
 262 -60 l 1,2,-1
 170 -60 l 2,3,4
 140 -60 140 -60 115 -43 c 128,-1,5
 90 -26 90 -26 90 20 c 2,6,-1
 90 239 l 2,7,8
 90 263 90 263 77.5 274.5 c 128,-1,9
 65 286 65 286 30 286 c 1,10,-1
 30 336 l 1,11,12
 65 336 65 336 77.5 347.5 c 128,-1,13
 90 359 90 359 90 383 c 2,14,-1
 90 602 l 2,15,16
 90 648 90 648 115 665 c 128,-1,17
 140 682 140 682 170 682 c 2,18,-1
 262 682 l 1,19,-1
 262 622 l 1,20,-1
 187 622 l 2,21,22
 170 622 170 622 170 605 c 2,23,-1
 170 372 l 2,24,25
 170 347 170 347 158 330.5 c 128,-1,26
 146 314 146 314 121 314 c 1,27,-1
 121 308 l 1,28,29
 146 308 146 308 158 291.5 c 128,-1,30
 170 275 170 275 170 250 c 2,31,-1
 170 17 l 2,32,33
 170 0 170 0 187 0 c 2,0,-1
EndSplineSet
EndChar

StartChar: bar
Encoding: 124 124 95
Width: 272
GlyphClass: 2
Flags: W
LayerCount: 2
Fore
SplineSet
90 -76 m 1,0,-1
 90 756 l 1,1,-1
 182 756 l 1,2,-1
 182 -76 l 1,3,-1
 90 -76 l 1,0,-1
EndSplineSet
EndChar

StartChar: braceright
Encoding: 125 125 96
Width: 277
GlyphClass: 2
Flags: W
LayerCount: 2
Fore
SplineSet
15 0 m 1,0,-1
 90 0 l 2,1,2
 107 0 107 0 107 17 c 2,3,-1
 107 250 l 2,4,5
 107 275 107 275 119 291.5 c 128,-1,6
 131 308 131 308 156 308 c 1,7,-1
 156 314 l 1,8,9
 131 314 131 314 119 330.5 c 128,-1,10
 107 347 107 347 107 372 c 2,11,-1
 107 605 l 2,12,13
 107 622 107 622 90 622 c 2,14,-1
 15 622 l 1,15,-1
 15 682 l 1,16,-1
 107 682 l 2,17,18
 137 682 137 682 162 665 c 128,-1,19
 187 648 187 648 187 602 c 2,20,-1
 187 383 l 2,21,22
 187 359 187 359 199.5 347.5 c 128,-1,23
 212 336 212 336 247 336 c 1,24,-1
 247 286 l 1,25,26
 212 286 212 286 199.5 274.5 c 128,-1,27
 187 263 187 263 187 239 c 2,28,-1
 187 20 l 2,29,30
 187 -26 187 -26 162 -43 c 128,-1,31
 137 -60 137 -60 107 -60 c 2,32,-1
 15 -60 l 1,33,-1
 15 0 l 1,0,-1
EndSplineSet
EndChar

StartChar: asciitilde
Encoding: 126 126 97
Width: 518
GlyphClass: 2
Flags: W
LayerCount: 2
Fore
SplineSet
353 248 m 0,0,1
 314 248 314 248 252.5 286.5 c 128,-1,2
 191 325 191 325 165 325 c 0,3,4
 129 325 129 325 98 269 c 1,5,-1
 42 300 l 1,6,7
 95 398 95 398 165 398 c 0,8,9
 204 398 204 398 265.5 359.5 c 128,-1,10
 327 321 327 321 353 321 c 0,11,12
 389 321 389 321 420 377 c 1,13,-1
 476 346 l 1,14,15
 423 248 423 248 353 248 c 0,0,1
EndSplineSet
EndChar

StartChar: exclamdown
Encoding: 161 161 98
Width: 270
GlyphClass: 2
Flags: W
LayerCount: 2
Fore
SplineSet
80 458 m 128,-1,1
 80 482 80 482 94 497.5 c 128,-1,2
 108 513 108 513 134.5 513 c 128,-1,3
 161 513 161 513 175.5 497.5 c 128,-1,4
 190 482 190 482 190 458 c 128,-1,5
 190 434 190 434 175.5 418.5 c 128,-1,6
 161 403 161 403 134.5 403 c 128,-1,7
 108 403 108 403 94 418.5 c 128,-1,0
 80 434 80 434 80 458 c 128,-1,1
92 -161 m 1,8,-1
 102 319 l 1,9,-1
 168 319 l 1,10,-1
 178 -161 l 1,11,-1
 92 -161 l 1,8,-1
EndSplineSet
EndChar

StartChar: cent
Encoding: 162 162 99
Width: 518
GlyphClass: 2
Flags: W
LayerCount: 2
Fore
SplineSet
123.5 136.5 m 128,-1,1
 75 199 75 199 75 310 c 128,-1,2
 75 421 75 421 130 496.5 c 128,-1,3
 185 572 185 572 284 582 c 1,4,-1
 293 705 l 1,5,-1
 346 705 l 1,6,-1
 337 583 l 1,7,8
 390 577 390 577 439 548 c 1,9,-1
 419 484 l 1,10,11
 375 507 375 507 332 512 c 1,12,-1
 306 127 l 1,13,14
 385 131 385 131 439 181 c 1,15,-1
 476 129 l 1,16,17
 403 59 403 59 301 56 c 1,18,-1
 291 -85 l 1,19,-1
 238 -85 l 1,20,-1
 248 60 l 1,21,0
 172 74 172 74 123.5 136.5 c 128,-1,1
154 314 m 0,22,23
 154 163 154 163 253 133 c 1,24,-1
 279 509 l 1,25,26
 221 496 221 496 187.5 443.5 c 128,-1,27
 154 391 154 391 154 314 c 0,22,23
EndSplineSet
EndChar

StartChar: sterling
Encoding: 163 163 100
Width: 518
GlyphClass: 2
Flags: W
LayerCount: 2
Fore
SplineSet
44 268 m 1,0,-1
 44 333 l 1,1,-1
 108 333 l 1,2,-1
 108 352 l 2,3,4
 108 499 108 499 166.5 567.5 c 128,-1,5
 225 636 225 636 326 636 c 0,6,7
 397 636 397 636 448 612 c 1,8,-1
 417 552 l 1,9,10
 376 571 376 571 318 571 c 0,11,12
 179 571 179 571 179 352 c 2,13,-1
 179 333 l 1,14,-1
 387 333 l 1,15,-1
 387 268 l 1,16,-1
 179 268 l 1,17,-1
 179 71 l 1,18,-1
 451 71 l 1,19,-1
 451 0 l 1,20,-1
 108 0 l 1,21,-1
 108 268 l 1,22,-1
 44 268 l 1,0,-1
EndSplineSet
EndChar

StartChar: currency
Encoding: 164 164 101
Width: 518
GlyphClass: 2
Flags: W
LayerCount: 2
Fore
SplineSet
113 212 m 1,0,1
 87 255 87 255 87 310.5 c 128,-1,2
 87 366 87 366 112 407 c 1,3,-1
 41 478 l 1,4,-1
 90 527 l 1,5,-1
 160 456 l 1,6,7
 202 482 202 482 257.5 482 c 128,-1,8
 313 482 313 482 355 456 c 1,9,-1
 427 528 l 1,10,-1
 476 479 l 1,11,-1
 404 407 l 1,12,13
 431 365 431 365 431 311 c 128,-1,14
 431 257 431 257 405 214 c 1,15,-1
 477 142 l 1,16,-1
 428 93 l 1,17,-1
 356 164 l 1,18,19
 314 138 314 138 257.5 138 c 128,-1,20
 201 138 201 138 162 163 c 1,21,-1
 91 92 l 1,22,-1
 42 141 l 1,23,-1
 113 212 l 1,0,1
151 310 m 128,-1,25
 151 263 151 263 179 232.5 c 128,-1,26
 207 202 207 202 258.5 202 c 128,-1,27
 310 202 310 202 338.5 233 c 128,-1,28
 367 264 367 264 367 310 c 128,-1,29
 367 356 367 356 338.5 387 c 128,-1,30
 310 418 310 418 258.5 418 c 128,-1,31
 207 418 207 418 179 387.5 c 128,-1,24
 151 357 151 357 151 310 c 128,-1,25
EndSplineSet
EndChar

StartChar: yen
Encoding: 165 165 102
Width: 518
GlyphClass: 2
Flags: W
LayerCount: 2
Fore
SplineSet
74 308 m 1,0,-1
 74 368 l 1,1,-1
 160 368 l 1,2,-1
 32 619 l 1,3,-1
 114 619 l 1,4,-1
 259 329 l 1,5,-1
 404 619 l 1,6,-1
 486 619 l 1,7,-1
 358 368 l 1,8,-1
 444 368 l 1,9,-1
 444 308 l 1,10,-1
 327 308 l 1,11,-1
 304 263 l 1,12,-1
 444 263 l 1,13,-1
 444 203 l 1,14,-1
 294 203 l 1,15,-1
 294 0 l 1,16,-1
 224 0 l 1,17,-1
 224 203 l 1,18,-1
 74 203 l 1,19,-1
 74 263 l 1,20,-1
 213 263 l 1,21,-1
 190 308 l 1,22,-1
 74 308 l 1,0,-1
EndSplineSet
EndChar

StartChar: brokenbar
Encoding: 166 166 103
Width: 272
GlyphClass: 2
Flags: W
LayerCount: 2
Fore
SplineSet
90 418 m 1,0,-1
 90 700 l 1,1,-1
 182 700 l 1,2,-1
 182 418 l 1,3,-1
 90 418 l 1,0,-1
90 -76 m 1,4,-1
 90 262 l 1,5,-1
 182 262 l 1,6,-1
 182 -76 l 1,7,-1
 90 -76 l 1,4,-1
EndSplineSet
EndChar

StartChar: section
Encoding: 167 167 104
Width: 412
GlyphClass: 2
Flags: W
LayerCount: 2
Fore
SplineSet
269 -38 m 128,-1,1
 302 -9 302 -9 302 39 c 128,-1,2
 302 87 302 87 282.5 112 c 128,-1,3
 263 137 263 137 232.5 151.5 c 128,-1,4
 202 166 202 166 170 181 c 128,-1,5
 138 196 138 196 109 226 c 128,-1,6
 80 256 80 256 67 300 c 1,7,-1
 74 308 l 1,8,-1
 183 256 l 2,9,10
 194 251 194 251 220.5 239 c 128,-1,11
 247 227 247 227 261 220 c 128,-1,12
 275 213 275 213 297 200 c 128,-1,13
 319 187 319 187 331.5 174 c 128,-1,14
 344 161 344 161 357 142 c 0,15,16
 382 107 382 107 382 48 c 0,17,18
 382 -41 382 -41 325.5 -87.5 c 128,-1,19
 269 -134 269 -134 195 -134 c 0,20,21
 97 -134 97 -134 30 -87 c 1,22,-1
 62 -29 l 1,23,24
 121 -67 121 -67 178.5 -67 c 128,-1,0
 236 -67 236 -67 269 -38 c 128,-1,1
145 598 m 128,-1,26
 112 569 112 569 112 521 c 128,-1,27
 112 473 112 473 131.5 448 c 128,-1,28
 151 423 151 423 181.5 408.5 c 128,-1,29
 212 394 212 394 244 379 c 128,-1,30
 276 364 276 364 305 334 c 128,-1,31
 334 304 334 304 347 260 c 1,32,-1
 340 252 l 1,33,-1
 231 304 l 2,34,35
 220 309 220 309 193.5 321 c 128,-1,36
 167 333 167 333 153 340 c 128,-1,37
 139 347 139 347 117 360 c 128,-1,38
 95 373 95 373 82.5 386 c 128,-1,39
 70 399 70 399 57 418 c 0,40,41
 32 453 32 453 32 512 c 0,42,43
 32 601 32 601 88.5 647.5 c 128,-1,44
 145 694 145 694 226 694 c 128,-1,45
 307 694 307 694 374 647 c 1,46,-1
 342 589 l 1,47,48
 283 627 283 627 230.5 627 c 128,-1,25
 178 627 178 627 145 598 c 128,-1,26
EndSplineSet
EndChar

StartChar: dieresis
Encoding: 168 168 105
Width: 370
GlyphClass: 2
Flags: W
LayerCount: 2
Fore
SplineSet
226 644 m 128,-1,1
 226 665 226 665 238 678.5 c 128,-1,2
 250 692 250 692 273 692 c 128,-1,3
 296 692 296 692 309 678 c 128,-1,4
 322 664 322 664 322 644 c 128,-1,5
 322 624 322 624 309 610 c 128,-1,6
 296 596 296 596 273 596 c 128,-1,7
 250 596 250 596 238 609.5 c 128,-1,0
 226 623 226 623 226 644 c 128,-1,1
48 644 m 128,-1,9
 48 665 48 665 60 678.5 c 128,-1,10
 72 692 72 692 95 692 c 128,-1,11
 118 692 118 692 131 678 c 128,-1,12
 144 664 144 664 144 644 c 128,-1,13
 144 624 144 624 131 610 c 128,-1,14
 118 596 118 596 95 596 c 128,-1,15
 72 596 72 596 60 609.5 c 128,-1,8
 48 623 48 623 48 644 c 128,-1,9
EndSplineSet
EndChar

StartChar: copyright
Encoding: 169 169 106
Width: 642
GlyphClass: 2
Flags: W
LayerCount: 2
Fore
SplineSet
35 529 m 128,-1,1
 35 652 35 652 109 733.5 c 128,-1,2
 183 815 183 815 318.5 815 c 128,-1,3
 454 815 454 815 530.5 732.5 c 128,-1,4
 607 650 607 650 607 529 c 128,-1,5
 607 408 607 408 530.5 325.5 c 128,-1,6
 454 243 454 243 318.5 243 c 128,-1,7
 183 243 183 243 109 324.5 c 128,-1,0
 35 406 35 406 35 529 c 128,-1,1
85 529 m 128,-1,9
 85 427 85 427 146 359 c 128,-1,10
 207 291 207 291 319 291 c 128,-1,11
 431 291 431 291 494 359.5 c 128,-1,12
 557 428 557 428 557 529 c 128,-1,13
 557 630 557 630 494 698.5 c 128,-1,14
 431 767 431 767 319 767 c 128,-1,15
 207 767 207 767 146 699 c 128,-1,8
 85 631 85 631 85 529 c 128,-1,9
435 390 m 1,16,17
 384 352 384 352 323 352 c 128,-1,18
 262 352 262 352 218.5 396 c 128,-1,19
 175 440 175 440 175 524 c 128,-1,20
 175 608 175 608 217.5 660.5 c 128,-1,21
 260 713 260 713 336 713 c 0,22,23
 384 713 384 713 425 687 c 1,24,-1
 411 634 l 1,25,26
 373 660 373 660 330 660 c 128,-1,27
 287 660 287 660 259 622 c 128,-1,28
 231 584 231 584 231 524.5 c 128,-1,29
 231 465 231 465 258.5 435 c 128,-1,30
 286 405 286 405 330.5 405 c 128,-1,31
 375 405 375 405 410 433 c 1,32,-1
 435 390 l 1,16,17
EndSplineSet
EndChar

StartChar: ordfeminine
Encoding: 170 170 107
Width: 355
GlyphClass: 2
Flags: W
LayerCount: 2
Fore
SplineSet
240 506 m 1,0,1
 208 452 208 452 153.5 452 c 128,-1,2
 99 452 99 452 64.5 492 c 128,-1,3
 30 532 30 532 30 606.5 c 128,-1,4
 30 681 30 681 73 727.5 c 128,-1,5
 116 774 116 774 179.5 774 c 128,-1,6
 243 774 243 774 296 737 c 1,7,-1
 296 527 l 1,8,-1
 303 461 l 1,9,-1
 248 456 l 1,10,-1
 240 506 l 1,0,1
111.5 532.5 m 128,-1,12
 131 507 131 507 161.5 507 c 128,-1,13
 192 507 192 507 213.5 539.5 c 128,-1,14
 235 572 235 572 235 632 c 2,15,-1
 235 708 l 1,16,17
 209 720 209 720 176 720 c 128,-1,18
 143 720 143 720 117.5 688.5 c 128,-1,19
 92 657 92 657 92 607.5 c 128,-1,11
 92 558 92 558 111.5 532.5 c 128,-1,12
EndSplineSet
EndChar

StartChar: guillemotleft
Encoding: 171 171 108
Width: 377
GlyphClass: 2
Flags: W
LayerCount: 2
Fore
SplineSet
189 242 m 128,-1,1
 189 265 189 265 211 290 c 2,2,-1
 316 414 l 1,3,-1
 347 399 l 1,4,-1
 282 242 l 1,5,-1
 347 85 l 1,6,-1
 316 70 l 1,7,-1
 211 194 l 2,8,0
 189 219 189 219 189 242 c 128,-1,1
30 242 m 128,-1,10
 30 265 30 265 52 290 c 2,11,-1
 157 414 l 1,12,-1
 188 399 l 1,13,-1
 123 242 l 1,14,-1
 188 85 l 1,15,-1
 157 70 l 1,16,-1
 52 194 l 2,17,9
 30 219 30 219 30 242 c 128,-1,10
EndSplineSet
EndChar

StartChar: logicalnot
Encoding: 172 172 109
Width: 518
GlyphClass: 2
Flags: W
LayerCount: 2
Fore
SplineSet
47 275 m 1,0,-1
 47 347 l 1,1,-1
 471 347 l 1,2,-1
 471 147 l 1,3,-1
 403 147 l 1,4,-1
 403 275 l 1,5,-1
 47 275 l 1,0,-1
EndSplineSet
EndChar

StartChar: registered
Encoding: 174 174 110
Width: 642
GlyphClass: 2
Flags: W
LayerCount: 2
Fore
SplineSet
35 529 m 128,-1,1
 35 652 35 652 109 733.5 c 128,-1,2
 183 815 183 815 318.5 815 c 128,-1,3
 454 815 454 815 530.5 732.5 c 128,-1,4
 607 650 607 650 607 529 c 128,-1,5
 607 408 607 408 530.5 325.5 c 128,-1,6
 454 243 454 243 318.5 243 c 128,-1,7
 183 243 183 243 109 324.5 c 128,-1,0
 35 406 35 406 35 529 c 128,-1,1
85 529 m 128,-1,9
 85 427 85 427 146 359 c 128,-1,10
 207 291 207 291 319 291 c 128,-1,11
 431 291 431 291 494 359.5 c 128,-1,12
 557 428 557 428 557 529 c 128,-1,13
 557 630 557 630 494 698.5 c 128,-1,14
 431 767 431 767 319 767 c 128,-1,15
 207 767 207 767 146 699 c 128,-1,8
 85 631 85 631 85 529 c 128,-1,9
343 501 m 2,16,-1
 272 501 l 1,17,-1
 272 360 l 1,18,-1
 215 360 l 1,19,-1
 215 705 l 1,20,-1
 345 705 l 2,21,22
 388 705 388 705 418 675 c 128,-1,23
 448 645 448 645 448 602 c 0,24,25
 448 546 448 546 401 517 c 1,26,27
 408 511 408 511 414 497 c 2,28,-1
 463 367 l 1,29,-1
 411 349 l 1,30,-1
 359 485 l 2,31,32
 353 501 353 501 343 501 c 2,16,-1
343 654 m 2,33,-1
 272 654 l 1,34,-1
 272 550 l 1,35,-1
 343 550 l 2,36,37
 363 550 363 550 377.5 565.5 c 128,-1,38
 392 581 392 581 392 602.5 c 128,-1,39
 392 624 392 624 377.5 639 c 128,-1,40
 363 654 363 654 343 654 c 2,33,-1
EndSplineSet
EndChar

StartChar: macron
Encoding: 175 175 111
Width: 417
GlyphClass: 2
Flags: W
LayerCount: 2
Fore
SplineSet
73 605 m 1,0,-1
 73 677 l 1,1,-1
 344 677 l 1,2,-1
 344 605 l 1,3,-1
 73 605 l 1,0,-1
EndSplineSet
EndChar

StartChar: degree
Encoding: 176 176 112
Width: 252
GlyphClass: 2
Flags: W
LayerCount: 2
Fore
SplineSet
10 555 m 128,-1,1
 10 605 10 605 40 638 c 128,-1,2
 70 671 70 671 125.5 671 c 128,-1,3
 181 671 181 671 211.5 638 c 128,-1,4
 242 605 242 605 242 555 c 128,-1,5
 242 505 242 505 211.5 472 c 128,-1,6
 181 439 181 439 125.5 439 c 128,-1,7
 70 439 70 439 40 472 c 128,-1,0
 10 505 10 505 10 555 c 128,-1,1
125 495 m 128,-1,9
 151 495 151 495 168 510.5 c 128,-1,10
 185 526 185 526 185 554.5 c 128,-1,11
 185 583 185 583 167.5 598.5 c 128,-1,12
 150 614 150 614 125 614 c 128,-1,13
 100 614 100 614 83 598.5 c 128,-1,14
 66 583 66 583 66 554.5 c 128,-1,15
 66 526 66 526 82.5 510.5 c 128,-1,8
 99 495 99 495 125 495 c 128,-1,9
EndSplineSet
EndChar

StartChar: plusminus
Encoding: 177 177 113
Width: 518
GlyphClass: 2
Flags: W
LayerCount: 2
Fore
SplineSet
47 275 m 1,0,-1
 47 347 l 1,1,-1
 223 347 l 1,2,-1
 223 523 l 1,3,-1
 295 523 l 1,4,-1
 295 347 l 1,5,-1
 471 347 l 1,6,-1
 471 275 l 1,7,-1
 295 275 l 1,8,-1
 295 99 l 1,9,-1
 223 99 l 1,10,-1
 223 275 l 1,11,-1
 47 275 l 1,0,-1
47 -48 m 1,12,-1
 47 24 l 1,13,-1
 471 24 l 1,14,-1
 471 -48 l 1,15,-1
 47 -48 l 1,12,-1
EndSplineSet
EndChar

StartChar: twosuperior
Encoding: 178 178 114
Width: 331
GlyphClass: 2
Flags: W
LayerCount: 2
Fore
SplineSet
208 524 m 0,0,1
 208 545 208 545 192 558.5 c 128,-1,2
 176 572 176 572 151 572 c 128,-1,3
 126 572 126 572 107 566 c 0,4,5
 73 554 73 554 66 543 c 1,6,-1
 39 597 l 1,7,8
 91 630 91 630 149 630 c 128,-1,9
 207 630 207 630 239.5 599.5 c 128,-1,10
 272 569 272 569 272 520 c 128,-1,11
 272 471 272 471 215 405 c 2,12,-1
 125 301 l 1,13,-1
 276 301 l 1,14,-1
 276 244 l 1,15,-1
 34 244 l 1,16,-1
 34 291 l 1,17,-1
 163 438 l 2,18,19
 208 490 208 490 208 524 c 0,0,1
EndSplineSet
EndChar

StartChar: threesuperior
Encoding: 179 179 115
Width: 331
GlyphClass: 2
Flags: W
LayerCount: 2
Fore
SplineSet
54 315 m 1,0,1
 91 291 91 291 133 291 c 128,-1,2
 175 291 175 291 195.5 309 c 128,-1,3
 216 327 216 327 216 351.5 c 128,-1,4
 216 376 216 376 199.5 391.5 c 128,-1,5
 183 407 183 407 149 407 c 2,6,-1
 85 407 l 1,7,-1
 85 462 l 1,8,-1
 115 462 l 2,9,10
 166 462 166 462 187 481.5 c 128,-1,11
 208 501 208 501 208 523 c 128,-1,12
 208 545 208 545 192 558.5 c 128,-1,13
 176 572 176 572 138.5 572 c 128,-1,14
 101 572 101 572 66 543 c 1,15,-1
 39 597 l 1,16,17
 91 630 91 630 148.5 630 c 128,-1,18
 206 630 206 630 237.5 599.5 c 128,-1,19
 269 569 269 569 269 522 c 0,20,21
 269 499 269 499 255.5 476 c 128,-1,22
 242 453 242 453 215 443 c 1,23,24
 243 434 243 434 260.5 407.5 c 128,-1,25
 278 381 278 381 278 354 c 0,26,27
 278 305 278 305 240.5 269.5 c 128,-1,28
 203 234 203 234 138.5 234 c 128,-1,29
 74 234 74 234 28 264 c 1,30,-1
 54 315 l 1,0,1
EndSplineSet
EndChar

StartChar: acute
Encoding: 180 180 116
Width: 210
GlyphClass: 2
Flags: W
LayerCount: 2
Fore
SplineSet
195 735 m 0,0,1
 227 735 227 735 245 682 c 1,2,-1
 65 535 l 1,3,-1
 41 560 l 1,4,-1
 143 700 l 2,5,6
 169 735 169 735 195 735 c 0,0,1
EndSplineSet
EndChar

StartChar: mu
Encoding: 181 181 117
Width: 569
GlyphClass: 2
Flags: W
LayerCount: 2
Fore
SplineSet
75 500 m 1,0,-1
 151 500 l 1,1,-1
 151 196 l 2,2,3
 151 54 151 54 252 54 c 0,4,5
 310 54 310 54 357.5 113.5 c 128,-1,6
 405 173 405 173 408 278 c 1,7,-1
 408 500 l 1,8,-1
 484 500 l 1,9,-1
 484 0 l 1,10,-1
 428 -5 l 1,11,-1
 408 98 l 1,12,13
 378 44 378 44 332 15 c 128,-1,14
 286 -14 286 -14 239 -14 c 0,15,16
 169 -14 169 -14 136 32 c 1,17,-1
 128 -204 l 1,18,-1
 75 -204 l 1,19,-1
 75 500 l 1,0,-1
EndSplineSet
EndChar

StartChar: paragraph
Encoding: 182 182 118
Width: 469
GlyphClass: 2
Flags: W
LayerCount: 2
Fore
SplineSet
258 -225 m 1,0,-1
 217 -225 l 1,1,-1
 217 316 l 1,2,3
 208 315 208 315 189 315 c 0,4,5
 110 315 110 315 55 370 c 128,-1,6
 0 425 0 425 0 504 c 128,-1,7
 0 583 0 583 55 638.5 c 128,-1,8
 110 694 110 694 189 694 c 128,-1,9
 268 694 268 694 323.5 638.5 c 128,-1,10
 379 583 379 583 379 504 c 2,11,-1
 379 -225 l 1,12,-1
 303 -225 l 1,13,-1
 303 504 l 1,14,-1
 258 504 l 1,15,-1
 258 -225 l 1,0,-1
EndSplineSet
EndChar

StartChar: periodcentered
Encoding: 183 183 119
Width: 210
GlyphClass: 2
Flags: W
LayerCount: 2
Fore
SplineSet
50 287 m 128,-1,1
 50 311 50 311 64 326.5 c 128,-1,2
 78 342 78 342 104.5 342 c 128,-1,3
 131 342 131 342 145.5 326.5 c 128,-1,4
 160 311 160 311 160 287 c 128,-1,5
 160 263 160 263 145.5 247.5 c 128,-1,6
 131 232 131 232 104.5 232 c 128,-1,7
 78 232 78 232 64 247.5 c 128,-1,0
 50 263 50 263 50 287 c 128,-1,1
EndSplineSet
EndChar

StartChar: cedilla
Encoding: 184 184 120
Width: 381
GlyphClass: 2
Flags: W
LayerCount: 2
Fore
SplineSet
163 -88 m 2,0,-1
 139 -88 l 1,1,-1
 158 0 l 1,2,-1
 207 0 l 1,3,-1
 196 -50 l 1,4,5
 243 -50 243 -50 262 -73 c 128,-1,6
 281 -96 281 -96 281 -126.5 c 128,-1,7
 281 -157 281 -157 255 -180.5 c 128,-1,8
 229 -204 229 -204 177 -204 c 0,9,10
 155 -204 155 -204 134.5 -197 c 128,-1,11
 114 -190 114 -190 104 -184 c 1,12,-1
 95 -177 l 1,13,-1
 118 -136 l 1,14,15
 142 -153 142 -153 168 -153 c 128,-1,16
 194 -153 194 -153 206.5 -143 c 128,-1,17
 219 -133 219 -133 219 -118 c 0,18,19
 219 -88 219 -88 163 -88 c 2,0,-1
EndSplineSet
EndChar

StartChar: onesuperior
Encoding: 185 185 121
Width: 331
GlyphClass: 2
Flags: W
LayerCount: 2
Fore
SplineSet
143 554 m 1,0,-1
 66 532 l 1,1,-1
 51 589 l 1,2,-1
 149 620 l 1,3,-1
 207 620 l 1,4,-1
 207 301 l 1,5,-1
 272 301 l 1,6,-1
 272 244 l 1,7,-1
 69 244 l 1,8,-1
 69 301 l 1,9,-1
 143 301 l 1,10,-1
 143 554 l 1,0,-1
EndSplineSet
EndChar

StartChar: ordmasculine
Encoding: 186 186 122
Width: 344
GlyphClass: 2
Flags: W
LayerCount: 2
Fore
SplineSet
35 613 m 128,-1,1
 35 684 35 684 69 729 c 128,-1,2
 103 774 103 774 171 774 c 128,-1,3
 239 774 239 774 274 729 c 128,-1,4
 309 684 309 684 309 613 c 128,-1,5
 309 542 309 542 274 497 c 128,-1,6
 239 452 239 452 171 452 c 128,-1,7
 103 452 103 452 69 497 c 128,-1,0
 35 542 35 542 35 613 c 128,-1,1
97 613 m 128,-1,9
 97 565 97 565 115 536 c 128,-1,10
 133 507 133 507 171 507 c 128,-1,11
 209 507 209 507 228 536.5 c 128,-1,12
 247 566 247 566 247 613.5 c 128,-1,13
 247 661 247 661 228 690.5 c 128,-1,14
 209 720 209 720 171 720 c 128,-1,15
 133 720 133 720 115 690.5 c 128,-1,8
 97 661 97 661 97 613 c 128,-1,9
EndSplineSet
EndChar

StartChar: guillemotright
Encoding: 187 187 123
Width: 377
GlyphClass: 2
Flags: W
LayerCount: 2
Fore
SplineSet
347 242 m 128,-1,1
 347 219 347 219 325 194 c 2,2,-1
 220 70 l 1,3,-1
 189 85 l 1,4,-1
 254 242 l 1,5,-1
 189 399 l 1,6,-1
 220 414 l 1,7,-1
 325 290 l 2,8,0
 347 265 347 265 347 242 c 128,-1,1
188 242 m 128,-1,10
 188 219 188 219 166 194 c 2,11,-1
 61 70 l 1,12,-1
 30 85 l 1,13,-1
 95 242 l 1,14,-1
 30 399 l 1,15,-1
 61 414 l 1,16,-1
 166 290 l 2,17,9
 188 265 188 265 188 242 c 128,-1,10
EndSplineSet
EndChar

StartChar: onequarter
Encoding: 188 188 124
Width: 780
GlyphClass: 2
Flags: W
LayerCount: 2
Fore
SplineSet
162 554 m 1,0,-1
 85 532 l 1,1,-1
 70 589 l 1,2,-1
 168 620 l 1,3,-1
 226 620 l 1,4,-1
 226 301 l 1,5,-1
 291 301 l 1,6,-1
 291 244 l 1,7,-1
 88 244 l 1,8,-1
 88 301 l 1,9,-1
 162 301 l 1,10,-1
 162 554 l 1,0,-1
625 136 m 1,11,-1
 625 273 l 1,12,-1
 688 273 l 1,13,-1
 688 136 l 1,14,-1
 719 136 l 1,15,-1
 719 78 l 1,16,-1
 688 78 l 1,17,-1
 688 -4 l 1,18,-1
 625 -4 l 1,19,-1
 625 78 l 1,20,-1
 452 78 l 1,21,-1
 452 111 l 1,22,-1
 559 372 l 1,23,-1
 626 372 l 1,24,-1
 529 136 l 1,25,-1
 625 136 l 1,11,-1
261 0 m 1,26,-1
 469 620 l 1,27,-1
 527 620 l 1,28,-1
 319 0 l 1,29,-1
 261 0 l 1,26,-1
EndSplineSet
EndChar

StartChar: onehalf
Encoding: 189 189 125
Width: 780
GlyphClass: 2
Flags: W
LayerCount: 2
Fore
SplineSet
162 554 m 1,0,-1
 85 532 l 1,1,-1
 70 589 l 1,2,-1
 168 620 l 1,3,-1
 226 620 l 1,4,-1
 226 301 l 1,5,-1
 291 301 l 1,6,-1
 291 244 l 1,7,-1
 88 244 l 1,8,-1
 88 301 l 1,9,-1
 162 301 l 1,10,-1
 162 554 l 1,0,-1
652 280 m 0,11,12
 652 301 652 301 636 314.5 c 128,-1,13
 620 328 620 328 595 328 c 128,-1,14
 570 328 570 328 551 322 c 0,15,16
 517 310 517 310 510 299 c 1,17,-1
 483 353 l 1,18,19
 535 386 535 386 593 386 c 128,-1,20
 651 386 651 386 683.5 355.5 c 128,-1,21
 716 325 716 325 716 276 c 128,-1,22
 716 227 716 227 659 161 c 2,23,-1
 569 57 l 1,24,-1
 720 57 l 1,25,-1
 720 0 l 1,26,-1
 478 0 l 1,27,-1
 478 47 l 1,28,-1
 607 194 l 2,29,30
 652 246 652 246 652 280 c 0,11,12
255 0 m 1,31,-1
 463 620 l 1,32,-1
 521 620 l 1,33,-1
 313 0 l 1,34,-1
 255 0 l 1,31,-1
EndSplineSet
EndChar

StartChar: threequarters
Encoding: 190 190 126
Width: 780
GlyphClass: 2
Flags: W
LayerCount: 2
Fore
SplineSet
73 315 m 1,0,1
 110 291 110 291 152 291 c 128,-1,2
 194 291 194 291 214.5 309 c 128,-1,3
 235 327 235 327 235 351.5 c 128,-1,4
 235 376 235 376 218.5 391.5 c 128,-1,5
 202 407 202 407 168 407 c 2,6,-1
 104 407 l 1,7,-1
 104 462 l 1,8,-1
 134 462 l 2,9,10
 185 462 185 462 206 481.5 c 128,-1,11
 227 501 227 501 227 523 c 128,-1,12
 227 545 227 545 211 558.5 c 128,-1,13
 195 572 195 572 157.5 572 c 128,-1,14
 120 572 120 572 85 543 c 1,15,-1
 58 597 l 1,16,17
 110 630 110 630 167.5 630 c 128,-1,18
 225 630 225 630 256.5 599.5 c 128,-1,19
 288 569 288 569 288 522 c 0,20,21
 288 499 288 499 274.5 476 c 128,-1,22
 261 453 261 453 234 443 c 1,23,24
 262 434 262 434 279.5 407.5 c 128,-1,25
 297 381 297 381 297 354 c 0,26,27
 297 305 297 305 259.5 269.5 c 128,-1,28
 222 234 222 234 157.5 234 c 128,-1,29
 93 234 93 234 47 264 c 1,30,-1
 73 315 l 1,0,1
625 136 m 1,31,-1
 625 273 l 1,32,-1
 688 273 l 1,33,-1
 688 136 l 1,34,-1
 719 136 l 1,35,-1
 719 78 l 1,36,-1
 688 78 l 1,37,-1
 688 -4 l 1,38,-1
 625 -4 l 1,39,-1
 625 78 l 1,40,-1
 452 78 l 1,41,-1
 452 111 l 1,42,-1
 559 372 l 1,43,-1
 626 372 l 1,44,-1
 529 136 l 1,45,-1
 625 136 l 1,31,-1
261 0 m 1,46,-1
 469 620 l 1,47,-1
 527 620 l 1,48,-1
 319 0 l 1,49,-1
 261 0 l 1,46,-1
EndSplineSet
EndChar

StartChar: questiondown
Encoding: 191 191 127
Width: 354
GlyphClass: 2
Flags: W
LayerCount: 2
Fore
SplineSet
179 320 m 1,0,-1
 249 320 l 1,1,-1
 249 253 l 2,2,3
 249 205 249 205 231 167.5 c 128,-1,4
 213 130 213 130 195 114 c 128,-1,5
 177 98 177 98 148 76.5 c 128,-1,6
 119 55 119 55 108.5 45.5 c 128,-1,7
 98 36 98 36 87 17 c 128,-1,8
 76 -2 76 -2 76 -25 c 0,9,10
 76 -64 76 -64 106 -84 c 128,-1,11
 136 -104 136 -104 182 -104 c 0,12,13
 262 -104 262 -104 312 -52 c 1,14,-1
 354 -108 l 1,15,16
 283 -174 283 -174 179 -174 c 0,17,18
 103 -174 103 -174 51.5 -135.5 c 128,-1,19
 0 -97 0 -97 0 -25 c 0,20,21
 0 13 0 13 16.5 44 c 128,-1,22
 33 75 33 75 49.5 90 c 128,-1,23
 66 105 66 105 94.5 125 c 128,-1,24
 123 145 123 145 137.5 158 c 128,-1,25
 152 171 152 171 165.5 197 c 128,-1,26
 179 223 179 223 179 253 c 2,27,-1
 179 320 l 1,0,-1
269 459 m 128,-1,29
 269 435 269 435 255 419.5 c 128,-1,30
 241 404 241 404 214.5 404 c 128,-1,31
 188 404 188 404 173.5 419.5 c 128,-1,32
 159 435 159 435 159 459 c 128,-1,33
 159 483 159 483 173.5 498.5 c 128,-1,34
 188 514 188 514 214.5 514 c 128,-1,35
 241 514 241 514 255 498.5 c 128,-1,28
 269 483 269 483 269 459 c 128,-1,29
EndSplineSet
EndChar

StartChar: Agrave
Encoding: 192 192 128
Width: 556
GlyphClass: 2
Flags: W
LayerCount: 2
Fore
SplineSet
327 680 m 1,0,-1
 556 0 l 1,1,-1
 473 0 l 1,2,-1
 407 200 l 1,3,-1
 149 200 l 1,4,-1
 83 0 l 1,5,-1
 0 0 l 1,6,-1
 229 680 l 1,7,-1
 327 680 l 1,0,-1
278 592 m 1,8,-1
 172 272 l 1,9,-1
 383 272 l 1,10,-1
 278 592 l 1,8,-1
223 915 m 0,11,12
 249 915 249 915 275 880 c 2,13,-1
 377 740 l 1,14,-1
 353 715 l 1,15,-1
 173 862 l 1,16,17
 191 915 191 915 223 915 c 0,11,12
EndSplineSet
EndChar

StartChar: Aacute
Encoding: 193 193 129
Width: 556
GlyphClass: 2
Flags: W
LayerCount: 2
Fore
SplineSet
327 680 m 1,0,-1
 556 0 l 1,1,-1
 473 0 l 1,2,-1
 407 200 l 1,3,-1
 149 200 l 1,4,-1
 83 0 l 1,5,-1
 0 0 l 1,6,-1
 229 680 l 1,7,-1
 327 680 l 1,0,-1
278 592 m 1,8,-1
 172 272 l 1,9,-1
 383 272 l 1,10,-1
 278 592 l 1,8,-1
333 915 m 0,11,12
 365 915 365 915 383 862 c 1,13,-1
 203 715 l 1,14,-1
 179 740 l 1,15,-1
 281 880 l 2,16,17
 307 915 307 915 333 915 c 0,11,12
EndSplineSet
EndChar

StartChar: Acircumflex
Encoding: 194 194 130
Width: 556
GlyphClass: 2
Flags: W
LayerCount: 2
Fore
SplineSet
327 680 m 1,0,-1
 556 0 l 1,1,-1
 473 0 l 1,2,-1
 407 200 l 1,3,-1
 149 200 l 1,4,-1
 83 0 l 1,5,-1
 0 0 l 1,6,-1
 229 680 l 1,7,-1
 327 680 l 1,0,-1
278 592 m 1,8,-1
 172 272 l 1,9,-1
 383 272 l 1,10,-1
 278 592 l 1,8,-1
234 879 m 2,11,12
 253 907 253 907 277.5 907 c 128,-1,13
 302 907 302 907 322 879 c 2,14,-1
 419 742 l 1,15,-1
 395 717 l 1,16,-1
 278 824 l 1,17,-1
 161 717 l 1,18,-1
 137 742 l 1,19,-1
 234 879 l 2,11,12
EndSplineSet
EndChar

StartChar: Atilde
Encoding: 195 195 131
Width: 556
GlyphClass: 2
Flags: W
LayerCount: 2
Fore
SplineSet
327 680 m 1,0,-1
 556 0 l 1,1,-1
 473 0 l 1,2,-1
 407 200 l 1,3,-1
 149 200 l 1,4,-1
 83 0 l 1,5,-1
 0 0 l 1,6,-1
 229 680 l 1,7,-1
 327 680 l 1,0,-1
278 592 m 1,8,-1
 172 272 l 1,9,-1
 383 272 l 1,10,-1
 278 592 l 1,8,-1
345 770 m 0,11,12
 320 770 320 770 276.5 785 c 128,-1,13
 233 800 233 800 213 800 c 0,14,15
 173 800 173 800 166 756 c 1,16,-1
 119 764 l 1,17,18
 137 872 137 872 206 872 c 0,19,20
 232 872 232 872 277 857 c 128,-1,21
 322 842 322 842 342 842 c 0,22,23
 382 842 382 842 389 886 c 1,24,-1
 436 878 l 1,25,26
 417 770 417 770 345 770 c 0,11,12
EndSplineSet
EndChar

StartChar: Adieresis
Encoding: 196 196 132
Width: 556
GlyphClass: 2
Flags: W
LayerCount: 2
Fore
SplineSet
473 0 m 1,0,-1
 407 200 l 1,1,-1
 149 200 l 1,2,-1
 83 0 l 1,3,-1
 0 0 l 1,4,-1
 229 680 l 1,5,-1
 327 680 l 1,6,-1
 556 0 l 1,7,-1
 473 0 l 1,0,-1
278 592 m 1,8,-1
 172 272 l 1,9,-1
 383 272 l 1,10,-1
 278 592 l 1,8,-1
319 824 m 128,-1,12
 319 845 319 845 331 858.5 c 128,-1,13
 343 872 343 872 366 872 c 128,-1,14
 389 872 389 872 402 858 c 128,-1,15
 415 844 415 844 415 824 c 128,-1,16
 415 804 415 804 402 790 c 128,-1,17
 389 776 389 776 366 776 c 128,-1,18
 343 776 343 776 331 789.5 c 128,-1,11
 319 803 319 803 319 824 c 128,-1,12
141 824 m 128,-1,20
 141 845 141 845 153 858.5 c 128,-1,21
 165 872 165 872 188 872 c 128,-1,22
 211 872 211 872 224 858 c 128,-1,23
 237 844 237 844 237 824 c 128,-1,24
 237 804 237 804 224 790 c 128,-1,25
 211 776 211 776 188 776 c 128,-1,26
 165 776 165 776 153 789.5 c 128,-1,19
 141 803 141 803 141 824 c 128,-1,20
EndSplineSet
EndChar

StartChar: Aring
Encoding: 197 197 133
Width: 556
GlyphClass: 2
Flags: W
LayerCount: 2
Fore
SplineSet
327 680 m 1,0,-1
 556 0 l 1,1,-1
 473 0 l 1,2,-1
 407 200 l 1,3,-1
 149 200 l 1,4,-1
 83 0 l 1,5,-1
 0 0 l 1,6,-1
 229 680 l 1,7,-1
 327 680 l 1,0,-1
278 592 m 1,8,-1
 172 272 l 1,9,-1
 383 272 l 1,10,-1
 278 592 l 1,8,-1
177 818 m 128,-1,12
 177 862 177 862 203 890.5 c 128,-1,13
 229 919 229 919 277.5 919 c 128,-1,14
 326 919 326 919 352.5 890 c 128,-1,15
 379 861 379 861 379 818 c 128,-1,16
 379 775 379 775 352.5 746 c 128,-1,17
 326 717 326 717 277.5 717 c 128,-1,18
 229 717 229 717 203 745.5 c 128,-1,11
 177 774 177 774 177 818 c 128,-1,12
228 818 m 128,-1,20
 228 796 228 796 241 782 c 128,-1,21
 254 768 254 768 277.5 768 c 128,-1,22
 301 768 301 768 314.5 782.5 c 128,-1,23
 328 797 328 797 328 818 c 128,-1,24
 328 839 328 839 314.5 853.5 c 128,-1,25
 301 868 301 868 277.5 868 c 128,-1,26
 254 868 254 868 241 854 c 128,-1,19
 228 840 228 840 228 818 c 128,-1,20
EndSplineSet
EndChar

StartChar: AE
Encoding: 198 198 134
Width: 759
GlyphClass: 2
Flags: W
LayerCount: 2
Fore
SplineSet
724 0 m 1,0,-1
 425 0 l 1,1,-1
 373 272 l 1,2,-1
 172 272 l 1,3,-1
 83 0 l 1,4,-1
 0 0 l 1,5,-1
 229 680 l 1,6,-1
 684 680 l 1,7,-1
 684 608 l 1,8,-1
 387 608 l 1,9,-1
 439 344 l 1,10,-1
 669 344 l 1,11,-1
 669 272 l 1,12,-1
 453 272 l 1,13,-1
 492 72 l 1,14,-1
 724 72 l 1,15,-1
 724 0 l 1,0,-1
283 608 m 1,16,-1
 196 344 l 1,17,-1
 359 344 l 1,18,-1
 309 608 l 1,19,-1
 283 608 l 1,16,-1
EndSplineSet
EndChar

StartChar: Ccedilla
Encoding: 199 199 135
Width: 559
GlyphClass: 2
Flags: W
LayerCount: 2
Fore
SplineSet
254 -88 m 2,0,-1
 230 -88 l 1,1,-1
 248 -1 l 1,2,3
 154 31 154 31 107 121.5 c 128,-1,4
 60 212 60 212 60 340 c 0,5,6
 60 498 60 498 131.5 597 c 128,-1,7
 203 696 203 696 346 696 c 0,8,9
 440 696 440 696 517 649 c 1,10,-1
 489 582 l 1,11,12
 423 623 423 623 346 623 c 0,13,14
 243 623 243 623 191.5 544.5 c 128,-1,15
 140 466 140 466 140 340 c 128,-1,16
 140 214 140 214 191.5 135.5 c 128,-1,17
 243 57 243 57 346 57 c 0,18,19
 431 57 431 57 499 99 c 1,20,-1
 534 37 l 1,21,22
 448 -16 448 -16 346 -16 c 0,23,24
 316 -16 316 -16 295 -12 c 1,25,-1
 287 -50 l 1,26,27
 334 -50 334 -50 353 -73 c 128,-1,28
 372 -96 372 -96 372 -126.5 c 128,-1,29
 372 -157 372 -157 346 -180.5 c 128,-1,30
 320 -204 320 -204 268 -204 c 0,31,32
 246 -204 246 -204 225.5 -197 c 128,-1,33
 205 -190 205 -190 196 -184 c 2,34,-1
 186 -177 l 1,35,-1
 209 -136 l 1,36,37
 233 -153 233 -153 259 -153 c 128,-1,38
 285 -153 285 -153 297.5 -143 c 128,-1,39
 310 -133 310 -133 310 -118 c 0,40,41
 310 -88 310 -88 254 -88 c 2,0,-1
EndSplineSet
EndChar

StartChar: Egrave
Encoding: 200 200 136
Width: 510
GlyphClass: 2
Flags: W
LayerCount: 2
Fore
SplineSet
78 0 m 1,0,-1
 78 680 l 1,1,-1
 448 680 l 1,2,-1
 448 608 l 1,3,-1
 158 608 l 1,4,-1
 158 376 l 1,5,-1
 395 376 l 1,6,-1
 395 304 l 1,7,-1
 158 304 l 1,8,-1
 158 72 l 1,9,-1
 468 72 l 1,10,-1
 468 0 l 1,11,-1
 78 0 l 1,0,-1
200 915 m 0,12,13
 226 915 226 915 252 880 c 2,14,-1
 354 740 l 1,15,-1
 330 715 l 1,16,-1
 150 862 l 1,17,18
 168 915 168 915 200 915 c 0,12,13
EndSplineSet
EndChar

StartChar: Eacute
Encoding: 201 201 137
Width: 510
GlyphClass: 2
Flags: W
LayerCount: 2
Fore
SplineSet
78 0 m 1,0,-1
 78 680 l 1,1,-1
 448 680 l 1,2,-1
 448 608 l 1,3,-1
 158 608 l 1,4,-1
 158 376 l 1,5,-1
 395 376 l 1,6,-1
 395 304 l 1,7,-1
 158 304 l 1,8,-1
 158 72 l 1,9,-1
 468 72 l 1,10,-1
 468 0 l 1,11,-1
 78 0 l 1,0,-1
310 915 m 0,12,13
 342 915 342 915 360 862 c 1,14,-1
 180 715 l 1,15,-1
 156 740 l 1,16,-1
 258 880 l 2,17,18
 284 915 284 915 310 915 c 0,12,13
EndSplineSet
EndChar

StartChar: Ecircumflex
Encoding: 202 202 138
Width: 510
GlyphClass: 2
Flags: W
LayerCount: 2
Fore
SplineSet
78 0 m 1,0,-1
 78 680 l 1,1,-1
 448 680 l 1,2,-1
 448 608 l 1,3,-1
 158 608 l 1,4,-1
 158 376 l 1,5,-1
 395 376 l 1,6,-1
 395 304 l 1,7,-1
 158 304 l 1,8,-1
 158 72 l 1,9,-1
 468 72 l 1,10,-1
 468 0 l 1,11,-1
 78 0 l 1,0,-1
211 879 m 2,12,13
 230 907 230 907 254.5 907 c 128,-1,14
 279 907 279 907 299 879 c 2,15,-1
 396 742 l 1,16,-1
 372 717 l 1,17,-1
 255 824 l 1,18,-1
 138 717 l 1,19,-1
 114 742 l 1,20,-1
 211 879 l 2,12,13
EndSplineSet
EndChar

StartChar: Edieresis
Encoding: 203 203 139
Width: 510
GlyphClass: 2
Flags: W
LayerCount: 2
Fore
SplineSet
78 0 m 1,0,-1
 78 680 l 1,1,-1
 448 680 l 1,2,-1
 448 608 l 1,3,-1
 158 608 l 1,4,-1
 158 376 l 1,5,-1
 395 376 l 1,6,-1
 395 304 l 1,7,-1
 158 304 l 1,8,-1
 158 72 l 1,9,-1
 468 72 l 1,10,-1
 468 0 l 1,11,-1
 78 0 l 1,0,-1
296 824 m 128,-1,13
 296 845 296 845 308 858.5 c 128,-1,14
 320 872 320 872 343 872 c 128,-1,15
 366 872 366 872 379 858 c 128,-1,16
 392 844 392 844 392 824 c 128,-1,17
 392 804 392 804 379 790 c 128,-1,18
 366 776 366 776 343 776 c 128,-1,19
 320 776 320 776 308 789.5 c 128,-1,12
 296 803 296 803 296 824 c 128,-1,13
118 824 m 128,-1,21
 118 845 118 845 130 858.5 c 128,-1,22
 142 872 142 872 165 872 c 128,-1,23
 188 872 188 872 201 858 c 128,-1,24
 214 844 214 844 214 824 c 128,-1,25
 214 804 214 804 201 790 c 128,-1,26
 188 776 188 776 165 776 c 128,-1,27
 142 776 142 776 130 789.5 c 128,-1,20
 118 803 118 803 118 824 c 128,-1,21
EndSplineSet
EndChar

StartChar: Igrave
Encoding: 204 204 140
Width: 260
GlyphClass: 2
Flags: W
LayerCount: 2
Fore
SplineSet
90 0 m 1,0,-1
 90 680 l 1,1,-1
 170 680 l 1,2,-1
 170 0 l 1,3,-1
 90 0 l 1,0,-1
75 915 m 0,4,5
 101 915 101 915 127 880 c 2,6,-1
 229 740 l 1,7,-1
 205 715 l 1,8,-1
 25 862 l 1,9,10
 43 915 43 915 75 915 c 0,4,5
EndSplineSet
EndChar

StartChar: Iacute
Encoding: 205 205 141
Width: 260
GlyphClass: 2
Flags: W
LayerCount: 2
Fore
SplineSet
90 0 m 1,0,-1
 90 680 l 1,1,-1
 170 680 l 1,2,-1
 170 0 l 1,3,-1
 90 0 l 1,0,-1
185 915 m 0,4,5
 217 915 217 915 235 862 c 1,6,-1
 55 715 l 1,7,-1
 31 740 l 1,8,-1
 133 880 l 2,9,10
 159 915 159 915 185 915 c 0,4,5
EndSplineSet
EndChar

StartChar: Icircumflex
Encoding: 206 206 142
Width: 260
GlyphClass: 2
Flags: W
LayerCount: 2
Fore
SplineSet
90 0 m 1,0,-1
 90 680 l 1,1,-1
 170 680 l 1,2,-1
 170 0 l 1,3,-1
 90 0 l 1,0,-1
86 879 m 2,4,5
 105 907 105 907 129.5 907 c 128,-1,6
 154 907 154 907 174 879 c 2,7,-1
 271 742 l 1,8,-1
 247 717 l 1,9,-1
 130 824 l 1,10,-1
 13 717 l 1,11,-1
 -11 742 l 1,12,-1
 86 879 l 2,4,5
EndSplineSet
EndChar

StartChar: Idieresis
Encoding: 207 207 143
Width: 260
GlyphClass: 2
Flags: W
LayerCount: 2
Fore
SplineSet
90 0 m 1,0,-1
 90 680 l 1,1,-1
 170 680 l 1,2,-1
 170 0 l 1,3,-1
 90 0 l 1,0,-1
171 824 m 128,-1,5
 171 845 171 845 183 858.5 c 128,-1,6
 195 872 195 872 218 872 c 128,-1,7
 241 872 241 872 254 858 c 128,-1,8
 267 844 267 844 267 824 c 128,-1,9
 267 804 267 804 254 790 c 128,-1,10
 241 776 241 776 218 776 c 128,-1,11
 195 776 195 776 183 789.5 c 128,-1,4
 171 803 171 803 171 824 c 128,-1,5
-7 824 m 128,-1,13
 -7 845 -7 845 5 858.5 c 128,-1,14
 17 872 17 872 40 872 c 128,-1,15
 63 872 63 872 76 858 c 128,-1,16
 89 844 89 844 89 824 c 128,-1,17
 89 804 89 804 76 790 c 128,-1,18
 63 776 63 776 40 776 c 128,-1,19
 17 776 17 776 5 789.5 c 128,-1,12
 -7 803 -7 803 -7 824 c 128,-1,13
EndSplineSet
EndChar

StartChar: Eth
Encoding: 208 208 144
Width: 651
GlyphClass: 2
Flags: W
LayerCount: 2
Fore
SplineSet
90 0 m 1,0,-1
 90 304 l 1,1,-1
 23 304 l 1,2,-1
 23 376 l 1,3,-1
 90 376 l 1,4,-1
 90 680 l 1,5,-1
 333 680 l 2,6,7
 477 680 477 680 549 585 c 128,-1,8
 621 490 621 490 621 340 c 128,-1,9
 621 190 621 190 549 95 c 128,-1,10
 477 0 477 0 333 0 c 2,11,-1
 90 0 l 1,0,-1
373 304 m 1,12,-1
 170 304 l 1,13,-1
 170 72 l 1,14,-1
 333 72 l 2,15,16
 437 72 437 72 489 146.5 c 128,-1,17
 541 221 541 221 541 340 c 128,-1,18
 541 459 541 459 489 533.5 c 128,-1,19
 437 608 437 608 333 608 c 2,20,-1
 170 608 l 1,21,-1
 170 376 l 1,22,-1
 373 376 l 1,23,-1
 373 304 l 1,12,-1
EndSplineSet
EndChar

StartChar: Ntilde
Encoding: 209 209 145
Width: 680
GlyphClass: 2
Flags: W
LayerCount: 2
Fore
SplineSet
90 0 m 1,0,-1
 90 680 l 1,1,-1
 183 680 l 1,2,-1
 510 127 l 1,3,-1
 510 680 l 1,4,-1
 590 680 l 1,5,-1
 590 0 l 1,6,-1
 497 0 l 1,7,-1
 170 553 l 1,8,-1
 170 0 l 1,9,-1
 90 0 l 1,0,-1
407 770 m 0,10,11
 382 770 382 770 338 785 c 128,-1,12
 294 800 294 800 275 800 c 0,13,14
 235 800 235 800 228 756 c 1,15,-1
 181 764 l 1,16,17
 199 872 199 872 268 872 c 0,18,19
 294 872 294 872 339 857 c 128,-1,20
 384 842 384 842 404 842 c 0,21,22
 444 842 444 842 451 886 c 1,23,-1
 498 878 l 1,24,25
 479 770 479 770 407 770 c 0,10,11
EndSplineSet
EndChar

StartChar: Ograve
Encoding: 210 210 146
Width: 674
GlyphClass: 2
Flags: W
LayerCount: 2
Fore
SplineSet
50 340 m 128,-1,1
 50 498 50 498 121.5 597 c 128,-1,2
 193 696 193 696 336 696 c 0,3,4
 433 696 433 696 499.5 647 c 128,-1,5
 566 598 566 598 595 520 c 128,-1,6
 624 442 624 442 624 340 c 128,-1,7
 624 238 624 238 595 160 c 128,-1,8
 566 82 566 82 499.5 33 c 128,-1,9
 433 -16 433 -16 336 -16 c 0,10,11
 193 -16 193 -16 121.5 83 c 128,-1,0
 50 182 50 182 50 340 c 128,-1,1
130 340 m 128,-1,13
 130 214 130 214 181.5 135.5 c 128,-1,14
 233 57 233 57 336.5 57 c 128,-1,15
 440 57 440 57 492 136 c 128,-1,16
 544 215 544 215 544 340 c 128,-1,17
 544 465 544 465 492 544 c 128,-1,18
 440 623 440 623 336.5 623 c 128,-1,19
 233 623 233 623 181.5 544.5 c 128,-1,12
 130 466 130 466 130 340 c 128,-1,13
282 915 m 0,20,21
 308 915 308 915 334 880 c 2,22,-1
 436 740 l 1,23,-1
 412 715 l 1,24,-1
 232 862 l 1,25,26
 250 915 250 915 282 915 c 0,20,21
EndSplineSet
EndChar

StartChar: Oacute
Encoding: 211 211 147
Width: 674
GlyphClass: 2
Flags: W
LayerCount: 2
Fore
SplineSet
50 340 m 128,-1,1
 50 498 50 498 121.5 597 c 128,-1,2
 193 696 193 696 336 696 c 0,3,4
 433 696 433 696 499.5 647 c 128,-1,5
 566 598 566 598 595 520 c 128,-1,6
 624 442 624 442 624 340 c 128,-1,7
 624 238 624 238 595 160 c 128,-1,8
 566 82 566 82 499.5 33 c 128,-1,9
 433 -16 433 -16 336 -16 c 0,10,11
 193 -16 193 -16 121.5 83 c 128,-1,0
 50 182 50 182 50 340 c 128,-1,1
130 340 m 128,-1,13
 130 214 130 214 181.5 135.5 c 128,-1,14
 233 57 233 57 336.5 57 c 128,-1,15
 440 57 440 57 492 136 c 128,-1,16
 544 215 544 215 544 340 c 128,-1,17
 544 465 544 465 492 544 c 128,-1,18
 440 623 440 623 336.5 623 c 128,-1,19
 233 623 233 623 181.5 544.5 c 128,-1,12
 130 466 130 466 130 340 c 128,-1,13
392 915 m 0,20,21
 424 915 424 915 442 862 c 1,22,-1
 262 715 l 1,23,-1
 238 740 l 1,24,-1
 340 880 l 2,25,26
 366 915 366 915 392 915 c 0,20,21
EndSplineSet
EndChar

StartChar: Ocircumflex
Encoding: 212 212 148
Width: 674
GlyphClass: 2
Flags: W
LayerCount: 2
Fore
SplineSet
50 340 m 128,-1,1
 50 498 50 498 121.5 597 c 128,-1,2
 193 696 193 696 336 696 c 0,3,4
 433 696 433 696 499.5 647 c 128,-1,5
 566 598 566 598 595 520 c 128,-1,6
 624 442 624 442 624 340 c 128,-1,7
 624 238 624 238 595 160 c 128,-1,8
 566 82 566 82 499.5 33 c 128,-1,9
 433 -16 433 -16 336 -16 c 0,10,11
 193 -16 193 -16 121.5 83 c 128,-1,0
 50 182 50 182 50 340 c 128,-1,1
130 340 m 128,-1,13
 130 214 130 214 181.5 135.5 c 128,-1,14
 233 57 233 57 336.5 57 c 128,-1,15
 440 57 440 57 492 136 c 128,-1,16
 544 215 544 215 544 340 c 128,-1,17
 544 465 544 465 492 544 c 128,-1,18
 440 623 440 623 336.5 623 c 128,-1,19
 233 623 233 623 181.5 544.5 c 128,-1,12
 130 466 130 466 130 340 c 128,-1,13
293 879 m 2,20,21
 312 907 312 907 336.5 907 c 128,-1,22
 361 907 361 907 381 879 c 2,23,-1
 478 742 l 1,24,-1
 454 717 l 1,25,-1
 337 824 l 1,26,-1
 220 717 l 1,27,-1
 196 742 l 1,28,-1
 293 879 l 2,20,21
EndSplineSet
EndChar

StartChar: Otilde
Encoding: 213 213 149
Width: 674
GlyphClass: 2
Flags: W
LayerCount: 2
Fore
SplineSet
50 340 m 128,-1,1
 50 498 50 498 121.5 597 c 128,-1,2
 193 696 193 696 336 696 c 0,3,4
 433 696 433 696 499.5 647 c 128,-1,5
 566 598 566 598 595 520 c 128,-1,6
 624 442 624 442 624 340 c 128,-1,7
 624 238 624 238 595 160 c 128,-1,8
 566 82 566 82 499.5 33 c 128,-1,9
 433 -16 433 -16 336 -16 c 0,10,11
 193 -16 193 -16 121.5 83 c 128,-1,0
 50 182 50 182 50 340 c 128,-1,1
130 340 m 128,-1,13
 130 214 130 214 181.5 135.5 c 128,-1,14
 233 57 233 57 336.5 57 c 128,-1,15
 440 57 440 57 492 136 c 128,-1,16
 544 215 544 215 544 340 c 128,-1,17
 544 465 544 465 492 544 c 128,-1,18
 440 623 440 623 336.5 623 c 128,-1,19
 233 623 233 623 181.5 544.5 c 128,-1,12
 130 466 130 466 130 340 c 128,-1,13
404 770 m 0,20,21
 378 770 378 770 335 785 c 128,-1,22
 292 800 292 800 272 800 c 0,23,24
 232 800 232 800 225 756 c 1,25,-1
 178 764 l 1,26,27
 196 872 196 872 265 872 c 0,28,29
 290 872 290 872 336 857 c 128,-1,30
 382 842 382 842 401 842 c 0,31,32
 441 842 441 842 448 886 c 1,33,-1
 495 878 l 1,34,35
 476 770 476 770 404 770 c 0,20,21
EndSplineSet
EndChar

StartChar: Odieresis
Encoding: 214 214 150
Width: 674
GlyphClass: 2
Flags: W
LayerCount: 2
Fore
SplineSet
50 340 m 128,-1,1
 50 498 50 498 121.5 597 c 128,-1,2
 193 696 193 696 336 696 c 0,3,4
 433 696 433 696 499.5 647 c 128,-1,5
 566 598 566 598 595 520 c 128,-1,6
 624 442 624 442 624 340 c 128,-1,7
 624 238 624 238 595 160 c 128,-1,8
 566 82 566 82 499.5 33 c 128,-1,9
 433 -16 433 -16 336 -16 c 0,10,11
 193 -16 193 -16 121.5 83 c 128,-1,0
 50 182 50 182 50 340 c 128,-1,1
130 340 m 128,-1,13
 130 214 130 214 181.5 135.5 c 128,-1,14
 233 57 233 57 336.5 57 c 128,-1,15
 440 57 440 57 492 136 c 128,-1,16
 544 215 544 215 544 340 c 128,-1,17
 544 465 544 465 492 544 c 128,-1,18
 440 623 440 623 336.5 623 c 128,-1,19
 233 623 233 623 181.5 544.5 c 128,-1,12
 130 466 130 466 130 340 c 128,-1,13
378 824 m 128,-1,21
 378 845 378 845 390 858.5 c 128,-1,22
 402 872 402 872 425 872 c 128,-1,23
 448 872 448 872 461 858 c 128,-1,24
 474 844 474 844 474 824 c 128,-1,25
 474 804 474 804 461 790 c 128,-1,26
 448 776 448 776 425 776 c 128,-1,27
 402 776 402 776 390 789.5 c 128,-1,20
 378 803 378 803 378 824 c 128,-1,21
200 824 m 128,-1,29
 200 845 200 845 212 858.5 c 128,-1,30
 224 872 224 872 247 872 c 128,-1,31
 270 872 270 872 283 858 c 128,-1,32
 296 844 296 844 296 824 c 128,-1,33
 296 804 296 804 283 790 c 128,-1,34
 270 776 270 776 247 776 c 128,-1,35
 224 776 224 776 212 789.5 c 128,-1,28
 200 803 200 803 200 824 c 128,-1,29
EndSplineSet
EndChar

StartChar: multiply
Encoding: 215 215 151
Width: 518
GlyphClass: 2
Flags: W
LayerCount: 2
Fore
SplineSet
113 114 m 1,0,-1
 62 165 l 1,1,-1
 208 311 l 1,2,-1
 62 457 l 1,3,-1
 113 508 l 1,4,-1
 259 362 l 1,5,-1
 405 508 l 1,6,-1
 456 457 l 1,7,-1
 310 311 l 1,8,-1
 456 165 l 1,9,-1
 405 114 l 1,10,-1
 259 260 l 1,11,-1
 113 114 l 1,0,-1
EndSplineSet
EndChar

StartChar: Oslash
Encoding: 216 216 152
Width: 674
GlyphClass: 2
Flags: W
LayerCount: 2
Fore
SplineSet
50 340 m 0,0,1
 50 498 50 498 121.5 597 c 128,-1,2
 193 696 193 696 336 696 c 0,3,4
 379 696 379 696 420 685 c 1,5,-1
 450 772 l 1,6,-1
 523 772 l 1,7,-1
 483 658 l 1,8,9
 553 616 553 616 588.5 532 c 128,-1,10
 624 448 624 448 624 343 c 128,-1,11
 624 238 624 238 595 160 c 128,-1,12
 566 82 566 82 499.5 33 c 128,-1,13
 433 -16 433 -16 336 -16 c 0,14,15
 292 -16 292 -16 253 -5 c 1,16,-1
 223 -92 l 1,17,-1
 151 -92 l 1,18,-1
 190 21 l 1,19,20
 120 63 120 63 85 147 c 128,-1,21
 50 231 50 231 50 340 c 0,0,1
544 340 m 0,22,23
 544 511 544 511 457 582 c 1,24,-1
 277 65 l 1,25,26
 306 57 306 57 336 57 c 0,27,28
 440 57 440 57 492 136 c 128,-1,29
 544 215 544 215 544 340 c 0,22,23
130 340 m 0,30,31
 130 167 130 167 216 97 c 1,32,-1
 395 615 l 1,33,34
 366 623 366 623 336 623 c 0,35,36
 233 623 233 623 181.5 544.5 c 128,-1,37
 130 466 130 466 130 340 c 0,30,31
EndSplineSet
EndChar

StartChar: Ugrave
Encoding: 217 217 153
Width: 653
GlyphClass: 2
Flags: W
LayerCount: 2
Fore
SplineSet
75 680 m 1,0,-1
 155 680 l 1,1,-1
 155 248 l 2,2,3
 155 163 155 163 197.5 110 c 128,-1,4
 240 57 240 57 326 57 c 128,-1,5
 412 57 412 57 455 110 c 128,-1,6
 498 163 498 163 498 248 c 2,7,-1
 498 680 l 1,8,-1
 578 680 l 1,9,-1
 578 253 l 2,10,11
 578 134 578 134 515 59 c 128,-1,12
 452 -16 452 -16 326 -16 c 128,-1,13
 200 -16 200 -16 137.5 59 c 128,-1,14
 75 134 75 134 75 253 c 2,15,-1
 75 680 l 1,0,-1
271 915 m 0,16,17
 297 915 297 915 323 880 c 2,18,-1
 425 740 l 1,19,-1
 401 715 l 1,20,-1
 221 862 l 1,21,22
 239 915 239 915 271 915 c 0,16,17
EndSplineSet
EndChar

StartChar: Uacute
Encoding: 218 218 154
Width: 653
GlyphClass: 2
Flags: W
LayerCount: 2
Fore
SplineSet
75 680 m 1,0,-1
 155 680 l 1,1,-1
 155 248 l 2,2,3
 155 163 155 163 197.5 110 c 128,-1,4
 240 57 240 57 326 57 c 128,-1,5
 412 57 412 57 455 110 c 128,-1,6
 498 163 498 163 498 248 c 2,7,-1
 498 680 l 1,8,-1
 578 680 l 1,9,-1
 578 253 l 2,10,11
 578 134 578 134 515 59 c 128,-1,12
 452 -16 452 -16 326 -16 c 128,-1,13
 200 -16 200 -16 137.5 59 c 128,-1,14
 75 134 75 134 75 253 c 2,15,-1
 75 680 l 1,0,-1
381 915 m 0,16,17
 413 915 413 915 431 862 c 1,18,-1
 251 715 l 1,19,-1
 227 740 l 1,20,-1
 329 880 l 2,21,22
 355 915 355 915 381 915 c 0,16,17
EndSplineSet
EndChar

StartChar: Ucircumflex
Encoding: 219 219 155
Width: 653
GlyphClass: 2
Flags: W
LayerCount: 2
Fore
SplineSet
75 680 m 1,0,-1
 155 680 l 1,1,-1
 155 248 l 2,2,3
 155 163 155 163 197.5 110 c 128,-1,4
 240 57 240 57 326 57 c 128,-1,5
 412 57 412 57 455 110 c 128,-1,6
 498 163 498 163 498 248 c 2,7,-1
 498 680 l 1,8,-1
 578 680 l 1,9,-1
 578 253 l 2,10,11
 578 134 578 134 515 59 c 128,-1,12
 452 -16 452 -16 326 -16 c 128,-1,13
 200 -16 200 -16 137.5 59 c 128,-1,14
 75 134 75 134 75 253 c 2,15,-1
 75 680 l 1,0,-1
282 879 m 2,16,17
 301 907 301 907 325.5 907 c 128,-1,18
 350 907 350 907 370 879 c 2,19,-1
 467 742 l 1,20,-1
 443 717 l 1,21,-1
 326 824 l 1,22,-1
 209 717 l 1,23,-1
 185 742 l 1,24,-1
 282 879 l 2,16,17
EndSplineSet
EndChar

StartChar: Udieresis
Encoding: 220 220 156
Width: 653
GlyphClass: 2
Flags: W
LayerCount: 2
Fore
SplineSet
75 680 m 1,0,-1
 155 680 l 1,1,-1
 155 248 l 2,2,3
 155 163 155 163 197.5 110 c 128,-1,4
 240 57 240 57 326 57 c 128,-1,5
 412 57 412 57 455 110 c 128,-1,6
 498 163 498 163 498 248 c 2,7,-1
 498 680 l 1,8,-1
 578 680 l 1,9,-1
 578 253 l 2,10,11
 578 134 578 134 515 59 c 128,-1,12
 452 -16 452 -16 326 -16 c 128,-1,13
 200 -16 200 -16 137.5 59 c 128,-1,14
 75 134 75 134 75 253 c 2,15,-1
 75 680 l 1,0,-1
367 824 m 128,-1,17
 367 845 367 845 379 858.5 c 128,-1,18
 391 872 391 872 414 872 c 128,-1,19
 437 872 437 872 450 858 c 128,-1,20
 463 844 463 844 463 824 c 128,-1,21
 463 804 463 804 450 790 c 128,-1,22
 437 776 437 776 414 776 c 128,-1,23
 391 776 391 776 379 789.5 c 128,-1,16
 367 803 367 803 367 824 c 128,-1,17
189 824 m 128,-1,25
 189 845 189 845 201 858.5 c 128,-1,26
 213 872 213 872 236 872 c 128,-1,27
 259 872 259 872 272 858 c 128,-1,28
 285 844 285 844 285 824 c 128,-1,29
 285 804 285 804 272 790 c 128,-1,30
 259 776 259 776 236 776 c 128,-1,31
 213 776 213 776 201 789.5 c 128,-1,24
 189 803 189 803 189 824 c 128,-1,25
EndSplineSet
EndChar

StartChar: Yacute
Encoding: 221 221 157
Width: 528
GlyphClass: 2
Flags: W
LayerCount: 2
Fore
SplineSet
224 0 m 1,0,-1
 224 235 l 1,1,-1
 0 680 l 1,2,-1
 88 680 l 1,3,-1
 264 314 l 1,4,-1
 440 680 l 1,5,-1
 528 680 l 1,6,-1
 304 235 l 1,7,-1
 304 0 l 1,8,-1
 224 0 l 1,0,-1
319 915 m 0,9,10
 351 915 351 915 369 862 c 1,11,-1
 189 715 l 1,12,-1
 165 740 l 1,13,-1
 267 880 l 2,14,15
 293 915 293 915 319 915 c 0,9,10
EndSplineSet
EndChar

StartChar: Thorn
Encoding: 222 222 158
Width: 509
GlyphClass: 2
Flags: W
LayerCount: 2
Fore
SplineSet
90 0 m 1,0,-1
 90 680 l 1,1,-1
 170 680 l 1,2,-1
 170 543 l 1,3,-1
 301 543 l 2,4,5
 386 543 386 543 445 484 c 128,-1,6
 504 425 504 425 504 340 c 128,-1,7
 504 255 504 255 445 196 c 128,-1,8
 386 137 386 137 301 137 c 2,9,-1
 170 137 l 1,10,-1
 170 0 l 1,11,-1
 90 0 l 1,0,-1
298 470 m 2,12,-1
 170 470 l 1,13,-1
 170 210 l 1,14,-1
 298 210 l 2,15,16
 350 210 350 210 387.5 248.5 c 128,-1,17
 425 287 425 287 425 340 c 128,-1,18
 425 393 425 393 387.5 431.5 c 128,-1,19
 350 470 350 470 298 470 c 2,12,-1
EndSplineSet
EndChar

StartChar: germandbls
Encoding: 223 223 159
Width: 579
GlyphClass: 2
Flags: W
LayerCount: 2
Fore
SplineSet
40 435 m 1,0,-1
 40 500 l 1,1,-1
 105 500 l 1,2,-1
 105 551 l 2,3,4
 105 633 105 633 160 676 c 128,-1,5
 215 719 215 719 292 719 c 128,-1,6
 369 719 369 719 427.5 679 c 128,-1,7
 486 639 486 639 486 575 c 0,8,9
 486 532 486 532 467 498 c 128,-1,10
 448 464 448 464 426 447 c 0,11,12
 365 401 365 401 365 362 c 0,13,14
 365 340 365 340 386 323 c 128,-1,15
 407 306 407 306 437 292.5 c 128,-1,16
 467 279 467 279 497 262.5 c 128,-1,17
 527 246 527 246 548 215.5 c 128,-1,18
 569 185 569 185 569 142 c 0,19,20
 569 65 569 65 517.5 25.5 c 128,-1,21
 466 -14 466 -14 389 -14 c 0,22,23
 285 -14 285 -14 213 53 c 1,24,-1
 254 108 l 1,25,26
 309 55 309 55 389 55 c 1,27,28
 434 56 434 56 463 76.5 c 128,-1,29
 492 97 492 97 492 131.5 c 128,-1,30
 492 166 492 166 471 185 c 128,-1,31
 450 204 450 204 420 216.5 c 128,-1,32
 390 229 390 229 360 243.5 c 128,-1,33
 330 258 330 258 309 285 c 128,-1,34
 288 312 288 312 288 352.5 c 128,-1,35
 288 393 288 393 307 424 c 128,-1,36
 326 455 326 455 348 471 c 0,37,38
 409 514 409 514 409 569 c 0,39,40
 409 606 409 606 373.5 629 c 128,-1,41
 338 652 338 652 292 652 c 128,-1,42
 246 652 246 652 213.5 627 c 128,-1,43
 181 602 181 602 181 555 c 2,44,-1
 181 -160 l 1,45,-1
 105 -160 l 1,46,-1
 105 435 l 1,47,-1
 40 435 l 1,0,-1
EndSplineSet
EndChar

StartChar: agrave
Encoding: 224 224 160
Width: 564
GlyphClass: 2
Flags: W
LayerCount: 2
Fore
SplineSet
241 -14 m 0,0,1
 155 -14 155 -14 100 51 c 128,-1,2
 45 116 45 116 45 238.5 c 128,-1,3
 45 361 45 361 114.5 437.5 c 128,-1,4
 184 514 184 514 287.5 514 c 128,-1,5
 391 514 391 514 474 456 c 1,6,-1
 474 100 l 1,7,-1
 484 0 l 1,8,-1
 418 -5 l 1,9,-1
 401 85 l 1,10,11
 345 -14 345 -14 241 -14 c 0,0,1
159 102 m 128,-1,13
 197 54 197 54 256.5 54 c 128,-1,14
 316 54 316 54 357 113.5 c 128,-1,15
 398 173 398 173 398 282 c 2,16,-1
 398 421 l 1,17,18
 348 446 348 446 291 446 c 0,19,20
 217 446 217 446 169 388.5 c 128,-1,21
 121 331 121 331 121 240.5 c 128,-1,12
 121 150 121 150 159 102 c 128,-1,13
209 735 m 0,22,23
 235 735 235 735 261 700 c 2,24,-1
 363 560 l 1,25,-1
 339 535 l 1,26,-1
 159 682 l 1,27,28
 177 735 177 735 209 735 c 0,22,23
EndSplineSet
EndChar

StartChar: aacute
Encoding: 225 225 161
Width: 564
GlyphClass: 2
Flags: W
LayerCount: 2
Fore
SplineSet
241 -14 m 0,0,1
 155 -14 155 -14 100 51 c 128,-1,2
 45 116 45 116 45 238.5 c 128,-1,3
 45 361 45 361 114.5 437.5 c 128,-1,4
 184 514 184 514 287.5 514 c 128,-1,5
 391 514 391 514 474 456 c 1,6,-1
 474 100 l 1,7,-1
 484 0 l 1,8,-1
 418 -5 l 1,9,-1
 401 85 l 1,10,11
 345 -14 345 -14 241 -14 c 0,0,1
159 102 m 128,-1,13
 197 54 197 54 256.5 54 c 128,-1,14
 316 54 316 54 357 113.5 c 128,-1,15
 398 173 398 173 398 282 c 2,16,-1
 398 421 l 1,17,18
 348 446 348 446 291 446 c 0,19,20
 217 446 217 446 169 388.5 c 128,-1,21
 121 331 121 331 121 240.5 c 128,-1,12
 121 150 121 150 159 102 c 128,-1,13
369 735 m 0,22,23
 401 735 401 735 419 682 c 1,24,-1
 239 535 l 1,25,-1
 215 560 l 1,26,-1
 317 700 l 2,27,28
 343 735 343 735 369 735 c 0,22,23
EndSplineSet
EndChar

StartChar: acircumflex
Encoding: 226 226 162
Width: 564
GlyphClass: 2
Flags: W
LayerCount: 2
Fore
SplineSet
241 -14 m 0,0,1
 155 -14 155 -14 100 51 c 128,-1,2
 45 116 45 116 45 238.5 c 128,-1,3
 45 361 45 361 114.5 437.5 c 128,-1,4
 184 514 184 514 287.5 514 c 128,-1,5
 391 514 391 514 474 456 c 1,6,-1
 474 100 l 1,7,-1
 484 0 l 1,8,-1
 418 -5 l 1,9,-1
 401 85 l 1,10,11
 345 -14 345 -14 241 -14 c 0,0,1
256 54 m 128,-1,13
 315 54 315 54 356.5 110.5 c 128,-1,14
 398 167 398 167 398 270 c 2,15,-1
 398 421 l 1,16,17
 348 446 348 446 291 446 c 0,18,19
 217 446 217 446 169 388.5 c 128,-1,20
 121 331 121 331 121 240.5 c 128,-1,21
 121 150 121 150 159 102 c 128,-1,12
 197 54 197 54 256 54 c 128,-1,13
235 699 m 2,22,23
 254 727 254 727 278.5 727 c 128,-1,24
 303 727 303 727 323 699 c 2,25,-1
 420 562 l 1,26,-1
 396 537 l 1,27,-1
 279 644 l 1,28,-1
 162 537 l 1,29,-1
 138 562 l 1,30,-1
 235 699 l 2,22,23
EndSplineSet
EndChar

StartChar: atilde
Encoding: 227 227 163
Width: 564
GlyphClass: 2
Flags: W
LayerCount: 2
Fore
SplineSet
241 -14 m 0,0,1
 155 -14 155 -14 100 51 c 128,-1,2
 45 116 45 116 45 238.5 c 128,-1,3
 45 361 45 361 114.5 437.5 c 128,-1,4
 184 514 184 514 287.5 514 c 128,-1,5
 391 514 391 514 474 456 c 1,6,-1
 474 100 l 1,7,-1
 484 0 l 1,8,-1
 418 -5 l 1,9,-1
 401 85 l 1,10,11
 345 -14 345 -14 241 -14 c 0,0,1
256 54 m 128,-1,13
 315 54 315 54 356.5 110.5 c 128,-1,14
 398 167 398 167 398 270 c 2,15,-1
 398 421 l 1,16,17
 348 446 348 446 291 446 c 0,18,19
 217 446 217 446 169 388.5 c 128,-1,20
 121 331 121 331 121 240.5 c 128,-1,21
 121 150 121 150 159 102 c 128,-1,12
 197 54 197 54 256 54 c 128,-1,13
347 590 m 0,22,23
 322 590 322 590 278.5 605 c 128,-1,24
 235 620 235 620 215 620 c 0,25,26
 175 620 175 620 168 576 c 1,27,-1
 121 584 l 1,28,29
 139 692 139 692 208 692 c 0,30,31
 233 692 233 692 278.5 677 c 128,-1,32
 324 662 324 662 344 662 c 0,33,34
 384 662 384 662 391 706 c 1,35,-1
 438 698 l 1,36,37
 419 590 419 590 347 590 c 0,22,23
EndSplineSet
EndChar

StartChar: adieresis
Encoding: 228 228 164
Width: 564
GlyphClass: 2
Flags: W
LayerCount: 2
Fore
SplineSet
241 -14 m 0,0,1
 155 -14 155 -14 100 51 c 128,-1,2
 45 116 45 116 45 238.5 c 128,-1,3
 45 361 45 361 114.5 437.5 c 128,-1,4
 184 514 184 514 287.5 514 c 128,-1,5
 391 514 391 514 474 456 c 1,6,-1
 474 100 l 1,7,-1
 484 0 l 1,8,-1
 418 -5 l 1,9,-1
 401 85 l 1,10,11
 345 -14 345 -14 241 -14 c 0,0,1
159 102 m 128,-1,13
 197 54 197 54 256.5 54 c 128,-1,14
 316 54 316 54 357 113.5 c 128,-1,15
 398 173 398 173 398 282 c 2,16,-1
 398 421 l 1,17,18
 348 446 348 446 291 446 c 0,19,20
 217 446 217 446 169 388.5 c 128,-1,21
 121 331 121 331 121 240.5 c 128,-1,12
 121 150 121 150 159 102 c 128,-1,13
320 644 m 128,-1,23
 320 665 320 665 332 678.5 c 128,-1,24
 344 692 344 692 367 692 c 128,-1,25
 390 692 390 692 403 678 c 128,-1,26
 416 664 416 664 416 644 c 128,-1,27
 416 624 416 624 403 610 c 128,-1,28
 390 596 390 596 367 596 c 128,-1,29
 344 596 344 596 332 609.5 c 128,-1,22
 320 623 320 623 320 644 c 128,-1,23
142 644 m 128,-1,31
 142 665 142 665 154 678.5 c 128,-1,32
 166 692 166 692 189 692 c 128,-1,33
 212 692 212 692 225 678 c 128,-1,34
 238 664 238 664 238 644 c 128,-1,35
 238 624 238 624 225 610 c 128,-1,36
 212 596 212 596 189 596 c 128,-1,37
 166 596 166 596 154 609.5 c 128,-1,30
 142 623 142 623 142 644 c 128,-1,31
EndSplineSet
EndChar

StartChar: aring
Encoding: 229 229 165
Width: 564
GlyphClass: 2
Flags: W
LayerCount: 2
Fore
SplineSet
241 -14 m 0,0,1
 155 -14 155 -14 100 51 c 128,-1,2
 45 116 45 116 45 238.5 c 128,-1,3
 45 361 45 361 114.5 437.5 c 128,-1,4
 184 514 184 514 287.5 514 c 128,-1,5
 391 514 391 514 474 456 c 1,6,-1
 474 100 l 1,7,-1
 484 0 l 1,8,-1
 418 -5 l 1,9,-1
 401 85 l 1,10,11
 345 -14 345 -14 241 -14 c 0,0,1
256 54 m 128,-1,13
 315 54 315 54 356.5 110.5 c 128,-1,14
 398 167 398 167 398 270 c 2,15,-1
 398 421 l 1,16,17
 348 446 348 446 291 446 c 0,18,19
 217 446 217 446 169 388.5 c 128,-1,20
 121 331 121 331 121 240.5 c 128,-1,21
 121 150 121 150 159 102 c 128,-1,12
 197 54 197 54 256 54 c 128,-1,13
192 638 m 128,-1,23
 192 682 192 682 218 710.5 c 128,-1,24
 244 739 244 739 292.5 739 c 128,-1,25
 341 739 341 739 367.5 710 c 128,-1,26
 394 681 394 681 394 638 c 128,-1,27
 394 595 394 595 367.5 566 c 128,-1,28
 341 537 341 537 292.5 537 c 128,-1,29
 244 537 244 537 218 565.5 c 128,-1,22
 192 594 192 594 192 638 c 128,-1,23
243 638 m 128,-1,31
 243 616 243 616 256 602 c 128,-1,32
 269 588 269 588 292.5 588 c 128,-1,33
 316 588 316 588 329.5 602.5 c 128,-1,34
 343 617 343 617 343 638 c 128,-1,35
 343 659 343 659 329.5 673.5 c 128,-1,36
 316 688 316 688 292.5 688 c 128,-1,37
 269 688 269 688 256 674 c 128,-1,30
 243 660 243 660 243 638 c 128,-1,31
EndSplineSet
EndChar

StartChar: ae
Encoding: 230 230 166
Width: 805
GlyphClass: 2
Flags: W
LayerCount: 2
Fore
SplineSet
762 263 m 1,0,-1
 760 233 l 1,1,-1
 426 233 l 1,2,3
 430 146 430 146 471.5 100 c 128,-1,4
 513 54 513 54 575 54 c 0,5,6
 662 54 662 54 718 108 c 1,7,-1
 756 59 l 1,8,9
 682 -14 682 -14 574 -14 c 0,10,11
 509 -14 509 -14 457 16.5 c 128,-1,12
 405 47 405 47 377 107 c 1,13,14
 348 53 348 53 299 19.5 c 128,-1,15
 250 -14 250 -14 185 -14 c 128,-1,16
 120 -14 120 -14 79.5 23.5 c 128,-1,17
 39 61 39 61 39 121 c 0,18,19
 39 269 39 269 220 286 c 2,20,-1
 350 298 l 1,21,-1
 350 347 l 2,22,23
 350 400 350 400 323.5 423 c 128,-1,24
 297 446 297 446 239.5 446 c 128,-1,25
 182 446 182 446 108 398 c 1,26,-1
 73 453 l 1,27,28
 159 514 159 514 252 514 c 0,29,30
 371 514 371 514 408 437 c 1,31,32
 470 514 470 514 573 514 c 0,33,34
 762 514 762 514 762 263 c 1,0,-1
350 222 m 2,35,-1
 350 233 l 1,36,-1
 223 221 l 2,37,38
 166 216 166 216 142 190 c 128,-1,39
 118 164 118 164 118 131 c 128,-1,40
 118 98 118 98 139.5 76 c 128,-1,41
 161 54 161 54 196 54 c 0,42,43
 254 54 254 54 302 98.5 c 128,-1,44
 350 143 350 143 350 222 c 2,35,-1
572 445 m 0,45,46
 514 445 514 445 476.5 407.5 c 128,-1,47
 439 370 439 370 429 300 c 1,48,-1
 686 300 l 1,49,50
 682 445 682 445 572 445 c 0,45,46
EndSplineSet
EndChar

StartChar: ccedilla
Encoding: 231 231 167
Width: 446
GlyphClass: 2
Flags: W
LayerCount: 2
Fore
SplineSet
215 -88 m 2,0,-1
 191 -88 l 1,1,-1
 208 -7 l 1,2,3
 135 10 135 10 90 71 c 128,-1,4
 45 132 45 132 45 234 c 0,5,6
 45 359 45 359 107.5 436.5 c 128,-1,7
 170 514 170 514 281 514 c 0,8,9
 350 514 350 514 409 478 c 1,10,-1
 390 417 l 1,11,12
 337 446 337 446 283 446 c 0,13,14
 209 446 209 446 165 390 c 128,-1,15
 121 334 121 334 121 240.5 c 128,-1,16
 121 147 121 147 161.5 100.5 c 128,-1,17
 202 54 202 54 265 54 c 0,18,19
 345 54 345 54 403 102 c 1,20,-1
 433 48 l 1,21,22
 361 -14 361 -14 262 -14 c 2,23,-1
 256 -14 l 1,24,-1
 248 -50 l 1,25,26
 295 -50 295 -50 314 -73 c 128,-1,27
 333 -96 333 -96 333 -126.5 c 128,-1,28
 333 -157 333 -157 307 -180.5 c 128,-1,29
 281 -204 281 -204 229 -204 c 0,30,31
 207 -204 207 -204 186.5 -197 c 128,-1,32
 166 -190 166 -190 156 -184 c 1,33,-1
 147 -177 l 1,34,-1
 170 -136 l 1,35,36
 194 -153 194 -153 220 -153 c 128,-1,37
 246 -153 246 -153 258.5 -143 c 128,-1,38
 271 -133 271 -133 271 -118 c 0,39,40
 271 -88 271 -88 215 -88 c 2,0,-1
EndSplineSet
EndChar

StartChar: egrave
Encoding: 232 232 168
Width: 484
GlyphClass: 2
Flags: W
LayerCount: 2
Fore
SplineSet
252 -14 m 0,0,1
 162 -14 162 -14 103.5 49 c 128,-1,2
 45 112 45 112 45 234 c 128,-1,3
 45 356 45 356 114 435 c 128,-1,4
 183 514 183 514 293 514 c 0,5,6
 363 514 363 514 406 471.5 c 128,-1,7
 449 429 449 429 449 365.5 c 128,-1,8
 449 302 449 302 383.5 249 c 128,-1,9
 318 196 318 196 193 196 c 0,10,11
 160 196 160 196 123 199 c 1,12,13
 130 128 130 128 166.5 91 c 128,-1,14
 203 54 203 54 255 54 c 0,15,16
 342 54 342 54 400 108 c 1,17,-1
 436 59 l 1,18,19
 360 -14 360 -14 252 -14 c 0,0,1
290 446 m 0,20,21
 221 446 221 446 175.5 397 c 128,-1,22
 130 348 130 348 122 267 c 1,23,24
 155 262 155 262 195 262 c 0,25,26
 281 262 281 262 327 294 c 128,-1,27
 373 326 373 326 373 368 c 0,28,29
 373 399 373 399 350.5 422.5 c 128,-1,30
 328 446 328 446 290 446 c 0,20,21
179 735 m 0,31,32
 205 735 205 735 231 700 c 2,33,-1
 333 560 l 1,34,-1
 309 535 l 1,35,-1
 129 682 l 1,36,37
 147 735 147 735 179 735 c 0,31,32
EndSplineSet
EndChar

StartChar: eacute
Encoding: 233 233 169
Width: 484
GlyphClass: 2
Flags: W
LayerCount: 2
Fore
SplineSet
252 -14 m 0,0,1
 162 -14 162 -14 103.5 49 c 128,-1,2
 45 112 45 112 45 234 c 128,-1,3
 45 356 45 356 114 435 c 128,-1,4
 183 514 183 514 293 514 c 0,5,6
 363 514 363 514 406 471.5 c 128,-1,7
 449 429 449 429 449 365.5 c 128,-1,8
 449 302 449 302 383.5 249 c 128,-1,9
 318 196 318 196 193 196 c 0,10,11
 160 196 160 196 123 199 c 1,12,13
 130 128 130 128 166.5 91 c 128,-1,14
 203 54 203 54 255 54 c 0,15,16
 342 54 342 54 400 108 c 1,17,-1
 436 59 l 1,18,19
 360 -14 360 -14 252 -14 c 0,0,1
290 446 m 0,20,21
 221 446 221 446 175.5 397 c 128,-1,22
 130 348 130 348 122 267 c 1,23,24
 155 262 155 262 195 262 c 0,25,26
 281 262 281 262 327 294 c 128,-1,27
 373 326 373 326 373 368 c 0,28,29
 373 399 373 399 350.5 422.5 c 128,-1,30
 328 446 328 446 290 446 c 0,20,21
339 735 m 0,31,32
 371 735 371 735 389 682 c 1,33,-1
 209 535 l 1,34,-1
 185 560 l 1,35,-1
 287 700 l 2,36,37
 313 735 313 735 339 735 c 0,31,32
EndSplineSet
EndChar

StartChar: ecircumflex
Encoding: 234 234 170
Width: 484
GlyphClass: 2
Flags: W
LayerCount: 2
Fore
SplineSet
252 -14 m 0,0,1
 162 -14 162 -14 103.5 49 c 128,-1,2
 45 112 45 112 45 234 c 128,-1,3
 45 356 45 356 114 435 c 128,-1,4
 183 514 183 514 293 514 c 0,5,6
 363 514 363 514 406 471.5 c 128,-1,7
 449 429 449 429 449 365.5 c 128,-1,8
 449 302 449 302 383.5 249 c 128,-1,9
 318 196 318 196 193 196 c 0,10,11
 160 196 160 196 123 199 c 1,12,13
 130 128 130 128 166.5 91 c 128,-1,14
 203 54 203 54 255 54 c 0,15,16
 342 54 342 54 400 108 c 1,17,-1
 436 59 l 1,18,19
 360 -14 360 -14 252 -14 c 0,0,1
290 446 m 0,20,21
 221 446 221 446 175.5 397 c 128,-1,22
 130 348 130 348 122 267 c 1,23,24
 155 262 155 262 195 262 c 0,25,26
 281 262 281 262 327 294 c 128,-1,27
 373 326 373 326 373 368 c 0,28,29
 373 399 373 399 350.5 422.5 c 128,-1,30
 328 446 328 446 290 446 c 0,20,21
221 699 m 2,31,32
 240 727 240 727 264.5 727 c 128,-1,33
 289 727 289 727 309 699 c 2,34,-1
 406 562 l 1,35,-1
 382 537 l 1,36,-1
 265 644 l 1,37,-1
 148 537 l 1,38,-1
 124 562 l 1,39,-1
 221 699 l 2,31,32
EndSplineSet
EndChar

StartChar: edieresis
Encoding: 235 235 171
Width: 484
GlyphClass: 2
Flags: W
LayerCount: 2
Fore
SplineSet
252 -14 m 0,0,1
 162 -14 162 -14 103.5 49 c 128,-1,2
 45 112 45 112 45 234 c 128,-1,3
 45 356 45 356 114 435 c 128,-1,4
 183 514 183 514 293 514 c 0,5,6
 363 514 363 514 406 471.5 c 128,-1,7
 449 429 449 429 449 365.5 c 128,-1,8
 449 302 449 302 383.5 249 c 128,-1,9
 318 196 318 196 193 196 c 0,10,11
 160 196 160 196 123 199 c 1,12,13
 130 128 130 128 166.5 91 c 128,-1,14
 203 54 203 54 255 54 c 0,15,16
 342 54 342 54 400 108 c 1,17,-1
 436 59 l 1,18,19
 360 -14 360 -14 252 -14 c 0,0,1
290 446 m 0,20,21
 221 446 221 446 175.5 397 c 128,-1,22
 130 348 130 348 122 267 c 1,23,24
 155 262 155 262 195 262 c 0,25,26
 281 262 281 262 327 294 c 128,-1,27
 373 326 373 326 373 368 c 0,28,29
 373 399 373 399 350.5 422.5 c 128,-1,30
 328 446 328 446 290 446 c 0,20,21
307 644 m 128,-1,32
 307 665 307 665 319 678.5 c 128,-1,33
 331 692 331 692 354 692 c 128,-1,34
 377 692 377 692 390 678 c 128,-1,35
 403 664 403 664 403 644 c 128,-1,36
 403 624 403 624 390 610 c 128,-1,37
 377 596 377 596 354 596 c 128,-1,38
 331 596 331 596 319 609.5 c 128,-1,31
 307 623 307 623 307 644 c 128,-1,32
129 644 m 128,-1,40
 129 665 129 665 141 678.5 c 128,-1,41
 153 692 153 692 176 692 c 128,-1,42
 199 692 199 692 212 678 c 128,-1,43
 225 664 225 664 225 644 c 128,-1,44
 225 624 225 624 212 610 c 128,-1,45
 199 596 199 596 176 596 c 128,-1,46
 153 596 153 596 141 609.5 c 128,-1,39
 129 623 129 623 129 644 c 128,-1,40
EndSplineSet
EndChar

StartChar: igrave
Encoding: 236 236 172
Width: 256
GlyphClass: 2
Flags: W
LayerCount: 2
Fore
SplineSet
90 0 m 1,0,-1
 90 500 l 1,1,-1
 166 500 l 1,2,-1
 166 0 l 1,3,-1
 90 0 l 1,0,-1
58 735 m 0,4,5
 84 735 84 735 110 700 c 2,6,-1
 212 560 l 1,7,-1
 188 535 l 1,8,-1
 8 682 l 1,9,10
 26 735 26 735 58 735 c 0,4,5
EndSplineSet
EndChar

StartChar: iacute
Encoding: 237 237 173
Width: 256
GlyphClass: 2
Flags: W
LayerCount: 2
Fore
SplineSet
90 0 m 1,0,-1
 90 500 l 1,1,-1
 166 500 l 1,2,-1
 166 0 l 1,3,-1
 90 0 l 1,0,-1
183 735 m 0,4,5
 215 735 215 735 233 682 c 1,6,-1
 53 535 l 1,7,-1
 29 560 l 1,8,-1
 131 700 l 2,9,10
 157 735 157 735 183 735 c 0,4,5
EndSplineSet
EndChar

StartChar: icircumflex
Encoding: 238 238 174
Width: 256
GlyphClass: 2
Flags: W
LayerCount: 2
Fore
SplineSet
90 0 m 1,0,-1
 90 500 l 1,1,-1
 166 500 l 1,2,-1
 166 0 l 1,3,-1
 90 0 l 1,0,-1
84 699 m 2,4,5
 103 727 103 727 127.5 727 c 128,-1,6
 152 727 152 727 172 699 c 2,7,-1
 269 562 l 1,8,-1
 245 537 l 1,9,-1
 128 644 l 1,10,-1
 11 537 l 1,11,-1
 -13 562 l 1,12,-1
 84 699 l 2,4,5
EndSplineSet
EndChar

StartChar: idieresis
Encoding: 239 239 175
Width: 256
GlyphClass: 2
Flags: W
LayerCount: 2
Fore
SplineSet
90 0 m 1,0,-1
 90 500 l 1,1,-1
 166 500 l 1,2,-1
 166 0 l 1,3,-1
 90 0 l 1,0,-1
169 644 m 128,-1,5
 169 665 169 665 181 678.5 c 128,-1,6
 193 692 193 692 216 692 c 128,-1,7
 239 692 239 692 252 678 c 128,-1,8
 265 664 265 664 265 644 c 128,-1,9
 265 624 265 624 252 610 c 128,-1,10
 239 596 239 596 216 596 c 128,-1,11
 193 596 193 596 181 609.5 c 128,-1,4
 169 623 169 623 169 644 c 128,-1,5
-9 644 m 128,-1,13
 -9 665 -9 665 3 678.5 c 128,-1,14
 15 692 15 692 38 692 c 128,-1,15
 61 692 61 692 74 678 c 128,-1,16
 87 664 87 664 87 644 c 128,-1,17
 87 624 87 624 74 610 c 128,-1,18
 61 596 61 596 38 596 c 128,-1,19
 15 596 15 596 3 609.5 c 128,-1,12
 -9 623 -9 623 -9 644 c 128,-1,13
EndSplineSet
EndChar

StartChar: eth
Encoding: 240 240 176
Width: 541
GlyphClass: 2
Flags: W
LayerCount: 2
Fore
SplineSet
489 291 m 0,0,1
 489 159 489 159 430 72.5 c 128,-1,2
 371 -14 371 -14 273.5 -14 c 128,-1,3
 176 -14 176 -14 116.5 48.5 c 128,-1,4
 57 111 57 111 57 222 c 128,-1,5
 57 333 57 333 127 403.5 c 128,-1,6
 197 474 197 474 287 474 c 0,7,8
 344 474 344 474 390 450 c 1,9,10
 360 531 360 531 297 584 c 1,11,-1
 213 524 l 1,12,-1
 180 568 l 1,13,-1
 250 618 l 1,14,15
 188 654 188 654 111 662 c 1,16,-1
 119 722 l 1,17,18
 225 708 225 708 306 658 c 1,19,-1
 403 727 l 1,20,-1
 435 683 l 1,21,-1
 352 624 l 1,22,23
 423 562 423 562 456 473 c 128,-1,24
 489 384 489 384 489 291 c 0,0,1
417 291 m 0,25,26
 417 332 417 332 411 369 c 1,27,28
 362 408 362 408 297.5 408 c 128,-1,29
 233 408 233 408 183 355.5 c 128,-1,30
 133 303 133 303 133 220.5 c 128,-1,31
 133 138 133 138 171 95 c 128,-1,32
 209 52 209 52 271 52 c 128,-1,33
 333 52 333 52 375 113 c 128,-1,34
 417 174 417 174 417 291 c 0,25,26
EndSplineSet
EndChar

StartChar: ntilde
Encoding: 241 241 177
Width: 569
GlyphClass: 2
Flags: W
LayerCount: 2
Fore
SplineSet
330 514 m 0,0,1
 494 514 494 514 494 304 c 2,2,-1
 494 0 l 1,3,-1
 418 0 l 1,4,-1
 418 304 l 2,5,6
 418 446 418 446 317 446 c 0,7,8
 257 446 257 446 209 383.5 c 128,-1,9
 161 321 161 321 161 210 c 2,10,-1
 161 0 l 1,11,-1
 85 0 l 1,12,-1
 85 400 l 1,13,-1
 75 500 l 1,14,-1
 141 505 l 1,15,-1
 160 402 l 1,16,17
 191 456 191 456 237 485 c 128,-1,18
 283 514 283 514 330 514 c 0,0,1
365 590 m 0,19,20
 340 590 340 590 296 605 c 128,-1,21
 252 620 252 620 233 620 c 0,22,23
 193 620 193 620 186 576 c 1,24,-1
 139 584 l 1,25,26
 157 692 157 692 226 692 c 0,27,28
 252 692 252 692 297 677 c 128,-1,29
 342 662 342 662 362 662 c 0,30,31
 402 662 402 662 409 706 c 1,32,-1
 456 698 l 1,33,34
 437 590 437 590 365 590 c 0,19,20
EndSplineSet
EndChar

StartChar: ograve
Encoding: 242 242 178
Width: 541
GlyphClass: 2
Flags: W
LayerCount: 2
Fore
SplineSet
50 250 m 128,-1,1
 50 367 50 367 105 440.5 c 128,-1,2
 160 514 160 514 269.5 514 c 128,-1,3
 379 514 379 514 435 440.5 c 128,-1,4
 491 367 491 367 491 250 c 128,-1,5
 491 133 491 133 435 59.5 c 128,-1,6
 379 -14 379 -14 269.5 -14 c 128,-1,7
 160 -14 160 -14 105 59.5 c 128,-1,0
 50 133 50 133 50 250 c 128,-1,1
126 250 m 128,-1,9
 126 163 126 163 162 108.5 c 128,-1,10
 198 54 198 54 270 54 c 128,-1,11
 342 54 342 54 378.5 108.5 c 128,-1,12
 415 163 415 163 415 250 c 128,-1,13
 415 337 415 337 378.5 391.5 c 128,-1,14
 342 446 342 446 270 446 c 128,-1,15
 198 446 198 446 162 391.5 c 128,-1,8
 126 337 126 337 126 250 c 128,-1,9
200 735 m 0,16,17
 226 735 226 735 252 700 c 2,18,-1
 354 560 l 1,19,-1
 330 535 l 1,20,-1
 150 682 l 1,21,22
 168 735 168 735 200 735 c 0,16,17
EndSplineSet
EndChar

StartChar: oacute
Encoding: 243 243 179
Width: 541
GlyphClass: 2
Flags: W
LayerCount: 2
Fore
SplineSet
50 250 m 128,-1,1
 50 367 50 367 105 440.5 c 128,-1,2
 160 514 160 514 269.5 514 c 128,-1,3
 379 514 379 514 435 440.5 c 128,-1,4
 491 367 491 367 491 250 c 128,-1,5
 491 133 491 133 435 59.5 c 128,-1,6
 379 -14 379 -14 269.5 -14 c 128,-1,7
 160 -14 160 -14 105 59.5 c 128,-1,0
 50 133 50 133 50 250 c 128,-1,1
126 250 m 128,-1,9
 126 163 126 163 162 108.5 c 128,-1,10
 198 54 198 54 270 54 c 128,-1,11
 342 54 342 54 378.5 108.5 c 128,-1,12
 415 163 415 163 415 250 c 128,-1,13
 415 337 415 337 378.5 391.5 c 128,-1,14
 342 446 342 446 270 446 c 128,-1,15
 198 446 198 446 162 391.5 c 128,-1,8
 126 337 126 337 126 250 c 128,-1,9
360 735 m 0,16,17
 392 735 392 735 410 682 c 1,18,-1
 230 535 l 1,19,-1
 206 560 l 1,20,-1
 308 700 l 2,21,22
 334 735 334 735 360 735 c 0,16,17
EndSplineSet
EndChar

StartChar: ocircumflex
Encoding: 244 244 180
Width: 541
GlyphClass: 2
Flags: W
LayerCount: 2
Fore
SplineSet
50 250 m 128,-1,1
 50 367 50 367 105 440.5 c 128,-1,2
 160 514 160 514 269.5 514 c 128,-1,3
 379 514 379 514 435 440.5 c 128,-1,4
 491 367 491 367 491 250 c 128,-1,5
 491 133 491 133 435 59.5 c 128,-1,6
 379 -14 379 -14 269.5 -14 c 128,-1,7
 160 -14 160 -14 105 59.5 c 128,-1,0
 50 133 50 133 50 250 c 128,-1,1
126 250 m 128,-1,9
 126 163 126 163 162 108.5 c 128,-1,10
 198 54 198 54 270 54 c 128,-1,11
 342 54 342 54 378.5 108.5 c 128,-1,12
 415 163 415 163 415 250 c 128,-1,13
 415 337 415 337 378.5 391.5 c 128,-1,14
 342 446 342 446 270 446 c 128,-1,15
 198 446 198 446 162 391.5 c 128,-1,8
 126 337 126 337 126 250 c 128,-1,9
226 699 m 2,16,17
 245 727 245 727 269.5 727 c 128,-1,18
 294 727 294 727 314 699 c 2,19,-1
 411 562 l 1,20,-1
 387 537 l 1,21,-1
 270 644 l 1,22,-1
 153 537 l 1,23,-1
 129 562 l 1,24,-1
 226 699 l 2,16,17
EndSplineSet
EndChar

StartChar: otilde
Encoding: 245 245 181
Width: 541
GlyphClass: 2
Flags: W
LayerCount: 2
Fore
SplineSet
50 250 m 128,-1,1
 50 367 50 367 105 440.5 c 128,-1,2
 160 514 160 514 269.5 514 c 128,-1,3
 379 514 379 514 435 440.5 c 128,-1,4
 491 367 491 367 491 250 c 128,-1,5
 491 133 491 133 435 59.5 c 128,-1,6
 379 -14 379 -14 269.5 -14 c 128,-1,7
 160 -14 160 -14 105 59.5 c 128,-1,0
 50 133 50 133 50 250 c 128,-1,1
126 250 m 128,-1,9
 126 163 126 163 162 108.5 c 128,-1,10
 198 54 198 54 270 54 c 128,-1,11
 342 54 342 54 378.5 108.5 c 128,-1,12
 415 163 415 163 415 250 c 128,-1,13
 415 337 415 337 378.5 391.5 c 128,-1,14
 342 446 342 446 270 446 c 128,-1,15
 198 446 198 446 162 391.5 c 128,-1,8
 126 337 126 337 126 250 c 128,-1,9
338 590 m 0,16,17
 312 590 312 590 269 605 c 128,-1,18
 226 620 226 620 206 620 c 0,19,20
 166 620 166 620 159 576 c 1,21,-1
 112 584 l 1,22,23
 130 692 130 692 199 692 c 0,24,25
 224 692 224 692 270 677 c 128,-1,26
 316 662 316 662 335 662 c 0,27,28
 375 662 375 662 382 706 c 1,29,-1
 429 698 l 1,30,31
 410 590 410 590 338 590 c 0,16,17
EndSplineSet
EndChar

StartChar: odieresis
Encoding: 246 246 182
Width: 541
GlyphClass: 2
Flags: W
LayerCount: 2
Fore
SplineSet
50 250 m 128,-1,1
 50 367 50 367 105 440.5 c 128,-1,2
 160 514 160 514 269.5 514 c 128,-1,3
 379 514 379 514 435 440.5 c 128,-1,4
 491 367 491 367 491 250 c 128,-1,5
 491 133 491 133 435 59.5 c 128,-1,6
 379 -14 379 -14 269.5 -14 c 128,-1,7
 160 -14 160 -14 105 59.5 c 128,-1,0
 50 133 50 133 50 250 c 128,-1,1
126 250 m 128,-1,9
 126 163 126 163 162 108.5 c 128,-1,10
 198 54 198 54 270 54 c 128,-1,11
 342 54 342 54 378.5 108.5 c 128,-1,12
 415 163 415 163 415 250 c 128,-1,13
 415 337 415 337 378.5 391.5 c 128,-1,14
 342 446 342 446 270 446 c 128,-1,15
 198 446 198 446 162 391.5 c 128,-1,8
 126 337 126 337 126 250 c 128,-1,9
311 644 m 128,-1,17
 311 665 311 665 323 678.5 c 128,-1,18
 335 692 335 692 358 692 c 128,-1,19
 381 692 381 692 394 678 c 128,-1,20
 407 664 407 664 407 644 c 128,-1,21
 407 624 407 624 394 610 c 128,-1,22
 381 596 381 596 358 596 c 128,-1,23
 335 596 335 596 323 609.5 c 128,-1,16
 311 623 311 623 311 644 c 128,-1,17
133 644 m 128,-1,25
 133 665 133 665 145 678.5 c 128,-1,26
 157 692 157 692 180 692 c 128,-1,27
 203 692 203 692 216 678 c 128,-1,28
 229 664 229 664 229 644 c 128,-1,29
 229 624 229 624 216 610 c 128,-1,30
 203 596 203 596 180 596 c 128,-1,31
 157 596 157 596 145 609.5 c 128,-1,24
 133 623 133 623 133 644 c 128,-1,25
EndSplineSet
EndChar

StartChar: divide
Encoding: 247 247 183
Width: 518
GlyphClass: 2
Flags: W
LayerCount: 2
Fore
SplineSet
203 453 m 128,-1,1
 203 477 203 477 217.5 493 c 128,-1,2
 232 509 232 509 259 509 c 128,-1,3
 286 509 286 509 300.5 493 c 128,-1,4
 315 477 315 477 315 453 c 128,-1,5
 315 429 315 429 300.5 413 c 128,-1,6
 286 397 286 397 259 397 c 128,-1,7
 232 397 232 397 217.5 413 c 128,-1,0
 203 429 203 429 203 453 c 128,-1,1
47 275 m 1,8,-1
 47 347 l 1,9,-1
 471 347 l 1,10,-1
 471 275 l 1,11,-1
 47 275 l 1,8,-1
203 169 m 128,-1,13
 203 193 203 193 217.5 209 c 128,-1,14
 232 225 232 225 259 225 c 128,-1,15
 286 225 286 225 300.5 209 c 128,-1,16
 315 193 315 193 315 169 c 128,-1,17
 315 145 315 145 300.5 129 c 128,-1,18
 286 113 286 113 259 113 c 128,-1,19
 232 113 232 113 217.5 129 c 128,-1,12
 203 145 203 145 203 169 c 128,-1,13
EndSplineSet
EndChar

StartChar: oslash
Encoding: 248 248 184
Width: 541
GlyphClass: 2
Flags: W
LayerCount: 2
Fore
SplineSet
50 250 m 0,0,1
 50 367 50 367 105 440.5 c 128,-1,2
 160 514 160 514 270 514 c 0,3,4
 300 514 300 514 327 508 c 1,5,-1
 358 598 l 1,6,-1
 417 598 l 1,7,-1
 379 488 l 1,8,9
 491 425 491 425 491 250 c 0,10,11
 491 133 491 133 435 59.5 c 128,-1,12
 379 -14 379 -14 270 -14 c 0,13,14
 234 -14 234 -14 207 -7 c 1,15,-1
 177 -94 l 1,16,-1
 119 -94 l 1,17,-1
 156 14 l 1,18,19
 50 76 50 76 50 250 c 0,0,1
415 250 m 0,20,21
 415 368 415 368 354 417 c 1,22,-1
 230 59 l 1,23,24
 245 54 245 54 270 54 c 0,25,26
 342 54 342 54 378.5 108.5 c 128,-1,27
 415 163 415 163 415 250 c 0,20,21
126 250 m 0,28,29
 126 137 126 137 181 86 c 1,30,-1
 304 442 l 1,31,32
 284 446 284 446 270 446 c 0,33,34
 198 446 198 446 162 391.5 c 128,-1,35
 126 337 126 337 126 250 c 0,28,29
EndSplineSet
EndChar

StartChar: ugrave
Encoding: 249 249 185
Width: 569
GlyphClass: 2
Flags: W
LayerCount: 2
Fore
SplineSet
75 500 m 1,0,-1
 151 500 l 1,1,-1
 151 196 l 2,2,3
 151 54 151 54 252 54 c 0,4,5
 310 54 310 54 357.5 113.5 c 128,-1,6
 405 173 405 173 408 278 c 1,7,-1
 408 500 l 1,8,-1
 484 500 l 1,9,-1
 484 100 l 1,10,-1
 494 0 l 1,11,-1
 428 -5 l 1,12,-1
 408 98 l 1,13,14
 378 44 378 44 332 15 c 128,-1,15
 286 -14 286 -14 239 -14 c 0,16,17
 75 -14 75 -14 75 196 c 2,18,-1
 75 500 l 1,0,-1
214 735 m 0,19,20
 240 735 240 735 266 700 c 2,21,-1
 368 560 l 1,22,-1
 344 535 l 1,23,-1
 164 682 l 1,24,25
 182 735 182 735 214 735 c 0,19,20
EndSplineSet
EndChar

StartChar: uacute
Encoding: 250 250 186
Width: 569
GlyphClass: 2
Flags: W
LayerCount: 2
Fore
SplineSet
75 500 m 1,0,-1
 151 500 l 1,1,-1
 151 196 l 2,2,3
 151 54 151 54 252 54 c 0,4,5
 310 54 310 54 357.5 113.5 c 128,-1,6
 405 173 405 173 408 278 c 1,7,-1
 408 500 l 1,8,-1
 484 500 l 1,9,-1
 484 100 l 1,10,-1
 494 0 l 1,11,-1
 428 -5 l 1,12,-1
 408 98 l 1,13,14
 378 44 378 44 332 15 c 128,-1,15
 286 -14 286 -14 239 -14 c 0,16,17
 75 -14 75 -14 75 196 c 2,18,-1
 75 500 l 1,0,-1
374 735 m 0,19,20
 406 735 406 735 424 682 c 1,21,-1
 244 535 l 1,22,-1
 220 560 l 1,23,-1
 322 700 l 2,24,25
 348 735 348 735 374 735 c 0,19,20
EndSplineSet
EndChar

StartChar: ucircumflex
Encoding: 251 251 187
Width: 569
GlyphClass: 2
Flags: W
LayerCount: 2
Fore
SplineSet
75 500 m 1,0,-1
 151 500 l 1,1,-1
 151 196 l 2,2,3
 151 54 151 54 252 54 c 0,4,5
 310 54 310 54 357.5 113.5 c 128,-1,6
 405 173 405 173 408 278 c 1,7,-1
 408 500 l 1,8,-1
 484 500 l 1,9,-1
 484 100 l 1,10,-1
 494 0 l 1,11,-1
 428 -5 l 1,12,-1
 408 98 l 1,13,14
 378 44 378 44 332 15 c 128,-1,15
 286 -14 286 -14 239 -14 c 0,16,17
 75 -14 75 -14 75 196 c 2,18,-1
 75 500 l 1,0,-1
240 699 m 2,19,20
 259 727 259 727 283.5 727 c 128,-1,21
 308 727 308 727 328 699 c 2,22,-1
 425 562 l 1,23,-1
 401 537 l 1,24,-1
 284 644 l 1,25,-1
 167 537 l 1,26,-1
 143 562 l 1,27,-1
 240 699 l 2,19,20
EndSplineSet
EndChar

StartChar: udieresis
Encoding: 252 252 188
Width: 569
GlyphClass: 2
Flags: W
LayerCount: 2
Fore
SplineSet
75 500 m 1,0,-1
 151 500 l 1,1,-1
 151 196 l 2,2,3
 151 54 151 54 252 54 c 0,4,5
 310 54 310 54 357.5 113.5 c 128,-1,6
 405 173 405 173 408 278 c 1,7,-1
 408 500 l 1,8,-1
 484 500 l 1,9,-1
 484 100 l 1,10,-1
 494 0 l 1,11,-1
 428 -5 l 1,12,-1
 408 98 l 1,13,14
 378 44 378 44 332 15 c 128,-1,15
 286 -14 286 -14 239 -14 c 0,16,17
 75 -14 75 -14 75 196 c 2,18,-1
 75 500 l 1,0,-1
147 644 m 128,-1,20
 147 665 147 665 159 678.5 c 128,-1,21
 171 692 171 692 194 692 c 128,-1,22
 217 692 217 692 230 678 c 128,-1,23
 243 664 243 664 243 644 c 128,-1,24
 243 624 243 624 230 610 c 128,-1,25
 217 596 217 596 194 596 c 128,-1,26
 171 596 171 596 159 609.5 c 128,-1,19
 147 623 147 623 147 644 c 128,-1,20
325 644 m 128,-1,28
 325 665 325 665 337 678.5 c 128,-1,29
 349 692 349 692 372 692 c 128,-1,30
 395 692 395 692 408 678 c 128,-1,31
 421 664 421 664 421 644 c 128,-1,32
 421 624 421 624 408 610 c 128,-1,33
 395 596 395 596 372 596 c 128,-1,34
 349 596 349 596 337 609.5 c 128,-1,27
 325 623 325 623 325 644 c 128,-1,28
EndSplineSet
EndChar

StartChar: yacute
Encoding: 253 253 189
Width: 475
GlyphClass: 2
Flags: W
LayerCount: 2
Fore
SplineSet
197 -239 m 1,0,-1
 132 -217 l 1,1,-1
 200 -26 l 1,2,-1
 5 500 l 1,3,-1
 87 500 l 1,4,-1
 238 82 l 1,5,-1
 387 500 l 1,6,-1
 467 500 l 1,7,-1
 197 -239 l 1,0,-1
342 735 m 0,8,9
 374 735 374 735 392 682 c 1,10,-1
 212 535 l 1,11,-1
 188 560 l 1,12,-1
 290 700 l 2,13,14
 316 735 316 735 342 735 c 0,8,9
EndSplineSet
EndChar

StartChar: thorn
Encoding: 254 254 190
Width: 564
GlyphClass: 2
Flags: W
LayerCount: 2
Fore
SplineSet
85 700 m 1,0,-1
 161 700 l 1,1,-1
 161 418 l 1,2,3
 216 514 216 514 323 514 c 0,4,5
 407 514 407 514 460.5 449 c 128,-1,6
 514 384 514 384 514 261.5 c 128,-1,7
 514 139 514 139 444.5 62.5 c 128,-1,8
 375 -14 375 -14 268 -14 c 0,9,10
 217 -14 217 -14 161 6 c 1,11,-1
 161 -225 l 1,12,-1
 85 -225 l 1,13,-1
 85 700 l 1,0,-1
404 398.5 m 128,-1,15
 370 446 370 446 307.5 446 c 128,-1,16
 245 446 245 446 203 388 c 128,-1,17
 161 330 161 330 161 210 c 2,18,-1
 161 78 l 1,19,20
 207 54 207 54 274.5 54 c 128,-1,21
 342 54 342 54 390 111.5 c 128,-1,22
 438 169 438 169 438 260 c 128,-1,14
 438 351 438 351 404 398.5 c 128,-1,15
EndSplineSet
EndChar

StartChar: ydieresis
Encoding: 255 255 191
Width: 475
GlyphClass: 2
Flags: W
LayerCount: 2
Fore
SplineSet
197 -239 m 1,0,-1
 132 -217 l 1,1,-1
 200 -26 l 1,2,-1
 5 500 l 1,3,-1
 87 500 l 1,4,-1
 238 82 l 1,5,-1
 387 500 l 1,6,-1
 467 500 l 1,7,-1
 197 -239 l 1,0,-1
150 644 m 128,-1,9
 150 665 150 665 162 678.5 c 128,-1,10
 174 692 174 692 197 692 c 128,-1,11
 220 692 220 692 233 678 c 128,-1,12
 246 664 246 664 246 644 c 128,-1,13
 246 624 246 624 233 610 c 128,-1,14
 220 596 220 596 197 596 c 128,-1,15
 174 596 174 596 162 609.5 c 128,-1,8
 150 623 150 623 150 644 c 128,-1,9
328 644 m 128,-1,17
 328 665 328 665 340 678.5 c 128,-1,18
 352 692 352 692 375 692 c 128,-1,19
 398 692 398 692 411 678 c 128,-1,20
 424 664 424 664 424 644 c 128,-1,21
 424 624 424 624 411 610 c 128,-1,22
 398 596 398 596 375 596 c 128,-1,23
 352 596 352 596 340 609.5 c 128,-1,16
 328 623 328 623 328 644 c 128,-1,17
EndSplineSet
EndChar

StartChar: dotlessi
Encoding: 305 305 192
Width: 256
GlyphClass: 2
Flags: W
LayerCount: 2
Fore
SplineSet
90 0 m 1,0,-1
 90 500 l 1,1,-1
 166 500 l 1,2,-1
 166 0 l 1,3,-1
 90 0 l 1,0,-1
EndSplineSet
EndChar

StartChar: Lslash
Encoding: 321 321 193
Width: 447
GlyphClass: 2
Flags: W
LayerCount: 2
Fore
SplineSet
170 72 m 1,0,-1
 447 72 l 1,1,-1
 447 0 l 1,2,-1
 90 0 l 1,3,-1
 90 286 l 1,4,-1
 17 234 l 1,5,-1
 -16 278 l 1,6,-1
 90 354 l 1,7,-1
 90 680 l 1,8,-1
 170 680 l 1,9,-1
 170 411 l 1,10,-1
 272 485 l 1,11,-1
 304 441 l 1,12,-1
 170 344 l 1,13,-1
 170 72 l 1,0,-1
EndSplineSet
EndChar

StartChar: lslash
Encoding: 322 322 194
Width: 263
GlyphClass: 2
Flags: W
LayerCount: 2
Fore
SplineSet
75 700 m 1,0,-1
 151 700 l 1,1,-1
 151 397 l 1,2,-1
 241 462 l 1,3,-1
 273 418 l 1,4,-1
 151 330 l 1,5,-1
 151 110 l 2,6,7
 151 55 151 55 196 55 c 0,8,9
 225 55 225 55 253 75 c 1,10,-1
 283 21 l 1,11,12
 228 -14 228 -14 179 -14 c 128,-1,13
 130 -14 130 -14 102.5 13 c 128,-1,14
 75 40 75 40 75 110 c 2,15,-1
 75 275 l 1,16,-1
 17 234 l 1,17,-1
 -16 278 l 1,18,-1
 75 343 l 1,19,-1
 75 700 l 1,0,-1
EndSplineSet
EndChar

StartChar: OE
Encoding: 338 338 195
Width: 815
GlyphClass: 2
Flags: W
LayerCount: 2
Fore
SplineSet
336 0 m 2,0,1
 193 0 193 0 121.5 94.5 c 128,-1,2
 50 189 50 189 50 340 c 128,-1,3
 50 491 50 491 121.5 585.5 c 128,-1,4
 193 680 193 680 336 680 c 2,5,-1
 753 680 l 1,6,-1
 753 608 l 1,7,-1
 463 608 l 1,8,-1
 463 376 l 1,9,-1
 700 376 l 1,10,-1
 700 304 l 1,11,-1
 463 304 l 1,12,-1
 463 72 l 1,13,-1
 773 72 l 1,14,-1
 773 0 l 1,15,-1
 336 0 l 2,0,1
130 340 m 128,-1,17
 130 221 130 221 181.5 146.5 c 128,-1,18
 233 72 233 72 336 72 c 2,19,-1
 383 72 l 1,20,-1
 383 608 l 1,21,-1
 336 608 l 2,22,23
 233 608 233 608 181.5 533.5 c 128,-1,16
 130 459 130 459 130 340 c 128,-1,17
EndSplineSet
EndChar

StartChar: oe
Encoding: 339 339 196
Width: 778
GlyphClass: 2
Flags: W
LayerCount: 2
Fore
SplineSet
546 -14 m 0,0,1
 466 -14 466 -14 412 34 c 1,2,3
 358 -14 358 -14 270 -14 c 0,4,5
 160 -14 160 -14 105 59.5 c 128,-1,6
 50 133 50 133 50 250 c 128,-1,7
 50 367 50 367 105 440.5 c 128,-1,8
 160 514 160 514 264 514 c 128,-1,9
 368 514 368 514 425 452 c 1,10,11
 492 514 492 514 587 514 c 0,12,13
 657 514 657 514 700 471.5 c 128,-1,14
 743 429 743 429 743 365.5 c 128,-1,15
 743 302 743 302 677.5 249 c 128,-1,16
 612 196 612 196 487 196 c 0,17,18
 454 196 454 196 417 199 c 1,19,20
 424 128 424 128 460.5 91 c 128,-1,21
 497 54 497 54 549 54 c 0,22,23
 636 54 636 54 694 108 c 1,24,-1
 730 59 l 1,25,26
 654 -14 654 -14 546 -14 c 0,0,1
162 108.5 m 128,-1,28
 198 54 198 54 266.5 54 c 128,-1,29
 335 54 335 54 370 89 c 1,30,31
 339 146 339 146 339 236.5 c 128,-1,32
 339 327 339 327 381 397 c 1,33,34
 345 446 345 446 271.5 446 c 128,-1,35
 198 446 198 446 162 391.5 c 128,-1,36
 126 337 126 337 126 250 c 128,-1,27
 126 163 126 163 162 108.5 c 128,-1,28
584 446 m 0,37,38
 515 446 515 446 469.5 397 c 128,-1,39
 424 348 424 348 416 267 c 1,40,41
 448 262 448 262 489 262 c 0,42,43
 575 262 575 262 621 294 c 128,-1,44
 667 326 667 326 667 368 c 0,45,46
 667 399 667 399 644.5 422.5 c 128,-1,47
 622 446 622 446 584 446 c 0,37,38
EndSplineSet
EndChar

StartChar: Scaron
Encoding: 352 352 197
Width: 511
GlyphClass: 2
Flags: W
LayerCount: 2
Fore
SplineSet
154.5 81 m 128,-1,1
 203 59 203 59 260.5 59 c 128,-1,2
 318 59 318 59 359.5 89 c 128,-1,3
 401 119 401 119 401 173.5 c 128,-1,4
 401 228 401 228 365.5 259 c 128,-1,5
 330 290 330 290 279.5 306 c 128,-1,6
 229 322 229 322 178.5 340 c 128,-1,7
 128 358 128 358 92.5 399.5 c 128,-1,8
 57 441 57 441 57 509 c 0,9,10
 57 602 57 602 117.5 649 c 128,-1,11
 178 696 178 696 260 696 c 0,12,13
 373 696 373 696 447 649 c 1,14,-1
 407 585 l 1,15,16
 350 621 350 621 259 621 c 0,17,18
 211 621 211 621 174 594 c 128,-1,19
 137 567 137 567 137 514 c 0,20,21
 137 447 137 447 206 416 c 0,22,23
 236 402 236 402 272.5 391 c 128,-1,24
 309 380 309 380 345.5 365 c 128,-1,25
 382 350 382 350 412 329 c 0,26,27
 481 282 481 282 481 182.5 c 128,-1,28
 481 83 481 83 417.5 33.5 c 128,-1,29
 354 -16 354 -16 257 -16 c 0,30,31
 128 -16 128 -16 30 76 c 1,32,-1
 76 136 l 1,33,0
 106 103 106 103 154.5 81 c 128,-1,1
299 745 m 2,34,35
 279 717 279 717 254.5 717 c 128,-1,36
 230 717 230 717 211 745 c 2,37,-1
 114 882 l 1,38,-1
 138 907 l 1,39,-1
 255 800 l 1,40,-1
 372 907 l 1,41,-1
 396 882 l 1,42,-1
 299 745 l 2,34,35
EndSplineSet
EndChar

StartChar: scaron
Encoding: 353 353 198
Width: 431
GlyphClass: 2
Flags: W
LayerCount: 2
Fore
SplineSet
216 55 m 0,0,1
 260 55 260 55 290 76 c 128,-1,2
 320 97 320 97 320 128.5 c 128,-1,3
 320 160 320 160 303 178.5 c 128,-1,4
 286 197 286 197 266.5 205 c 128,-1,5
 247 213 247 213 211 223.5 c 128,-1,6
 175 234 175 234 156 241.5 c 128,-1,7
 137 249 137 249 111 265 c 0,8,9
 62 295 62 295 62 367.5 c 128,-1,10
 62 440 62 440 111 477 c 128,-1,11
 160 514 160 514 226 514 c 0,12,13
 267 514 267 514 308.5 503 c 128,-1,14
 350 492 350 492 371 480 c 1,15,-1
 343 419 l 1,16,17
 295 445 295 445 226 445 c 0,18,19
 191 445 191 445 164.5 426.5 c 128,-1,20
 138 408 138 408 138 379.5 c 128,-1,21
 138 351 138 351 154 335 c 128,-1,22
 170 319 170 319 187 312 c 128,-1,23
 204 305 204 305 239 295 c 128,-1,24
 274 285 274 285 295.5 276.5 c 128,-1,25
 317 268 317 268 344 250 c 0,26,27
 396 215 396 215 396 139.5 c 128,-1,28
 396 64 396 64 344.5 25 c 128,-1,29
 293 -14 293 -14 216 -14 c 0,30,31
 112 -14 112 -14 40 53 c 1,32,-1
 81 108 l 1,33,34
 136 55 136 55 216 55 c 0,0,1
275 565 m 2,35,36
 255 537 255 537 230.5 537 c 128,-1,37
 206 537 206 537 187 565 c 2,38,-1
 90 702 l 1,39,-1
 114 727 l 1,40,-1
 231 620 l 1,41,-1
 348 727 l 1,42,-1
 372 702 l 1,43,-1
 275 565 l 2,35,36
EndSplineSet
EndChar

StartChar: Ydieresis
Encoding: 376 376 199
Width: 528
GlyphClass: 2
Flags: W
LayerCount: 2
Fore
SplineSet
224 0 m 1,0,-1
 224 235 l 1,1,-1
 0 680 l 1,2,-1
 88 680 l 1,3,-1
 264 314 l 1,4,-1
 440 680 l 1,5,-1
 528 680 l 1,6,-1
 304 235 l 1,7,-1
 304 0 l 1,8,-1
 224 0 l 1,0,-1
305 824 m 128,-1,10
 305 845 305 845 317 858.5 c 128,-1,11
 329 872 329 872 352 872 c 128,-1,12
 375 872 375 872 388 858 c 128,-1,13
 401 844 401 844 401 824 c 128,-1,14
 401 804 401 804 388 790 c 128,-1,15
 375 776 375 776 352 776 c 128,-1,16
 329 776 329 776 317 789.5 c 128,-1,9
 305 803 305 803 305 824 c 128,-1,10
127 824 m 128,-1,18
 127 845 127 845 139 858.5 c 128,-1,19
 151 872 151 872 174 872 c 128,-1,20
 197 872 197 872 210 858 c 128,-1,21
 223 844 223 844 223 824 c 128,-1,22
 223 804 223 804 210 790 c 128,-1,23
 197 776 197 776 174 776 c 128,-1,24
 151 776 151 776 139 789.5 c 128,-1,17
 127 803 127 803 127 824 c 128,-1,18
EndSplineSet
EndChar

StartChar: Zcaron
Encoding: 381 381 200
Width: 501
GlyphClass: 2
Flags: W
LayerCount: 2
Fore
SplineSet
486 0 m 1,0,-1
 15 0 l 1,1,-1
 15 68 l 1,2,-1
 369 608 l 1,3,-1
 40 608 l 1,4,-1
 40 680 l 1,5,-1
 481 680 l 1,6,-1
 481 639 l 1,7,-1
 110 72 l 1,8,-1
 486 72 l 1,9,-1
 486 0 l 1,0,-1
294 745 m 2,10,11
 274 717 274 717 249.5 717 c 128,-1,12
 225 717 225 717 206 745 c 2,13,-1
 109 882 l 1,14,-1
 133 907 l 1,15,-1
 250 800 l 1,16,-1
 367 907 l 1,17,-1
 391 882 l 1,18,-1
 294 745 l 2,10,11
EndSplineSet
EndChar

StartChar: zcaron
Encoding: 382 382 201
Width: 420
GlyphClass: 2
Flags: W
LayerCount: 2
Fore
SplineSet
42 435 m 1,0,-1
 42 500 l 1,1,-1
 400 500 l 1,2,-1
 138 65 l 1,3,-1
 399 65 l 1,4,-1
 399 0 l 1,5,-1
 11 0 l 1,6,-1
 271 435 l 1,7,-1
 42 435 l 1,0,-1
262 565 m 2,8,9
 242 537 242 537 217.5 537 c 128,-1,10
 193 537 193 537 174 565 c 2,11,-1
 77 702 l 1,12,-1
 101 727 l 1,13,-1
 218 620 l 1,14,-1
 335 727 l 1,15,-1
 359 702 l 1,16,-1
 262 565 l 2,8,9
EndSplineSet
EndChar

StartChar: florin
Encoding: 402 402 202
Width: 518
GlyphClass: 2
Flags: W
LayerCount: 2
Fore
SplineSet
55 268 m 1,0,-1
 55 333 l 1,1,-1
 190 333 l 1,2,-1
 190 352 l 2,3,4
 190 499 190 499 248.5 567.5 c 128,-1,5
 307 636 307 636 408 636 c 0,6,7
 438 636 438 636 470 631 c 1,8,-1
 455 566 l 1,9,10
 427 571 427 571 400 571 c 0,11,12
 261 571 261 571 261 352 c 2,13,-1
 261 333 l 1,14,-1
 398 333 l 1,15,-1
 398 268 l 1,16,-1
 261 268 l 1,17,-1
 261 -13 l 2,18,19
 261 -176 261 -176 137 -176 c 0,20,21
 80 -176 80 -176 18 -136 c 1,22,-1
 48 -82 l 1,23,24
 100 -105 100 -105 129 -105 c 0,25,26
 190 -105 190 -105 190 -17 c 2,27,-1
 190 268 l 1,28,-1
 55 268 l 1,0,-1
EndSplineSet
EndChar

StartChar: circumflex
Encoding: 710 710 203
Width: 342
GlyphClass: 2
Flags: W
LayerCount: 2
Fore
SplineSet
127 699 m 2,0,1
 146 727 146 727 170.5 727 c 128,-1,2
 195 727 195 727 215 699 c 2,3,-1
 312 562 l 1,4,-1
 288 537 l 1,5,-1
 171 644 l 1,6,-1
 54 537 l 1,7,-1
 30 562 l 1,8,-1
 127 699 l 2,0,1
EndSplineSet
EndChar

StartChar: caron
Encoding: 711 711 204
Width: 342
GlyphClass: 2
Flags: W
LayerCount: 2
Fore
SplineSet
215 565 m 2,0,1
 195 537 195 537 170.5 537 c 128,-1,2
 146 537 146 537 127 565 c 2,3,-1
 30 702 l 1,4,-1
 54 727 l 1,5,-1
 171 620 l 1,6,-1
 288 727 l 1,7,-1
 312 702 l 1,8,-1
 215 565 l 2,0,1
EndSplineSet
EndChar

StartChar: breve
Encoding: 728 728 205
Width: 304
GlyphClass: 2
Flags: W
LayerCount: 2
Fore
SplineSet
30 694 m 1,0,-1
 92 694 l 1,1,2
 92 667 92 667 107.5 649.5 c 128,-1,3
 123 632 123 632 151.5 632 c 128,-1,4
 180 632 180 632 196 650 c 128,-1,5
 212 668 212 668 212 694 c 1,6,-1
 274 694 l 1,7,8
 274 641 274 641 242 606 c 128,-1,9
 210 571 210 571 151.5 571 c 128,-1,10
 93 571 93 571 61.5 606 c 128,-1,11
 30 641 30 641 30 694 c 1,0,-1
EndSplineSet
EndChar

StartChar: dotaccent
Encoding: 729 729 206
Width: 176
GlyphClass: 2
Flags: W
LayerCount: 2
Fore
SplineSet
30 644 m 128,-1,1
 30 669 30 669 45 685.5 c 128,-1,2
 60 702 60 702 87.5 702 c 128,-1,3
 115 702 115 702 130.5 685 c 128,-1,4
 146 668 146 668 146 644 c 128,-1,5
 146 620 146 620 130.5 603 c 128,-1,6
 115 586 115 586 87.5 586 c 128,-1,7
 60 586 60 586 45 602.5 c 128,-1,0
 30 619 30 619 30 644 c 128,-1,1
EndSplineSet
EndChar

StartChar: ring
Encoding: 730 730 207
Width: 262
GlyphClass: 2
Flags: W
LayerCount: 2
Fore
SplineSet
30 638 m 128,-1,1
 30 682 30 682 56 710.5 c 128,-1,2
 82 739 82 739 130.5 739 c 128,-1,3
 179 739 179 739 205.5 710 c 128,-1,4
 232 681 232 681 232 638 c 128,-1,5
 232 595 232 595 205.5 566 c 128,-1,6
 179 537 179 537 130.5 537 c 128,-1,7
 82 537 82 537 56 565.5 c 128,-1,0
 30 594 30 594 30 638 c 128,-1,1
81 638 m 128,-1,9
 81 616 81 616 94 602 c 128,-1,10
 107 588 107 588 130.5 588 c 128,-1,11
 154 588 154 588 167.5 602.5 c 128,-1,12
 181 617 181 617 181 638 c 128,-1,13
 181 659 181 659 167.5 673.5 c 128,-1,14
 154 688 154 688 130.5 688 c 128,-1,15
 107 688 107 688 94 674 c 128,-1,8
 81 660 81 660 81 638 c 128,-1,9
EndSplineSet
EndChar

StartChar: ogonek
Encoding: 731 731 208
Width: 474
GlyphClass: 2
Flags: W
LayerCount: 2
Fore
SplineSet
219 -116 m 0,0,1
 219 -133 219 -133 228.5 -144 c 128,-1,2
 238 -155 238 -155 261 -155 c 128,-1,3
 284 -155 284 -155 306 -133 c 1,4,-1
 332 -167 l 1,5,6
 317 -185 317 -185 292 -196 c 128,-1,7
 267 -207 267 -207 235.5 -207 c 128,-1,8
 204 -207 204 -207 181 -183.5 c 128,-1,9
 158 -160 158 -160 158 -125.5 c 128,-1,10
 158 -91 158 -91 180.5 -56.5 c 128,-1,11
 203 -22 203 -22 252 0 c 1,12,-1
 308 0 l 1,13,14
 219 -55 219 -55 219 -116 c 0,0,1
EndSplineSet
EndChar

StartChar: tilde
Encoding: 732 732 209
Width: 417
GlyphClass: 2
Flags: W
LayerCount: 2
Fore
SplineSet
276 590 m 0,0,1
 250 590 250 590 207 605 c 128,-1,2
 164 620 164 620 144 620 c 0,3,4
 104 620 104 620 97 576 c 1,5,-1
 50 584 l 1,6,7
 68 692 68 692 137 692 c 0,8,9
 162 692 162 692 208 677 c 128,-1,10
 254 662 254 662 273 662 c 0,11,12
 313 662 313 662 320 706 c 1,13,-1
 367 698 l 1,14,15
 348 590 348 590 276 590 c 0,0,1
EndSplineSet
EndChar

StartChar: hungarumlaut
Encoding: 733 733 210
Width: 335
GlyphClass: 2
Flags: W
LayerCount: 2
Fore
SplineSet
232 690 m 2,0,1
 252 735 252 735 281.5 735 c 128,-1,2
 311 735 311 735 335 692 c 1,3,-1
 197 535 l 1,4,-1
 169 555 l 1,5,-1
 232 690 l 2,0,1
100 690 m 2,6,7
 120 735 120 735 149.5 735 c 128,-1,8
 179 735 179 735 203 692 c 1,9,-1
 65 535 l 1,10,-1
 37 555 l 1,11,-1
 100 690 l 2,6,7
EndSplineSet
EndChar

StartChar: pi
Encoding: 960 960 211
Width: 607
GlyphClass: 2
Flags: W
LayerCount: 2
Fore
SplineSet
50 500 m 1,0,-1
 557 500 l 1,1,-1
 557 426 l 1,2,-1
 487 426 l 1,3,-1
 487 109 l 2,4,5
 487 54 487 54 532 54 c 1,6,-1
 515 -14 l 1,7,8
 465 -14 465 -14 436 12.5 c 128,-1,9
 407 39 407 39 407 109 c 2,10,-1
 407 426 l 1,11,-1
 200 426 l 1,12,-1
 200 0 l 1,13,-1
 120 0 l 1,14,-1
 120 426 l 1,15,-1
 50 426 l 1,16,-1
 50 500 l 1,0,-1
EndSplineSet
EndChar

StartChar: endash
Encoding: 8211 8211 212
Width: 624
GlyphClass: 2
Flags: W
LayerCount: 2
Fore
SplineSet
574 220 m 1,0,-1
 50 220 l 1,1,-1
 50 292 l 1,2,-1
 574 292 l 1,3,-1
 574 220 l 1,0,-1
EndSplineSet
EndChar

StartChar: emdash
Encoding: 8212 8212 213
Width: 886
GlyphClass: 2
Flags: W
LayerCount: 2
Fore
SplineSet
836 220 m 1,0,-1
 50 220 l 1,1,-1
 50 292 l 1,2,-1
 836 292 l 1,3,-1
 836 220 l 1,0,-1
EndSplineSet
EndChar

StartChar: quoteleft
Encoding: 8216 8216 214
Width: 165
GlyphClass: 2
Flags: W
LayerCount: 2
Fore
SplineSet
20 491 m 0,0,1
 20 509 20 509 55 574 c 2,2,-1
 113 680 l 1,3,-1
 145 669 l 1,4,-1
 104 444 l 1,5,6
 20 444 20 444 20 491 c 0,0,1
EndSplineSet
EndChar

StartChar: quoteright
Encoding: 8217 8217 215
Width: 165
GlyphClass: 2
Flags: W
LayerCount: 2
Fore
SplineSet
145 633 m 0,0,1
 145 615 145 615 110 550 c 2,2,-1
 52 444 l 1,3,-1
 20 455 l 1,4,-1
 61 680 l 1,5,6
 145 680 145 680 145 633 c 0,0,1
EndSplineSet
EndChar

StartChar: quotesinglbase
Encoding: 8218 8218 216
Width: 165
GlyphClass: 2
Flags: W
LayerCount: 2
Fore
SplineSet
145 49 m 0,0,1
 145 31 145 31 110 -34 c 2,2,-1
 52 -140 l 1,3,-1
 20 -129 l 1,4,-1
 61 96 l 1,5,6
 145 96 145 96 145 49 c 0,0,1
EndSplineSet
EndChar

StartChar: quotedblleft
Encoding: 8220 8220 217
Width: 295
GlyphClass: 2
Flags: W
LayerCount: 2
Fore
SplineSet
150 491 m 0,0,1
 150 509 150 509 185 574 c 2,2,-1
 243 680 l 1,3,-1
 275 669 l 1,4,-1
 234 444 l 1,5,6
 150 444 150 444 150 491 c 0,0,1
20 491 m 0,7,8
 20 509 20 509 55 574 c 2,9,-1
 113 680 l 1,10,-1
 145 669 l 1,11,-1
 104 444 l 1,12,13
 20 444 20 444 20 491 c 0,7,8
EndSplineSet
EndChar

StartChar: quotedblright
Encoding: 8221 8221 218
Width: 295
GlyphClass: 2
Flags: W
LayerCount: 2
Fore
SplineSet
275 633 m 0,0,1
 275 615 275 615 240 550 c 2,2,-1
 182 444 l 1,3,-1
 150 455 l 1,4,-1
 191 680 l 1,5,6
 275 680 275 680 275 633 c 0,0,1
145 633 m 0,7,8
 145 615 145 615 110 550 c 2,9,-1
 52 444 l 1,10,-1
 20 455 l 1,11,-1
 61 680 l 1,12,13
 145 680 145 680 145 633 c 0,7,8
EndSplineSet
EndChar

StartChar: quotedblbase
Encoding: 8222 8222 219
Width: 295
GlyphClass: 2
Flags: W
LayerCount: 2
Fore
SplineSet
275 49 m 0,0,1
 275 31 275 31 240 -34 c 2,2,-1
 182 -140 l 1,3,-1
 150 -129 l 1,4,-1
 191 96 l 1,5,6
 275 96 275 96 275 49 c 0,0,1
145 49 m 0,7,8
 145 31 145 31 110 -34 c 2,9,-1
 52 -140 l 1,10,-1
 20 -129 l 1,11,-1
 61 96 l 1,12,13
 145 96 145 96 145 49 c 0,7,8
EndSplineSet
EndChar

StartChar: dagger
Encoding: 8224 8224 220
Width: 433
GlyphClass: 2
Flags: W
LayerCount: 2
Fore
SplineSet
53 533 m 1,0,-1
 189 533 l 1,1,-1
 176 680 l 1,2,-1
 265 680 l 1,3,-1
 252 533 l 1,4,-1
 388 533 l 1,5,-1
 388 448 l 1,6,-1
 227 484 l 1,7,-1
 213 484 l 1,8,-1
 53 448 l 1,9,-1
 53 533 l 1,0,-1
180 -75 m 1,10,-1
 180 369 l 1,11,-1
 213 465 l 1,12,-1
 227 465 l 1,13,-1
 261 369 l 1,14,-1
 261 -75 l 1,15,-1
 227 -227 l 1,16,-1
 213 -227 l 1,17,-1
 180 -75 l 1,10,-1
EndSplineSet
EndChar

StartChar: daggerdbl
Encoding: 8225 8225 221
Width: 433
GlyphClass: 2
Flags: W
LayerCount: 2
Fore
SplineSet
53 533 m 1,0,-1
 189 533 l 1,1,-1
 176 680 l 1,2,-1
 265 680 l 1,3,-1
 252 533 l 1,4,-1
 388 533 l 1,5,-1
 388 448 l 1,6,-1
 227 484 l 1,7,-1
 213 484 l 1,8,-1
 53 448 l 1,9,-1
 53 533 l 1,0,-1
388 -80 m 1,10,-1
 252 -80 l 1,11,-1
 265 -227 l 1,12,-1
 176 -227 l 1,13,-1
 189 -80 l 1,14,-1
 53 -80 l 1,15,-1
 53 5 l 1,16,-1
 213 -31 l 1,17,-1
 228 -31 l 1,18,-1
 388 5 l 1,19,-1
 388 -80 l 1,10,-1
261 84 m 1,20,-1
 227 -12 l 1,21,-1
 213 -12 l 1,22,-1
 180 84 l 1,23,-1
 180 369 l 1,24,-1
 213 465 l 1,25,-1
 227 465 l 1,26,-1
 261 369 l 1,27,-1
 261 84 l 1,20,-1
EndSplineSet
EndChar

StartChar: bullet
Encoding: 8226 8226 222
Width: 254
GlyphClass: 2
Flags: W
LayerCount: 2
Fore
SplineSet
30 287 m 128,-1,1
 30 329 30 329 55 356.5 c 128,-1,2
 80 384 80 384 126.5 384 c 128,-1,3
 173 384 173 384 198.5 356.5 c 128,-1,4
 224 329 224 329 224 287 c 128,-1,5
 224 245 224 245 198.5 217.5 c 128,-1,6
 173 190 173 190 126.5 190 c 128,-1,7
 80 190 80 190 55 217.5 c 128,-1,0
 30 245 30 245 30 287 c 128,-1,1
EndSplineSet
EndChar

StartChar: ellipsis
Encoding: 8230 8230 223
Width: 630
GlyphClass: 2
Flags: W
LayerCount: 2
Fore
SplineSet
50 41 m 128,-1,1
 50 65 50 65 64 80.5 c 128,-1,2
 78 96 78 96 104.5 96 c 128,-1,3
 131 96 131 96 145.5 80.5 c 128,-1,4
 160 65 160 65 160 41 c 128,-1,5
 160 17 160 17 145.5 1.5 c 128,-1,6
 131 -14 131 -14 104.5 -14 c 128,-1,7
 78 -14 78 -14 64 1.5 c 128,-1,0
 50 17 50 17 50 41 c 128,-1,1
260 41 m 128,-1,9
 260 65 260 65 274 80.5 c 128,-1,10
 288 96 288 96 314.5 96 c 128,-1,11
 341 96 341 96 355.5 80.5 c 128,-1,12
 370 65 370 65 370 41 c 128,-1,13
 370 17 370 17 355.5 1.5 c 128,-1,14
 341 -14 341 -14 314.5 -14 c 128,-1,15
 288 -14 288 -14 274 1.5 c 128,-1,8
 260 17 260 17 260 41 c 128,-1,9
470 41 m 128,-1,17
 470 65 470 65 484 80.5 c 128,-1,18
 498 96 498 96 524.5 96 c 128,-1,19
 551 96 551 96 565.5 80.5 c 128,-1,20
 580 65 580 65 580 41 c 128,-1,21
 580 17 580 17 565.5 1.5 c 128,-1,22
 551 -14 551 -14 524.5 -14 c 128,-1,23
 498 -14 498 -14 484 1.5 c 128,-1,16
 470 17 470 17 470 41 c 128,-1,17
EndSplineSet
EndChar

StartChar: perthousand
Encoding: 8240 8240 224
Width: 1088
GlyphClass: 2
Flags: W
LayerCount: 2
Fore
SplineSet
215 -85 m 1,0,-1
 481 705 l 1,1,-1
 555 705 l 1,2,-1
 289 -85 l 1,3,-1
 215 -85 l 1,0,-1
291 420 m 128,-1,5
 291 333 291 333 257 278.5 c 128,-1,6
 223 224 223 224 153.5 224 c 128,-1,7
 84 224 84 224 49.5 279 c 128,-1,8
 15 334 15 334 15 420 c 128,-1,9
 15 506 15 506 49.5 561 c 128,-1,10
 84 616 84 616 153.5 616 c 128,-1,11
 223 616 223 616 257 561.5 c 128,-1,4
 291 507 291 507 291 420 c 128,-1,5
221 420 m 128,-1,13
 221 478 221 478 204 514.5 c 128,-1,14
 187 551 187 551 153 551 c 128,-1,15
 119 551 119 551 102 514.5 c 128,-1,16
 85 478 85 478 85 420 c 128,-1,17
 85 362 85 362 102 325.5 c 128,-1,18
 119 289 119 289 153 289 c 128,-1,19
 187 289 187 289 204 325.5 c 128,-1,12
 221 362 221 362 221 420 c 128,-1,13
797 200 m 128,-1,21
 797 287 797 287 831 341.5 c 128,-1,22
 865 396 865 396 934.5 396 c 128,-1,23
 1004 396 1004 396 1038.5 341 c 128,-1,24
 1073 286 1073 286 1073 200 c 128,-1,25
 1073 114 1073 114 1038.5 59 c 128,-1,26
 1004 4 1004 4 934.5 4 c 128,-1,27
 865 4 865 4 831 58.5 c 128,-1,20
 797 113 797 113 797 200 c 128,-1,21
479 200 m 128,-1,29
 479 287 479 287 513 341.5 c 128,-1,30
 547 396 547 396 616.5 396 c 128,-1,31
 686 396 686 396 720.5 341 c 128,-1,32
 755 286 755 286 755 200 c 128,-1,33
 755 114 755 114 720.5 59 c 128,-1,34
 686 4 686 4 616.5 4 c 128,-1,35
 547 4 547 4 513 58.5 c 128,-1,28
 479 113 479 113 479 200 c 128,-1,29
867 200 m 128,-1,37
 867 142 867 142 884 105.5 c 128,-1,38
 901 69 901 69 935 69 c 128,-1,39
 969 69 969 69 986 105.5 c 128,-1,40
 1003 142 1003 142 1003 200 c 128,-1,41
 1003 258 1003 258 986 294.5 c 128,-1,42
 969 331 969 331 935 331 c 128,-1,43
 901 331 901 331 884 294.5 c 128,-1,36
 867 258 867 258 867 200 c 128,-1,37
549 200 m 128,-1,45
 549 142 549 142 566 105.5 c 128,-1,46
 583 69 583 69 617 69 c 128,-1,47
 651 69 651 69 668 105.5 c 128,-1,48
 685 142 685 142 685 200 c 128,-1,49
 685 258 685 258 668 294.5 c 128,-1,50
 651 331 651 331 617 331 c 128,-1,51
 583 331 583 331 566 294.5 c 128,-1,44
 549 258 549 258 549 200 c 128,-1,45
EndSplineSet
EndChar

StartChar: guilsinglleft
Encoding: 8249 8249 225
Width: 218
GlyphClass: 2
Flags: W
LayerCount: 2
Fore
SplineSet
30 242 m 128,-1,1
 30 265 30 265 52 290 c 2,2,-1
 157 414 l 1,3,-1
 188 399 l 1,4,-1
 123 242 l 1,5,-1
 188 85 l 1,6,-1
 157 70 l 1,7,-1
 52 194 l 2,8,0
 30 219 30 219 30 242 c 128,-1,1
EndSplineSet
EndChar

StartChar: guilsinglright
Encoding: 8250 8250 226
Width: 218
GlyphClass: 2
Flags: W
LayerCount: 2
Fore
SplineSet
188 242 m 128,-1,1
 188 219 188 219 166 194 c 2,2,-1
 61 70 l 1,3,-1
 30 85 l 1,4,-1
 95 242 l 1,5,-1
 30 399 l 1,6,-1
 61 414 l 1,7,-1
 166 290 l 2,8,0
 188 265 188 265 188 242 c 128,-1,1
EndSplineSet
EndChar

StartChar: fraction
Encoding: 8260 8260 227
Width: 260
GlyphClass: 2
Flags: W
LayerCount: 2
Fore
SplineSet
-40 -85 m 1,0,-1
 226 705 l 1,1,-1
 300 705 l 1,2,-1
 34 -85 l 1,3,-1
 -40 -85 l 1,0,-1
EndSplineSet
EndChar

StartChar: Euro
Encoding: 8364 8364 228
Width: 518
GlyphClass: 2
Flags: W
LayerCount: 2
Fore
SplineSet
24 319 m 1,0,-1
 24 379 l 1,1,-1
 97 379 l 1,2,3
 115 496 115 496 177 566 c 128,-1,4
 239 636 239 636 340 636 c 128,-1,5
 441 636 441 636 507 589 c 1,6,-1
 473 533 l 1,7,8
 454 549 454 549 416.5 560 c 128,-1,9
 379 571 379 571 345 571 c 0,10,11
 274 571 274 571 231.5 518.5 c 128,-1,12
 189 466 189 466 176 379 c 1,13,-1
 367 379 l 1,14,-1
 367 319 l 1,15,-1
 170 319 l 1,16,-1
 170 274 l 1,17,-1
 367 274 l 1,18,-1
 367 214 l 1,19,-1
 176 214 l 1,20,21
 202 55 202 55 327 55 c 0,22,23
 367 55 367 55 402.5 63 c 128,-1,24
 438 71 438 71 453 79 c 2,25,-1
 468 87 l 1,26,-1
 499 27 l 1,27,28
 431 -16 431 -16 327.5 -16 c 128,-1,29
 224 -16 224 -16 166.5 46 c 128,-1,30
 109 108 109 108 95 214 c 1,31,-1
 24 214 l 1,32,-1
 24 274 l 1,33,-1
 91 274 l 1,34,-1
 91 286 l 2,35,36
 91 308 91 308 92 319 c 1,37,-1
 24 319 l 1,0,-1
EndSplineSet
EndChar

StartChar: trademark
Encoding: 8482 8482 229
Width: 662
GlyphClass: 2
Flags: W
LayerCount: 2
Fore
SplineSet
335 589 m 1,0,-1
 329 360 l 1,1,-1
 272 360 l 1,2,-1
 284 705 l 1,3,-1
 344 705 l 1,4,-1
 439 485 l 1,5,-1
 535 705 l 1,6,-1
 595 705 l 1,7,-1
 607 360 l 1,8,-1
 551 360 l 1,9,-1
 542 588 l 1,10,-1
 465 411 l 1,11,-1
 414 411 l 1,12,-1
 335 589 l 1,0,-1
248 655 m 1,13,-1
 156 655 l 1,14,-1
 156 360 l 1,15,-1
 100 360 l 1,16,-1
 100 655 l 1,17,-1
 8 655 l 1,18,-1
 8 705 l 1,19,-1
 248 705 l 1,20,-1
 248 655 l 1,13,-1
EndSplineSet
EndChar

StartChar: Omega
Encoding: 8486 8486 230
Width: 810
GlyphClass: 2
Flags: W
LayerCount: 2
Fore
SplineSet
712 398 m 0,0,1
 712 251 712 251 586 164 c 1,2,-1
 586 72 l 1,3,-1
 710 72 l 1,4,-1
 710 0 l 1,5,-1
 512 0 l 1,6,-1
 512 186 l 1,7,8
 568 213 568 213 600 271 c 128,-1,9
 632 329 632 329 632 398 c 0,10,11
 632 497 632 497 574.5 560 c 128,-1,12
 517 623 517 623 404 623 c 128,-1,13
 291 623 291 623 234.5 560.5 c 128,-1,14
 178 498 178 498 178 398 c 0,15,16
 178 329 178 329 210 271 c 128,-1,17
 242 213 242 213 298 186 c 1,18,-1
 298 0 l 1,19,-1
 90 0 l 1,20,-1
 90 72 l 1,21,-1
 224 72 l 1,22,-1
 224 164 l 1,23,24
 98 251 98 251 98 398 c 0,25,26
 98 530 98 530 174.5 613 c 128,-1,27
 251 696 251 696 404.5 696 c 128,-1,28
 558 696 558 696 635 613 c 128,-1,29
 712 530 712 530 712 398 c 0,0,1
EndSplineSet
EndChar

StartChar: partialdiff
Encoding: 8706 8706 231
Width: 541
GlyphClass: 2
Flags: W
LayerCount: 2
Fore
SplineSet
287 474 m 0,0,1
 345 474 345 474 391 449 c 1,2,3
 325 627 325 627 111 662 c 1,4,-1
 128 720 l 1,5,6
 212 704 212 704 277 670 c 128,-1,7
 342 636 342 636 381 594.5 c 128,-1,8
 420 553 420 553 445 500 c 0,9,10
 489 407 489 407 489 283 c 128,-1,11
 489 159 489 159 430 72.5 c 128,-1,12
 371 -14 371 -14 273.5 -14 c 128,-1,13
 176 -14 176 -14 116.5 48.5 c 128,-1,14
 57 111 57 111 57 222 c 128,-1,15
 57 333 57 333 127 403.5 c 128,-1,16
 197 474 197 474 287 474 c 0,0,1
417 291 m 0,17,18
 417 333 417 333 411 369 c 1,19,20
 363 408 363 408 298 408 c 128,-1,21
 233 408 233 408 183 355.5 c 128,-1,22
 133 303 133 303 133 220.5 c 128,-1,23
 133 138 133 138 171 95 c 128,-1,24
 209 52 209 52 271 52 c 128,-1,25
 333 52 333 52 375 113 c 128,-1,26
 417 174 417 174 417 291 c 0,17,18
EndSplineSet
EndChar

StartChar: Delta
Encoding: 8710 8710 232
Width: 556
GlyphClass: 2
Flags: W
LayerCount: 2
Fore
SplineSet
327 700 m 1,0,-1
 556 0 l 1,1,-1
 0 0 l 1,2,-1
 229 700 l 1,3,-1
 327 700 l 1,0,-1
278 609 m 1,4,-1
 106 72 l 1,5,-1
 450 72 l 1,6,-1
 278 609 l 1,4,-1
EndSplineSet
EndChar

StartChar: product
Encoding: 8719 8719 233
Width: 674
GlyphClass: 2
Flags: W
LayerCount: 2
Fore
SplineSet
624 626 m 1,0,-1
 554 626 l 1,1,-1
 554 -150 l 1,2,-1
 474 -150 l 1,3,-1
 474 626 l 1,4,-1
 200 626 l 1,5,-1
 200 -150 l 1,6,-1
 120 -150 l 1,7,-1
 120 626 l 1,8,-1
 50 626 l 1,9,-1
 50 700 l 1,10,-1
 624 700 l 1,11,-1
 624 626 l 1,0,-1
EndSplineSet
EndChar

StartChar: summation
Encoding: 8721 8721 234
Width: 554
GlyphClass: 2
Flags: W
LayerCount: 2
Fore
SplineSet
524 626 m 1,0,-1
 140 626 l 1,1,-1
 340 275 l 1,2,-1
 140 -76 l 1,3,-1
 524 -76 l 1,4,-1
 524 -150 l 1,5,-1
 50 -150 l 1,6,-1
 50 -76 l 1,7,-1
 250 275 l 1,8,-1
 50 626 l 1,9,-1
 50 700 l 1,10,-1
 524 700 l 1,11,-1
 524 626 l 1,0,-1
EndSplineSet
EndChar

StartChar: minus
Encoding: 8722 8722 235
Width: 518
GlyphClass: 2
Flags: W
LayerCount: 2
Fore
SplineSet
47 275 m 1,0,-1
 47 347 l 1,1,-1
 471 347 l 1,2,-1
 471 275 l 1,3,-1
 47 275 l 1,0,-1
EndSplineSet
EndChar

StartChar: radical
Encoding: 8730 8730 236
Width: 507
GlyphClass: 2
Flags: W
LayerCount: 2
Fore
SplineSet
607 659 m 1,0,-1
 487 659 l 1,1,-1
 277 -150 l 1,2,-1
 179 -150 l 1,3,-1
 50 230 l 1,4,-1
 113 230 l 1,5,-1
 215 -84 l 1,6,-1
 423 730 l 1,7,-1
 607 730 l 1,8,-1
 607 659 l 1,0,-1
EndSplineSet
EndChar

StartChar: infinity
Encoding: 8734 8734 237
Width: 734
GlyphClass: 2
Flags: W
LayerCount: 2
Fore
SplineSet
532 145 m 0,0,1
 484 145 484 145 446.5 174.5 c 128,-1,2
 409 204 409 204 370 258 c 1,3,4
 334 205 334 205 295.5 175 c 128,-1,5
 257 145 257 145 193.5 145 c 128,-1,6
 130 145 130 145 90 186.5 c 128,-1,7
 50 228 50 228 50 310 c 128,-1,8
 50 392 50 392 90 433.5 c 128,-1,9
 130 475 130 475 193 475 c 128,-1,10
 256 475 256 475 294.5 447 c 128,-1,11
 333 419 333 419 368 369 c 1,12,13
 404 419 404 419 441.5 447 c 128,-1,14
 479 475 479 475 532 475 c 0,15,16
 604 475 604 475 644 433.5 c 128,-1,17
 684 392 684 392 684 310.5 c 128,-1,18
 684 229 684 229 643.5 187 c 128,-1,19
 603 145 603 145 532 145 c 0,0,1
200 210 m 0,20,21
 239 210 239 210 268.5 236.5 c 128,-1,22
 298 263 298 263 331 313 c 1,23,24
 298 360 298 360 266.5 385 c 128,-1,25
 235 410 235 410 197 410 c 0,26,27
 121 410 121 410 121 310 c 128,-1,28
 121 210 121 210 200 210 c 0,20,21
534 410 m 0,29,30
 496 410 496 410 467.5 385 c 128,-1,31
 439 360 439 360 407 312 c 1,32,33
 440 262 440 262 469 236 c 128,-1,34
 498 210 498 210 537 210 c 0,35,36
 613 210 613 210 613 310 c 128,-1,37
 613 410 613 410 534 410 c 0,29,30
EndSplineSet
EndChar

StartChar: integral
Encoding: 8747 8747 238
Width: 420
GlyphClass: 2
Flags: W
LayerCount: 2
Fore
SplineSet
170 552 m 2,0,1
 170 637 170 637 206.5 676 c 128,-1,2
 243 715 243 715 300.5 715 c 128,-1,3
 358 715 358 715 420 675 c 1,4,-1
 390 621 l 1,5,6
 338 644 338 644 311 644 c 0,7,8
 250 644 250 644 250 556 c 2,9,-1
 250 -2 l 2,10,11
 250 -87 250 -87 213.5 -126 c 128,-1,12
 177 -165 177 -165 119.5 -165 c 128,-1,13
 62 -165 62 -165 0 -125 c 1,14,-1
 30 -71 l 1,15,16
 82 -94 82 -94 109 -94 c 0,17,18
 165 -94 165 -94 170 -6 c 1,19,-1
 170 552 l 2,0,1
EndSplineSet
EndChar

StartChar: approxequal
Encoding: 8776 8776 239
Width: 518
GlyphClass: 2
Flags: W
LayerCount: 2
Fore
SplineSet
471 361 m 1,0,1
 429 325 429 325 382 325 c 128,-1,2
 335 325 335 325 255.5 360 c 128,-1,3
 176 395 176 395 132.5 395 c 128,-1,4
 89 395 89 395 47 361 c 1,5,-1
 47 437 l 1,6,7
 90 471 90 471 133.5 471 c 128,-1,8
 177 471 177 471 256.5 436 c 128,-1,9
 336 401 336 401 382.5 401 c 128,-1,10
 429 401 429 401 471 437 c 1,11,-1
 471 361 l 1,0,1
47 261 m 1,12,13
 89 295 89 295 133 295 c 128,-1,14
 177 295 177 295 256.5 260 c 128,-1,15
 336 225 336 225 382.5 225 c 128,-1,16
 429 225 429 225 471 261 c 1,17,-1
 471 185 l 1,18,19
 429 149 429 149 382 149 c 128,-1,20
 335 149 335 149 255.5 184 c 128,-1,21
 176 219 176 219 132.5 219 c 128,-1,22
 89 219 89 219 47 185 c 1,23,-1
 47 261 l 1,12,13
EndSplineSet
EndChar

StartChar: notequal
Encoding: 8800 8800 240
Width: 518
GlyphClass: 2
Flags: W
LayerCount: 2
Fore
SplineSet
47 185 m 1,0,-1
 47 257 l 1,1,-1
 204 257 l 1,2,-1
 240 365 l 1,3,-1
 47 365 l 1,4,-1
 47 437 l 1,5,-1
 264 437 l 1,6,-1
 355 705 l 1,7,-1
 429 705 l 1,8,-1
 338 437 l 1,9,-1
 471 437 l 1,10,-1
 471 365 l 1,11,-1
 314 365 l 1,12,-1
 278 257 l 1,13,-1
 471 257 l 1,14,-1
 471 185 l 1,15,-1
 254 185 l 1,16,-1
 163 -85 l 1,17,-1
 89 -85 l 1,18,-1
 180 185 l 1,19,-1
 47 185 l 1,0,-1
EndSplineSet
EndChar

StartChar: lessequal
Encoding: 8804 8804 241
Width: 518
GlyphClass: 2
Flags: W
LayerCount: 2
Fore
SplineSet
70 286 m 1,0,-1
 70 335 l 1,1,-1
 406 534 l 1,2,-1
 443 473 l 1,3,-1
 169 311 l 1,4,-1
 443 149 l 1,5,-1
 406 88 l 1,6,-1
 70 286 l 1,0,-1
58 -48 m 1,7,-1
 58 24 l 1,8,-1
 460 24 l 1,9,-1
 460 -48 l 1,10,-1
 58 -48 l 1,7,-1
EndSplineSet
EndChar

StartChar: greaterequal
Encoding: 8805 8805 242
Width: 518
GlyphClass: 2
Flags: W
LayerCount: 2
Fore
SplineSet
448 335 m 1,0,-1
 448 286 l 1,1,-1
 112 88 l 1,2,-1
 75 149 l 1,3,-1
 349 311 l 1,4,-1
 75 473 l 1,5,-1
 112 534 l 1,6,-1
 448 335 l 1,0,-1
58 -48 m 1,7,-1
 58 24 l 1,8,-1
 460 24 l 1,9,-1
 460 -48 l 1,10,-1
 58 -48 l 1,7,-1
EndSplineSet
EndChar

StartChar: lozenge
Encoding: 9674 9674 243
Width: 556
GlyphClass: 2
Flags: W
LayerCount: 2
Fore
SplineSet
327 700 m 1,0,-1
 516 275 l 1,1,-1
 327 -150 l 1,2,-1
 229 -150 l 1,3,-1
 40 275 l 1,4,-1
 229 700 l 1,5,-1
 327 700 l 1,0,-1
123 275 m 1,6,-1
 278 -83 l 1,7,-1
 433 275 l 1,8,-1
 278 633 l 1,9,-1
 123 275 l 1,6,-1
EndSplineSet
EndChar

StartChar: apple
Encoding: 63743 63743 244
Width: 923
GlyphClass: 2
Flags: W
LayerCount: 2
Fore
SplineSet
589 -89 m 2,0,-1
 566 -88 l 2,1,2
 552 -88 552 -88 534.5 -100 c 128,-1,3
 517 -112 517 -112 508 -112 c 1,4,-1
 462 -102 l 1,5,6
 454 -102 454 -102 438.5 -108 c 128,-1,7
 423 -114 423 -114 414.5 -114 c 128,-1,8
 406 -114 406 -114 390 -101.5 c 128,-1,9
 374 -89 374 -89 361 -89 c 1,10,-1
 337 -91 l 1,11,12
 322 -91 322 -91 304 -74 c 1,13,-1
 286 -55 l 1,14,15
 274 -49 274 -49 261 -48 c 128,-1,16
 248 -47 248 -47 239 -41.5 c 128,-1,17
 230 -36 230 -36 223 -18.5 c 128,-1,18
 216 -1 216 -1 210.5 3.5 c 128,-1,19
 205 8 205 8 191 13.5 c 128,-1,20
 177 19 177 19 171 28 c 0,21,22
 166 37 166 37 164 51.5 c 128,-1,23
 162 66 162 66 158 72.5 c 128,-1,24
 154 79 154 79 144 86 c 0,25,26
 122 104 122 104 122 124 c 1,27,-1
 125 149 l 1,28,29
 125 158 125 158 112.5 175.5 c 128,-1,30
 100 193 100 193 100 202 c 128,-1,31
 100 211 100 211 106 225.5 c 128,-1,32
 112 240 112 240 112 248.5 c 128,-1,33
 112 257 112 257 106 270 c 128,-1,34
 100 283 100 283 100 292 c 128,-1,35
 100 301 100 301 112.5 321.5 c 128,-1,36
 125 342 125 342 125 351 c 2,37,-1
 124 376 l 2,38,39
 124 391 124 391 140.5 405.5 c 128,-1,40
 157 420 157 420 159.5 425 c 128,-1,41
 162 430 162 430 164 446 c 128,-1,42
 166 462 166 462 170 468 c 128,-1,43
 174 474 174 474 189.5 480 c 128,-1,44
 205 486 205 486 210 491 c 128,-1,45
 215 496 215 496 222 511.5 c 128,-1,46
 229 527 229 527 235.5 532.5 c 128,-1,47
 242 538 242 538 261 542 c 128,-1,48
 280 546 280 546 285.5 549 c 128,-1,49
 291 552 291 552 306 569 c 128,-1,50
 321 586 321 586 335 587 c 1,51,-1
 361 585 l 2,52,53
 374 585 374 585 389.5 596.5 c 128,-1,54
 405 608 405 608 416 608 c 1,55,-1
 460 596 l 1,56,-1
 505 608 l 1,57,58
 518 608 518 608 534 595.5 c 128,-1,59
 550 583 550 583 562 583 c 1,60,-1
 590 586 l 1,61,62
 606 586 606 586 619 569.5 c 128,-1,63
 632 553 632 553 638.5 549.5 c 128,-1,64
 645 546 645 546 660 543 c 128,-1,65
 675 540 675 540 682.5 535 c 128,-1,66
 690 530 690 530 695 516 c 128,-1,67
 700 502 700 502 705.5 497 c 128,-1,68
 711 492 711 492 731 481.5 c 128,-1,69
 751 471 751 471 755.5 463 c 128,-1,70
 760 455 760 455 760.5 439 c 128,-1,71
 761 423 761 423 763.5 418.5 c 128,-1,72
 766 414 766 414 783 399.5 c 128,-1,73
 800 385 800 385 800 369 c 2,74,-1
 799 344 l 2,75,76
 799 331 799 331 811 312.5 c 128,-1,77
 823 294 823 294 823 285 c 128,-1,78
 823 276 823 276 817.5 263 c 128,-1,79
 812 250 812 250 812 243 c 128,-1,80
 812 236 812 236 817.5 221.5 c 128,-1,81
 823 207 823 207 822.5 199 c 128,-1,82
 822 191 822 191 810 178.5 c 128,-1,83
 798 166 798 166 798 152 c 2,84,-1
 800 120 l 2,85,86
 800 104 800 104 784 91 c 128,-1,87
 768 78 768 78 765.5 73 c 128,-1,88
 763 68 763 68 758.5 49 c 128,-1,89
 754 30 754 30 748.5 23.5 c 128,-1,90
 743 17 743 17 730.5 11.5 c 128,-1,91
 718 6 718 6 713 1 c 128,-1,92
 708 -4 708 -4 699 -20.5 c 128,-1,93
 690 -37 690 -37 683 -42 c 128,-1,94
 676 -47 676 -47 658.5 -51.5 c 128,-1,95
 641 -56 641 -56 636 -59 c 128,-1,96
 631 -62 631 -62 617.5 -75.5 c 128,-1,97
 604 -89 604 -89 589 -89 c 2,0,-1
462 -6 m 1,98,-1
 495 -13 l 1,99,100
 501 -13 501 -13 512 -6 c 0,101,102
 527 4 527 4 539 4 c 2,103,-1
 554 3 l 2,104,105
 566 3 566 3 575 13 c 128,-1,106
 584 23 584 23 587.5 25 c 128,-1,107
 591 27 591 27 604 30.5 c 128,-1,108
 617 34 617 34 622.5 38 c 128,-1,109
 628 42 628 42 634.5 53.5 c 128,-1,110
 641 65 641 65 644.5 68.5 c 128,-1,111
 648 72 648 72 657 76 c 128,-1,112
 666 80 666 80 670 84.5 c 128,-1,113
 674 89 674 89 677 103 c 128,-1,114
 680 117 680 117 682.5 121 c 128,-1,115
 685 125 685 125 696 134 c 128,-1,116
 707 143 707 143 707 157 c 2,117,-1
 706 177 l 2,118,119
 706 188 706 188 714.5 197.5 c 128,-1,120
 723 207 723 207 724 213 c 1,121,-1
 716 245 l 1,122,-1
 724 273 l 1,123,124
 724 281 724 281 715 295 c 128,-1,125
 706 309 706 309 706 318 c 2,126,-1
 707 335 l 2,127,128
 707 347 707 347 695 357 c 128,-1,129
 683 367 683 367 681 371 c 128,-1,130
 679 375 679 375 678.5 386.5 c 128,-1,131
 678 398 678 398 675 403.5 c 128,-1,132
 672 409 672 409 657.5 416.5 c 128,-1,133
 643 424 643 424 639 428 c 128,-1,134
 635 432 635 432 631 442 c 128,-1,135
 627 452 627 452 622 456 c 128,-1,136
 617 460 617 460 606 462 c 128,-1,137
 595 464 595 464 590 466.5 c 128,-1,138
 585 469 585 469 576 481 c 128,-1,139
 567 493 567 493 555 493 c 1,140,-1
 535 491 l 2,141,142
 526 491 526 491 515 500 c 128,-1,143
 504 509 504 509 494 509 c 1,144,-1
 461 500 l 1,145,-1
 429 509 l 1,146,147
 421 509 421 509 409 500.5 c 128,-1,148
 397 492 397 492 387 492 c 2,149,-1
 370 493 l 2,150,151
 359 493 359 493 348.5 480.5 c 128,-1,152
 338 468 338 468 333.5 465.5 c 128,-1,153
 329 463 329 463 316 460.5 c 128,-1,154
 303 458 303 458 298 454 c 128,-1,155
 293 450 293 450 288 439 c 128,-1,156
 283 428 283 428 279 424 c 128,-1,157
 275 420 275 420 264.5 416 c 128,-1,158
 254 412 254 412 250 407 c 0,159,160
 248 403 248 403 246 391.5 c 128,-1,161
 244 380 244 380 242 376 c 128,-1,162
 240 372 240 372 228 361.5 c 128,-1,163
 216 351 216 351 216 340 c 2,164,-1
 217 324 l 2,165,166
 217 316 217 316 208.5 301 c 128,-1,167
 200 286 200 286 200 278 c 1,168,-1
 208 248 l 1,169,-1
 200 215 l 1,170,171
 200 207 200 207 208.5 194.5 c 128,-1,172
 217 182 217 182 217 174 c 2,173,-1
 215 158 l 1,174,175
 215 147 215 147 227.5 135.5 c 128,-1,176
 240 124 240 124 242 120 c 128,-1,177
 244 116 244 116 245.5 105.5 c 128,-1,178
 247 95 247 95 251 88.5 c 128,-1,179
 255 82 255 82 265 78 c 128,-1,180
 275 74 275 74 279 70.5 c 128,-1,181
 283 67 283 67 288.5 54 c 128,-1,182
 294 41 294 41 300 37 c 128,-1,183
 306 33 306 33 315.5 33 c 128,-1,184
 325 33 325 33 331 30 c 128,-1,185
 337 27 337 27 348.5 14.5 c 128,-1,186
 360 2 360 2 371 2 c 2,187,-1
 386 3 l 2,188,189
 396 3 396 3 408 -5.5 c 128,-1,190
 420 -14 420 -14 426 -15 c 1,191,-1
 462 -6 l 1,98,-1
462 417 m 128,-1,193
 532 417 532 417 582 367.5 c 128,-1,194
 632 318 632 318 632 247 c 128,-1,195
 632 176 632 176 582 126.5 c 128,-1,196
 532 77 532 77 462 77 c 128,-1,197
 392 77 392 77 342 126.5 c 128,-1,198
 292 176 292 176 292 247 c 128,-1,199
 292 318 292 318 342 367.5 c 128,-1,192
 392 417 392 417 462 417 c 128,-1,193
505 292 m 1,200,-1
 557 292 l 1,201,-1
 557 360 l 1,202,-1
 366 360 l 1,203,-1
 366 292 l 1,204,-1
 420 292 l 1,205,-1
 420 117 l 1,206,-1
 505 117 l 1,207,-1
 505 292 l 1,200,-1
EndSplineSet
EndChar

StartChar: fi
Encoding: 64257 64257 245
Width: 529
GlyphClass: 3
Flags: W
LayerCount: 2
Fore
SplineSet
40 435 m 1,0,-1
 40 500 l 1,1,-1
 105 500 l 1,2,-1
 105 551 l 2,3,4
 105 636 105 636 140.5 675 c 128,-1,5
 176 714 176 714 233.5 714 c 128,-1,6
 291 714 291 714 353 674 c 1,7,-1
 323 620 l 1,8,9
 271 643 271 643 242 643 c 0,10,11
 181 643 181 643 181 555 c 2,12,-1
 181 500 l 1,13,-1
 444 500 l 1,14,-1
 444 0 l 1,15,-1
 368 0 l 1,16,-1
 368 435 l 1,17,-1
 181 435 l 1,18,-1
 181 -160 l 1,19,-1
 105 -160 l 1,20,-1
 105 435 l 1,21,-1
 40 435 l 1,0,-1
EndSplineSet
Ligature2: "'liga' Standard Ligatures in Latin lookup 0 subtable" f i
EndChar

StartChar: fl
Encoding: 64258 64258 246
Width: 576
GlyphClass: 3
Flags: W
LayerCount: 2
Fore
SplineSet
40 435 m 1,0,-1
 40 500 l 1,1,-1
 105 500 l 1,2,-1
 105 551 l 2,3,4
 105 636 105 636 140.5 675 c 128,-1,5
 176 714 176 714 233.5 714 c 128,-1,6
 291 714 291 714 353 674 c 1,7,-1
 323 620 l 1,8,9
 271 643 271 643 242 643 c 0,10,11
 181 643 181 643 181 555 c 2,12,-1
 181 500 l 1,13,-1
 296 500 l 1,14,-1
 296 435 l 1,15,-1
 181 435 l 1,16,-1
 181 -160 l 1,17,-1
 105 -160 l 1,18,-1
 105 435 l 1,19,-1
 40 435 l 1,0,-1
388 700 m 1,20,-1
 464 700 l 1,21,-1
 464 110 l 2,22,23
 464 55 464 55 509 55 c 0,24,25
 538 55 538 55 566 75 c 1,26,-1
 596 21 l 1,27,28
 541 -14 541 -14 492 -14 c 128,-1,29
 443 -14 443 -14 415.5 13 c 128,-1,30
 388 40 388 40 388 110 c 2,31,-1
 388 700 l 1,20,-1
EndSplineSet
Ligature2: "'liga' Standard Ligatures in Latin lookup 0 subtable" f l
EndChar
